<?xml version="1.0" standalone="no"?>
<!DOCTYPE svg PUBLIC "-//W3C//DTD SVG 1.1//EN" "http://www.w3.org/Graphics/SVG/1.1/DTD/svg11.dtd" >
<svg xmlns="http://www.w3.org/2000/svg" xmlns:xlink="http://www.w3.org/1999/xlink" version="1.1">
<metadata>
Created by FontForge 20161116 at Fri Aug  2 15:43:38 2002
 By Jimmy Wärting
(r) (c) 1998 [T-26] Chicago www.t26.com 773.862.1201 T0351 ID#5092711 designer: Brad Demarea
</metadata>
<defs>
<font id="VinylRegular" horiz-adv-x="488" >
  <font-face 
    font-family="VinylRegular"
    font-weight="400"
    font-stretch="normal"
    units-per-em="1000"
    panose-1="0 0 4 0 0 0 0 0 0 0"
    ascent="800"
    descent="-200"
    x-height="479"
    cap-height="714"
    bbox="-80 -237.032 777 894"
    underline-thickness="20"
    underline-position="-143"
    unicode-range="U+0020-F002"
  />
<missing-glyph horiz-adv-x="500" 
d="M63 0v800h375v-800h-375zM125 63h250v675h-250v-675z" />
    <glyph glyph-name=".notdef" horiz-adv-x="500" 
d="M63 0v800h375v-800h-375zM125 63h250v675h-250v-675z" />
    <glyph glyph-name=".null" horiz-adv-x="0" 
 />
    <glyph glyph-name="nonmarkingreturn" horiz-adv-x="195" 
 />
    <glyph glyph-name="space" unicode=" " horiz-adv-x="195" 
 />
    <glyph glyph-name="exclam" unicode="!" horiz-adv-x="212" 
d="M162 685l-7 -443q0 -9 -8 -18t-17 -9h-47q-25 0 -25 27l-7 442q0 28 28 28h55q28 0 28 -27zM159 29q0 -10 -9.5 -19.5t-19.5 -9.5h-46q-10 0 -19.5 9.5t-9.5 18.5v57q0 10 9.5 19.5t19.5 9.5h46q10 0 19.5 -9.5t9.5 -19.5v-56z" />
    <glyph glyph-name="quotedbl" unicode="&#x22;" horiz-adv-x="346" 
d="M322 784l-22 -212q-1 -11 -11 -19t-21 -8h-15q-11 0 -21.5 8t-11.5 19l-21 213q-1 11 6.5 19.5t18.5 8.5h73q11 0 18.5 -9t6.5 -20zM149 784l-22 -212q-1 -10 -12 -18.5t-21 -8.5h-15q-11 0 -21.5 8t-11.5 19l-21 213q-1 11 6.5 19.5t18.5 8.5h73q12 0 19.5 -9t6.5 -20z
" />
    <glyph glyph-name="numbersign" unicode="#" horiz-adv-x="514" 
d="M517 440q0 -9 -9 -18.5t-19 -9.5h-52q-30 0 -34 -30l-6 -40q-4 -28 24 -28h38q10 0 19.5 -9t9.5 -19v-32q0 -9 -9 -18.5t-19 -9.5h-52q-18 0 -24.5 -5t-9.5 -24l-26 -169q-1 -9 -13 -18.5t-21 -9.5h-31q-10 0 -17.5 9t-5.5 19l26 170q1 7 1 11q0 17 -29 17h-41
q-17 0 -23 -6t-9 -23l-26 -169q-1 -9 -13 -18.5t-21 -9.5h-31q-10 0 -17.5 9t-5.5 19l26 169q3 18 -3 23.5t-23 5.5h-46q-9 0 -18.5 10t-9.5 19v31q0 10 9 19t19 9h63q26 0 31 28l7 40q5 30 -24 30h-49q-9 0 -18 9.5t-9 19.5v31q0 10 8 19t19 9h63q28 0 32 28l24 155
q2 11 12 20t21 9h32q9 0 17.5 -9t6.5 -19l-24 -155q-4 -29 24 -29h43q29 0 33 27l24 156q2 11 12 20t21 9h32q9 0 17 -9t7 -19l-24 -156q-4 -28 24 -28h38q10 0 19.5 -9t9.5 -19v-32zM315 382q1 6 1 10q0 20 -28 20h-41q-29 0 -33 -29l-6 -42q-4 -27 23 -27h44q18 0 24 5.5
t9 22.5z" />
    <glyph glyph-name="dollar" unicode="$" horiz-adv-x="489" 
d="M449 170q0 -74 -44.5 -122t-120.5 -57q-7 -1 -7 -18v-35q0 -11 -9 -20t-20 -9h-8q-10 0 -19 9.5t-9 19.5v35q0 19 -7 20q-89 16 -135 89q-30 49 -30 88q0 20 26 28l40 12q13 4 20 4q16 0 22 -23q25 -99 105 -99q36 0 58.5 22.5t22.5 58.5q0 34 -21.5 62.5t-83.5 77.5
l-72 57q-100 79 -100 179q0 69 42 115.5t110 56.5q3 0 3 21v18q0 10 9.5 19.5t18.5 9.5h8q10 0 19.5 -9t9.5 -19v-19q0 -20 4 -21q76 -14 123 -80q34 -47 34 -77q0 -19 -22 -26l-50 -15q-7 -2 -12 -2q-16 0 -24 22q-27 78 -87 78q-30 0 -50.5 -20.5t-20.5 -51.5
q0 -54 74 -113l49 -39q84 -67 107 -94q47 -57 47 -133z" />
    <glyph glyph-name="percent" unicode="%" horiz-adv-x="563" 
d="M218 460q0 -125 -94 -125q-93 0 -93 125v136q0 124 93 124q94 0 94 -124v-136zM451 684l-271 -654q-12 -30 -34 -30h-29q-20 0 -8 30l270 655q12 29 33 29h30q10 0 11 -11q2 -10 -2 -19zM532 115q0 -124 -94 -124t-94 124v136q0 124 94 124t94 -124v-136zM156 454v147
q0 50 -32 50q-31 0 -31 -50v-147q0 -50 31 -50q32 0 32 50zM469 109v148q0 49 -31 49t-31 -49v-148q0 -49 31 -49t31 49z" />
    <glyph glyph-name="ampersand" unicode="&#x26;" horiz-adv-x="497" 
d="M473 17q0 -26 -21 -26q-25 0 -66.5 28.5t-46.5 28.5q-3 0 -47.5 -28t-93.5 -28q-70 0 -116.5 51.5t-46.5 122.5q0 64 38 129l28 40q22 32 22 37q0 11 -9 34l-14 34q-17 48 -17 104q0 72 38 122q41 55 111 55q60 0 98 -44q35 -41 35 -103q0 -47 -28 -97q-15 -28 -51 -73
q-28 -35 -28 -45q0 -28 29 -79t43 -51q15 0 27 70q5 29 28 26l53 -6q17 -2 17 -22q0 -53 -39 -129q-9 -18 -9 -27q0 -17 24 -30q31 -16 35 -21q7 -9 7 -28v-45zM265 574q0 56 -42 56q-47 0 -47 -72q0 -33 17 -76q4 -11 16 -11q9 0 17 10q39 53 39 93zM264 131q0 11 -14 29
q-36 46 -57 87q-7 14 -14 14q-15 0 -26 -33q-10 -27 -10 -47q0 -30 17 -56q18 -29 47 -29q19 0 36 8q21 10 21 27z" />
    <glyph glyph-name="quotesingle" unicode="'" horiz-adv-x="176" 
d="M149 784l-22 -212q-1 -10 -12 -18.5t-21 -8.5h-15q-11 0 -21.5 8t-11.5 19l-21 213q-1 11 6.5 19.5t18.5 8.5h73q12 0 19.5 -9t6.5 -20z" />
    <glyph glyph-name="parenleft" unicode="(" horiz-adv-x="275" 
d="M243 706q0 -9 -9 -26q-102 -186 -102 -360q0 -147 70 -296q2 -5 34 -66q7 -13 7 -24q0 -9 -20 -25.5t-31 -16.5q-13 0 -28 22q-131 192 -131 406q0 213 133 408q14 20 26 20t34 -16q17 -13 17 -26z" />
    <glyph glyph-name="parenright" unicode=")" horiz-adv-x="285" 
d="M248 320q0 -211 -132 -406q-15 -22 -27 -22t-32 16t-20 25q0 11 8 25q12 22 34 66q69 148 69 296q0 173 -102 360q-9 16 -9 25q0 14 18 27q22 16 34 16q11 0 25 -20q134 -197 134 -408z" />
    <glyph glyph-name="asterisk" unicode="*" horiz-adv-x="304" 
d="M270 619q3 -9 -2 -21t-14 -15l-18 -6q-10 -3 -10 -8q0 -4 7 -12l6 -7q7 -8 6 -21q-1 -12 -9 -19l-21 -18q-7 -6 -20 -5q-14 0 -20 8l-11 14q-6 8 -12 8t-13 -9l-9 -11q-6 -8 -19 -9q-13 -2 -21 5l-21 18q-7 6 -9 18q-2 13 4 19l8 8q14 14 -3 21l-16 6q-19 7 -19 29
q0 4 1 7l10 26q7 18 29 18q4 0 7 -1l18 -6q14 -5 14 9v20q0 10 8.5 19t18.5 9h29q10 0 19 -8.5t9 -18.5v-21q0 -13 14 -8l13 5q4 1 8 1q23 0 29 -17z" />
    <glyph glyph-name="plus" unicode="+" horiz-adv-x="573" 
d="M547 374q0 -9 -9 -18.5t-19 -9.5h-147q-28 0 -28 -29v-146q0 -10 -9.5 -19t-18.5 -9h-56q-9 0 -18.5 9t-9.5 19v146q0 29 -29 29h-146q-9 0 -18.5 10t-9.5 19v55q0 10 9 19t19 9h146q29 0 29 27v148q0 9 10 18.5t19 9.5h55q10 0 19 -9t9 -19v-148q0 -27 28 -27h146
q10 0 19.5 -9t9.5 -19v-56z" />
    <glyph glyph-name="comma" unicode="," horiz-adv-x="204" 
d="M154 30q0 -29 -19 -74l-37 -88q-6 -14 -21 -14h-12q-13 0 -9 14l37 119q4 13 -15 13q-10 0 -19 9.5t-9 20.5v55q0 29 29 29h46q10 0 19.5 -9t9.5 -19v-56z" />
    <glyph glyph-name="hyphen" unicode="-" horiz-adv-x="376" 
d="M306 282q0 -10 -8.5 -19t-18.5 -9h-182q-9 0 -18 9.5t-9 19.5v44q0 10 8.5 18.5t18.5 8.5h181q10 0 19 -8.5t9 -18.5v-45z" />
    <glyph glyph-name="hyphen" unicode="&#x2010;" horiz-adv-x="376" 
d="M306 282q0 -10 -8.5 -19t-18.5 -9h-182q-9 0 -18 9.5t-9 19.5v44q0 10 8.5 18.5t18.5 8.5h181q10 0 19 -8.5t9 -18.5v-45z" />
    <glyph glyph-name="period" unicode="." horiz-adv-x="204" 
d="M154 29q0 -11 -9 -20t-20 -9h-47q-10 0 -19 9.5t-9 19.5v56q0 10 9 19.5t19 9.5h47q10 0 19.5 -9t9.5 -19v-57z" />
    <glyph glyph-name="slash" unicode="/" horiz-adv-x="455" 
d="M458 753l-341 -720q-16 -33 -45 -33h-39q-17 0 -17 16q0 8 4 17l341 720q15 31 43 31h41q13 0 16 -11q2 -10 -3 -20z" />
    <glyph glyph-name="zero" unicode="0" horiz-adv-x="433" 
d="M396 227q0 -115 -37 -169q-47 -69 -143 -69t-141 69q-38 58 -38 169v260q0 115 38 170q47 68 141 68q99 0 143 -68q37 -57 37 -170v-260zM292 205v305q0 66 -16.5 92t-59.5 26q-42 0 -58.5 -26.5t-16.5 -91.5v-305q0 -66 16.5 -92t58.5 -26q43 0 59.5 26t16.5 92z" />
    <glyph glyph-name="one" unicode="1" horiz-adv-x="323" 
d="M233 31q0 -31 -29 -31h-47q-27 0 -27 31v489q0 32 -31 32h-44q-29 0 -29 34q0 31 29 45q46 23 84 56t62 33q32 0 32 -33v-656z" />
    <glyph glyph-name="two" unicode="2" horiz-adv-x="433" 
d="M397 535q0 -65 -27 -127.5t-95 -151.5l-97 -128q-8 -11 -8 -19q0 -12 19 -12h166q28 0 28 -33v-33q0 -12 -8.5 -21.5t-20.5 -9.5h-290q-28 0 -28 30v33q0 33 29 73q49 66 97 132q57 77 86 126q42 70 42 142q0 92 -70 92q-71 0 -75 -89q-2 -33 -29 -33h-45q-30 0 -30 32
q0 84 48.5 135.5t133.5 51.5q81 0 127.5 -50.5t46.5 -139.5z" />
    <glyph glyph-name="three" unicode="3" horiz-adv-x="433" 
d="M398 209q0 -106 -47.5 -163t-135.5 -57q-89 0 -137 58q-42 49 -42 123q0 33 28 33h50q28 0 30 -32q6 -84 72 -84q75 0 75 121q0 56 -17 82.5t-57 32.5q-28 4 -28 33v35q0 32 28 36q37 6 51.5 28t14.5 71q0 102 -66 102q-57 0 -67 -64q-5 -32 -29 -32h-46q-29 0 -29 31
q0 60 43 108q50 54 131 54q80 0 123 -51.5t43 -145.5q0 -105 -57 -137q-9 -5 -9 -13q0 -7 9 -11q38 -17 53.5 -53.5t15.5 -104.5z" />
    <glyph glyph-name="four" unicode="4" horiz-adv-x="468" 
d="M440 211q0 -30 -29 -30h-23q-28 0 -28 -31v-119q0 -31 -28 -31h-46q-31 0 -31 31v117q0 33 -29 33h-163q-28 0 -28 31v49q0 30 26 84l3 5l166 331q17 33 45 33h56q28 0 28 -33v-371q0 -32 30 -32h22q29 0 29 -32v-35zM255 310v197q0 12 -5 12t-11 -12l-94 -198
q-3 -6 -3 -12q0 -19 18 -19h66q29 0 29 32z" />
    <glyph glyph-name="five" unicode="5" horiz-adv-x="433" 
d="M391 265q0 -78 -4 -108q-7 -61 -34 -101q-45 -67 -141 -67q-84 0 -129 54q-41 48 -41 126q0 32 32 32h36q34 0 36 -33q4 -81 65 -81q44 0 58.5 32.5t14.5 131.5q0 91 -16 126t-57 35q-24 0 -46 -24t-23 -25q-12 -9 -33 -9h-34q-11 0 -20.5 10t-9.5 21v297q0 32 30 32h256
q30 0 30 -32v-34q0 -12 -9 -21.5t-21 -9.5h-163q-28 0 -28 -31v-101q0 -18 8 -18q4 0 19 10q36 23 80 23q86 0 122 -78q22 -49 22 -157z" />
    <glyph glyph-name="six" unicode="6" horiz-adv-x="433" 
d="M395 230q0 -241 -179 -241q-178 0 -178 251v255q0 113 43 168q49 62 135 62q81 0 128 -53q41 -47 41 -113q0 -11 -8.5 -20.5t-19.5 -9.5h-46q-25 0 -29 30q-8 69 -66 69q-43 0 -58.5 -32t-15.5 -121v-55q0 -14 8 -14q6 0 22 13q31 24 78 24q145 0 145 -213zM287 218
q0 69 -15.5 98t-54.5 29q-36 0 -55.5 -22.5t-19.5 -55.5v-64q0 -116 73 -116q39 0 55.5 30.5t16.5 100.5z" />
    <glyph glyph-name="seven" unicode="7" horiz-adv-x="388" 
d="M357 659q0 -18 -9 -54l-143 -574q-8 -31 -36 -31h-51q-23 0 -23 21q0 5 2 11l142 554q1 5 1 9q0 22 -21 22h-176q-28 0 -28 31v34q0 32 27 32h286q29 0 29 -32v-23z" />
    <glyph glyph-name="eight" unicode="8" horiz-adv-x="433" 
d="M398 205q0 -216 -181 -216t-181 212q0 122 60 162q14 9 14 14t-14 15q-52 38 -52 141q0 192 173 192q171 0 171 -192q0 -102 -50 -140q-16 -12 -16 -16t16 -15q60 -41 60 -157zM285 526q0 102 -68 102q-69 0 -69 -102q0 -101 69 -101q68 0 68 101zM291 205q0 118 -74 118
t-74 -118t74 -118t74 118z" />
    <glyph glyph-name="nine" unicode="9" horiz-adv-x="433" 
d="M395 220q0 -113 -43 -168q-49 -63 -135 -63q-84 0 -130 57q-39 47 -39 110q0 11 8.5 20.5t19.5 9.5h46q26 0 29 -30q7 -69 66 -69q43 0 58.5 31.5t15.5 120.5v56q0 14 -7 14q-6 0 -23 -14q-31 -24 -78 -24q-145 0 -145 214q0 240 179 240q178 0 178 -251v-254zM291 448
v64q0 116 -72 116q-73 0 -73 -131q0 -69 16 -98.5t54 -29.5q36 0 55.5 22.5t19.5 56.5z" />
    <glyph glyph-name="colon" unicode=":" horiz-adv-x="243" 
d="M173 447q0 -10 -9.5 -20t-19.5 -10h-46q-9 0 -18.5 9.5t-9.5 19.5v57q0 10 9 19t19 9h46q10 0 19.5 -9.5t9.5 -18.5v-56zM173 82q0 -10 -9.5 -19.5t-19.5 -9.5h-46q-10 0 -19 9t-9 19v57q0 10 9.5 19.5t18.5 9.5h46q9 0 19 -10t10 -19v-56z" />
    <glyph glyph-name="semicolon" unicode=";" horiz-adv-x="244" 
d="M173 447q0 -10 -9.5 -20t-19.5 -10h-46q-9 0 -18.5 9.5t-9.5 19.5v57q0 10 9 19t19 9h46q10 0 19.5 -9t9.5 -19v-56zM174 82q0 -26 -20 -74l-37 -88q-6 -14 -20 -14h-13q-13 0 -9 13l37 116q6 18 -14 18q-11 0 -19.5 9t-8.5 20v55q0 29 29 29h46q11 0 20 -9t9 -19v-56z
" />
    <glyph glyph-name="less" unicode="&#x3c;" horiz-adv-x="578" 
d="M548 163q0 -23 -18 -23q-5 0 -11 2l-461 185q-30 12 -30 36v49q0 25 29 38l463 212q6 3 11 3q17 0 17 -26v-49q0 -25 -29 -38l-348 -154q-15 -7 -1 -12l348 -136q30 -12 30 -38v-49z" />
    <glyph glyph-name="equal" unicode="=" horiz-adv-x="571" 
d="M548 465q0 -9 -9 -18.5t-19 -9.5h-464q-9 0 -18.5 10t-9.5 19v43q0 10 9 19t19 9h463q10 0 19.5 -9t9.5 -19v-44zM548 296q0 -9 -9 -18.5t-19 -9.5h-464q-9 0 -18.5 10t-9.5 19v44q0 10 9 19t19 9h463q10 0 19.5 -9t9.5 -19v-45z" />
    <glyph glyph-name="greater" unicode="&#x3e;" horiz-adv-x="574" 
d="M548 363q0 -24 -30 -36l-461 -185q-6 -2 -11 -2q-18 0 -18 23v49q0 25 30 37l346 136q16 6 0 13l-347 154q-29 13 -29 38v49q0 26 17 26q5 0 11 -3l463 -212q29 -13 29 -38v-49z" />
    <glyph glyph-name="question" unicode="?" horiz-adv-x="386" 
d="M353 583q0 -50 -54 -131q-43 -64 -54.5 -100t-11.5 -107q0 -28 -30 -28h-34q-28 0 -28 30q0 79 13.5 127.5t59.5 129.5q29 52 29 80q0 47 -46 47q-38 0 -62 -52q-13 -28 -27 -28q-5 0 -15 3l-43 12q-20 6 -20 21q0 8 5 21q47 114 166 114q68 0 110 -38t42 -101zM241 29
q0 -10 -9.5 -19.5t-19.5 -9.5h-46q-10 0 -19.5 9.5t-9.5 19.5v56q0 10 9.5 19.5t19.5 9.5h46q10 0 19.5 -9t9.5 -19v-57z" />
    <glyph glyph-name="at" unicode="@" horiz-adv-x="798" 
d="M767 422q0 -102 -68 -187q-73 -91 -173 -91q-22 0 -37 9q-9 5 -14 19q-3 11 -9 11q-7 0 -26 -13q-34 -22 -74 -22q-68 0 -112 49t-44 125q0 95 58.5 160.5t141.5 65.5q62 0 100 -42q9 -10 14 -10t8 10q9 29 33 29h32q29 0 24 -29l-46 -270q-3 -19 14 -19q39 0 77.5 63.5
t38.5 123.5q0 112 -77.5 184t-198.5 72q-128 0 -215.5 -87.5t-87.5 -217.5q0 -128 87 -215t217 -87q103 0 176 60q35 29 61 29h30q13 0 13 -10q0 -9 -8 -19q-104 -126 -282 -126q-166 0 -273.5 103t-107.5 263t109.5 266.5t274.5 106.5q151 0 247.5 -85.5t96.5 -218.5z
M501 358q0 41 -21 64.5t-57 23.5q-42 0 -72 -34t-30 -83q0 -39 22.5 -63t58.5 -24q43 0 71 33t28 83z" />
    <glyph glyph-name="A" unicode="A" horiz-adv-x="453" 
d="M438 29q5 -29 -25 -29h-53q-28 0 -34 29l-20 97q-7 30 -35 30h-95q-11 0 -21 -9.5t-12 -20.5l-19 -98q-6 -28 -34 -28h-52q-28 0 -22 29l127 658q5 27 33 27h95q29 0 35 -29zM277 285l-48 261q-2 6 -6 6t-5 -7l-47 -262q-5 -26 25 -26h57q29 0 24 28z" />
    <glyph glyph-name="B" unicode="B" horiz-adv-x="492" 
d="M452 202q0 -95 -56.5 -148.5t-156.5 -53.5h-150q-11 0 -20 9t-9 20v656q0 12 9 20.5t20 8.5h137q100 0 154 -47t54 -133q0 -110 -88 -149q-10 -4 -10 -11q0 -5 10 -9q106 -37 106 -163zM322 523q0 89 -108 89h-15q-28 0 -28 -31v-130q0 -11 8.5 -19.5t19.5 -8.5h13
q50 0 80 27.5t30 72.5zM337 202q0 55 -34 87.5t-91 32.5h-13q-28 0 -28 -29v-162q0 -29 28 -29h28q110 0 110 100z" />
    <glyph glyph-name="C" unicode="C" horiz-adv-x="480" 
d="M440 222q0 -233 -196 -233q-112 0 -159 80q-24 40 -31 93q-4 31 -4 99v199q0 75 4 103q8 57 37 95q52 67 152 67q91 0 143 -57.5t52 -158.5q0 -11 -9.5 -19.5t-20.5 -8.5h-51q-28 0 -29 28q-5 113 -86 113q-45 0 -63 -31.5t-18 -108.5v-236q0 -86 18 -120t64 -34
q84 0 87 131q1 28 29 28h51q30 0 30 -29z" />
    <glyph glyph-name="D" unicode="D" horiz-adv-x="491" 
d="M441 224q0 -224 -207 -224h-148q-26 0 -26 29v656q0 10 8 19.5t18 9.5h148q207 0 207 -223v-267zM330 253v207q0 84 -23.5 118t-81.5 34h-28q-27 0 -27 -27v-460q0 -23 24 -23h31q58 0 81.5 34t23.5 117z" />
    <glyph glyph-name="E" unicode="E" horiz-adv-x="414" 
d="M384 72v-44q0 -28 -29 -28h-266q-29 0 -29 28v657q0 10 9.5 19.5t19.5 9.5h266q28 0 28 -29v-45q0 -28 -27 -28h-157q-29 0 -29 -33v-126q0 -28 29 -28h133q28 0 28 -29v-45q0 -11 -8.5 -19.5t-19.5 -8.5h-134q-27 0 -27 -30v-162q0 -29 27 -29h157q11 0 20 -9.5t9 -20.5
z" />
    <glyph glyph-name="F" unicode="F" horiz-adv-x="396" 
d="M386 640q0 -11 -9 -19.5t-20 -8.5h-159q-11 0 -19 -9.5t-8 -20.5v-129q0 -10 8.5 -19t18.5 -9h136q11 0 20 -10t9 -21v-43q0 -9 -10 -18.5t-19 -9.5h-136q-11 0 -19.5 -9t-8.5 -20v-265q0 -10 -9.5 -19.5t-19.5 -9.5h-53q-9 0 -18.5 10t-9.5 19v656q0 29 28 29h269
q29 0 29 -29v-45z" />
    <glyph glyph-name="G" unicode="G" horiz-adv-x="500" 
d="M440 28q0 -28 -30 -28h-54q-15 0 -22 9.5t-8 9.5q-2 0 -13 -7q-35 -23 -84 -23q-125 0 -164 122q-15 48 -15 153v196q0 75 4 103q8 58 36 95q52 67 152 67q95 0 146 -62q48 -58 48 -154q0 -28 -28 -28h-54q-27 0 -28 29q-5 112 -85 112q-45 0 -63 -31.5t-18 -109.5v-217
q0 -96 19.5 -134t67.5 -38q81 0 81 138q0 34 -29 34h-33q-28 0 -28 29v32q0 30 28 30h144q11 0 20.5 -8.5t9.5 -20.5v-298z" />
    <glyph glyph-name="H" unicode="H" horiz-adv-x="498" 
d="M438 28q0 -9 -10 -18.5t-19 -9.5h-54q-10 0 -19 9t-9 19v256q0 11 -9 20.5t-20 9.5h-100q-11 0 -19.5 -9.5t-8.5 -21.5v-255q0 -9 -9.5 -18.5t-19.5 -9.5h-53q-10 0 -19 9t-9 19v657q0 11 8.5 20t19.5 9h53q10 0 19.5 -9.5t9.5 -19.5v-239q0 -10 9 -19.5t19 -9.5h100
q9 0 19 10t10 19v239q0 10 9 19.5t19 9.5h55q9 0 18.5 -9t9.5 -19v-658z" />
    <glyph glyph-name="I" unicode="I" horiz-adv-x="251" 
d="M181 27q0 -10 -9.5 -18.5t-19.5 -8.5h-54q-10 0 -19 8t-9 19v659q0 28 28 28h55q10 0 19 -8.5t9 -18.5v-660z" />
    <glyph glyph-name="J" unicode="J" horiz-adv-x="371" 
d="M311 161q0 -99 -32 -133q-35 -38 -132 -38q-65 0 -99 40q-28 34 -28 128q0 30 28 30h52q29 0 29 -30v-42q0 -39 35 -39q26 0 34 19q5 11 5 42v547q0 29 28 29h51q29 0 29 -30v-523z" />
    <glyph glyph-name="K" unicode="K" horiz-adv-x="472" 
d="M460 29q2 -5 2 -11q0 -18 -19 -18h-64q-29 0 -39 29l-100 279q-4 10 -21 10q-15 0 -31 -30q-18 -34 -18 -82v-178q0 -28 -29 -28h-53q-28 0 -28 28v658q0 28 28 28h53q29 0 29 -29v-239q0 -8 6 -8q5 1 9 8l129 239q16 29 45 29h61q16 0 16 -15q0 -7 -4 -14l-117 -202
q-17 -30 -7 -56z" />
    <glyph glyph-name="L" unicode="L" horiz-adv-x="400" 
d="M390 28q0 -28 -28 -28h-274q-28 0 -28 28v657q0 29 28 29h53q30 0 30 -29v-554q0 -29 27 -29h164q28 0 28 -29v-45z" />
    <glyph glyph-name="M" unicode="M" horiz-adv-x="640" 
d="M580 28q0 -12 -9.5 -20t-20.5 -8h-47q-28 0 -28 29v459q0 7 -3 7q-2 0 -4 -7l-108 -459q-7 -29 -35 -29h-10q-30 0 -36 28l-107 461q-2 7 -4 7q-3 0 -3 -7v-460q0 -12 -9 -20.5t-20 -8.5h-48q-11 0 -19.5 9t-8.5 20v657q0 28 28 28h105q28 0 35 -29l86 -369q2 -7 6 -7
t6 7l87 369q7 29 36 29h101q30 0 30 -29v-657z" />
    <glyph glyph-name="N" unicode="N" horiz-adv-x="521" 
d="M461 28q0 -11 -9 -19.5t-20 -8.5h-54q-28 0 -40 29l-155 372q-4 10 -8 10t-4 -10v-372q0 -29 -29 -29h-54q-28 0 -28 28v657q0 29 28 29h54q28 0 40 -28l156 -373q4 -10 8 -10t4 10v372q0 29 28 29h54q29 0 29 -28v-658z" />
    <glyph glyph-name="O" unicode="O" horiz-adv-x="491" 
d="M441 227q0 -115 -41 -169q-52 -69 -155 -69q-106 0 -154 69q-41 59 -41 169v259q0 114 41 170q50 68 154 68q108 0 155 -68q41 -59 41 -170v-259zM329 228v256q0 76 -18.5 106.5t-65.5 30.5t-65.5 -30t-18.5 -107v-256q0 -76 18 -106t66 -30q47 0 65.5 30t18.5 106z" />
    <glyph glyph-name="P" unicode="P" horiz-adv-x="484" 
d="M450 505q0 -112 -50 -164t-157 -52h-45q-28 0 -28 -30v-231q0 -28 -30 -28h-53q-27 0 -27 27v658q0 11 8.5 20t19.5 9h155q103 0 150 -46q57 -56 57 -163zM335 498q0 66 -24.5 90t-92.5 24h-20q-28 0 -28 -29v-164q0 -28 28 -28h20q66 0 91.5 23.5t25.5 83.5z" />
    <glyph glyph-name="Q" unicode="Q" horiz-adv-x="491" 
d="M475 24q0 -13 -8 -21l-39 -39q-8 -8 -19 -8q-12 0 -20 8l-36 36q-7 7 -13 7l-29 -9t-66 -9q-106 0 -154 69q-41 59 -41 169v259q0 114 41 170q50 68 154 68q107 0 154 -68q41 -59 41 -170v-259q0 -54 -8.5 -92t-8.5 -37q0 -10 9 -19l36 -36q7 -7 7 -19zM328 198v286
q0 77 -18 107t-65 30t-66 -30.5t-19 -106.5v-256q0 -76 19 -106t66 -30q7 0 7 6q0 2 -5.5 9t-5.5 18q0 12 7 19l40 39q8 8 19 8q4 0 8.5 -1t6.5 -1q6 0 6 9z" />
    <glyph glyph-name="R" unicode="R" horiz-adv-x="474" 
d="M438 29q1 -4 1 -8q0 -21 -20 -21h-59q-29 0 -38 29l-76 235q-9 28 -37 28h-10q-29 0 -29 -28v-236q0 -28 -28 -28h-55q-27 0 -27 28v657q0 11 8.5 20t19.5 9h146q204 0 204 -204q0 -121 -73 -173q-23 -16 -16 -36zM324 504q0 60 -25 84t-88 24h-12q-12 0 -20.5 -8.5
t-8.5 -20.5v-160q0 -29 29 -29h12q63 0 88 24.5t25 85.5z" />
    <glyph glyph-name="S" unicode="S" horiz-adv-x="459" 
d="M434 170q0 -81 -54 -131t-142 -50q-115 0 -174 81q-39 53 -39 100q0 20 26 28l40 12q13 4 20 4q16 0 22 -23q25 -99 105 -99q36 0 58.5 22.5t22.5 58.5q0 34 -21.5 62.5t-83.5 77.5l-72 57q-100 79 -100 179q0 78 52.5 126.5t134.5 48.5q95 0 153 -72q41 -52 41 -88
q0 -19 -22 -26l-50 -15q-7 -2 -12 -2q-16 0 -24 22q-27 78 -87 78q-30 0 -50.5 -20.5t-20.5 -51.5q0 -54 74 -113l49 -39q84 -67 107 -94q47 -57 47 -133z" />
    <glyph glyph-name="T" unicode="T" horiz-adv-x="407" 
d="M397 631q0 -28 -28 -28h-81q-29 0 -29 -29v-546q0 -11 -9 -19.5t-20 -8.5h-54q-11 0 -19.5 8.5t-8.5 19.5v547q0 10 -9.5 19t-19.5 9h-81q-11 0 -19.5 9t-8.5 20v54q0 11 8.5 19.5t19.5 8.5h331q28 0 28 -28v-55z" />
    <glyph glyph-name="U" unicode="U" horiz-adv-x="487" 
d="M432 230q0 -126 -41 -178q-51 -65 -147 -63q-104 2 -151 67q-38 55 -38 173v456q0 29 28 29h53q29 0 29 -29v-473q0 -64 18.5 -92t60.5 -28t60 27.5t18 92.5v473q0 29 29 29h52q29 0 29 -30v-454z" />
    <glyph glyph-name="V" unicode="V" horiz-adv-x="448" 
d="M432 685l-128 -657q-5 -28 -34 -28h-79q-29 0 -35 29l-141 656q-6 29 21 29h57q30 0 36 -29l96 -487q1 -7 5 -6q4 0 5 7l85 486q5 29 33 29h55q30 0 24 -29z" />
    <glyph glyph-name="W" unicode="W" horiz-adv-x="661" 
d="M645 684l-111 -656q-4 -28 -32 -28h-47q-28 0 -34 28l-82 420q-2 11 -5 11q-4 0 -6 -11l-75 -420q-5 -28 -35 -28h-45q-27 0 -33 28l-125 658q-2 10 5 19t17 9h51q29 0 34 -29l72 -404q2 -9 5 -9q4 0 5 10l75 403q2 10 12.5 19.5t20.5 9.5h41q11 0 21.5 -9t12.5 -20
l81 -403q2 -9 6 -9t5 9l63 403q5 29 35 29h44q29 0 24 -30z" />
    <glyph glyph-name="X" unicode="X" horiz-adv-x="473" 
d="M449 28q4 -8 4 -14q0 -14 -19 -14h-65q-29 0 -41 28l-85 202q-6 15 -11 15t-12 -16l-79 -201q-11 -28 -42 -28h-61q-18 0 -18 17q0 5 2 11l133 314q13 30 0 58l-127 285q-2 6 -2 12q0 17 17 17h65q30 0 41 -28l72 -175q6 -13 12 -13t10 13l67 174q12 29 40 29h63
q20 0 20 -18q0 -5 -3 -10l-122 -286q-7 -18 -7 -28q0 -11 8 -30z" />
    <glyph glyph-name="Y" unicode="Y" horiz-adv-x="450" 
d="M432 685l-144 -379q-10 -26 -10 -57v-220q0 -11 -8.5 -20t-20.5 -9h-53q-29 0 -29 28v221q0 30 -10 57l-140 378q-2 6 -2 12q0 18 20 18h66q28 0 36 -28l78 -246q5 -13 10 -13t9 14l80 245q10 28 37 28h63q21 0 21 -17q0 -5 -3 -12z" />
    <glyph glyph-name="Z" unicode="Z" horiz-adv-x="424" 
d="M399 72v-44q0 -28 -28 -28h-318q-28 0 -28 28v43q0 33 13 59l223 454q3 6 3 12q0 16 -18 16h-168q-10 0 -19.5 8t-9.5 18v47q0 29 29 29h289q29 0 29 -29v-46q0 -27 -14 -56l-221 -453q-3 -6 -3 -12q0 -16 19 -16h194q28 0 28 -30z" />
    <glyph glyph-name="bracketleft" unicode="[" horiz-adv-x="376" 
d="M281 688q0 -28 -30 -28h-21q-28 0 -28 -29v-575q0 -18 6 -23t22 -5h21q30 0 30 -29v-34q0 -28 -30 -28h-128q-28 0 -28 28v757q0 29 28 29h127q31 0 31 -31v-32z" />
    <glyph glyph-name="backslash" unicode="\" horiz-adv-x="445" 
d="M431 33q4 -9 4 -17q0 -16 -17 -16h-39q-30 0 -45 33l-341 720q-5 10 -3 20q3 11 16 11h41q28 0 43 -31z" />
    <glyph glyph-name="bracketright" unicode="]" horiz-adv-x="376" 
d="M281 -35q0 -28 -28 -28h-128q-30 0 -30 28v34q0 29 30 29h21q17 0 22.5 5t5.5 23v575q0 29 -28 29h-21q-30 0 -30 28v32q0 31 31 31h127q28 0 28 -29v-757z" />
    <glyph glyph-name="asciicircum" unicode="^" horiz-adv-x="540" 
d="M530 422q5 -7 5 -12q0 -16 -28 -16h-49q-15 0 -38 29l-157 195q-4 5 -7 0l-139 -194q-22 -30 -37 -30h-49q-26 0 -26 16q0 6 5 13l185 260q14 21 15 21q8 9 21 9h49q14 0 38 -29z" />
    <glyph glyph-name="underscore" unicode="_" horiz-adv-x="376" 
d="M456 -117q0 -10 -9 -19.5t-19 -9.5h-480q-9 0 -18.5 10t-9.5 20v54q0 10 9 19t19 9h479q10 0 19.5 -9t9.5 -19v-55z" />
    <glyph glyph-name="grave" unicode="`" horiz-adv-x="226" 
d="M175 751q1 -3 1 -6q0 -18 -19 -18h-25q-20 0 -40 24l-39 46q-3 3 -3 7q0 17 20 17h42q8 0 22 -7.5t18 -15.5z" />
    <glyph glyph-name="a" unicode="a" horiz-adv-x="394" 
d="M354 25q0 -10 -9.5 -17.5t-19.5 -7.5h-45q-26 0 -26 29q0 15 -11 15q-5 0 -9 -5q-8 -9 -10 -10q-42 -35 -91 -35q-51 0 -79.5 33t-28.5 92q0 68 47 106q36 29 152 77q30 12 30 36q0 33 -10.5 45t-41.5 12q-44 0 -54 -28.5t-34 -28.5h-48q-25 0 -25 23q0 34 30 69
q47 55 144 55q73 0 109 -37q21 -22 27 -49q3 -16 3 -56v-318zM254 187v12q0 16 -18 8q-76 -33 -85 -38q-29 -18 -29 -46t21 -28q15 0 42 14q69 36 69 78z" />
    <glyph glyph-name="b" unicode="b" horiz-adv-x="404" 
d="M364 182q0 -86 -14 -123q-23 -65 -93 -65q-46 0 -89 30q-2 2 -8.5 8t-10.5 6q-10 0 -10 -10t-9 -19t-19 -9h-42q-10 0 -19.5 9t-9.5 19v656q0 30 28 30h43q28 0 28 -31v-223q0 -20 7 -20q3 0 22 13q47 32 89 32q69 0 93 -65q14 -38 14 -123v-115zM265 175v127
q0 74 -56 74q-26 0 -48 -27t-22 -69v-79q0 -51 24 -77q19 -20 46 -20q56 0 56 71z" />
    <glyph glyph-name="c" unicode="c" horiz-adv-x="401" 
d="M371 141q0 -71 -37 -108q-43 -43 -127 -43q-94 0 -134 50q-33 41 -33 130v138q0 90 33 130q41 50 133 50q85 0 128 -42q37 -36 37 -104q0 -10 -9.5 -20t-19.5 -10h-42q-27 0 -29 31t-17 41.5t-47 10.5q-38 0 -52.5 -21t-14.5 -77v-115q0 -55 14.5 -77.5t51.5 -22.5
q33 0 48 12.5t17 46.5q2 29 30 29h41q11 0 20 -9t9 -20z" />
    <glyph glyph-name="d" unicode="d" horiz-adv-x="405" 
d="M365 28q0 -28 -29 -28h-42q-25 0 -28 27q-1 11 -9 11l-20 -14q-43 -30 -89 -30q-61 0 -86 48q-22 43 -22 140v115q0 95 22 139q24 49 86 49q42 0 89 -32q18 -12 21 -12q7 0 7 19v223q0 31 29 31h43q11 0 19.5 -9.5t8.5 -20.5v-656zM265 280q0 42 -21.5 69t-47.5 27
q-56 0 -56 -74v-127q0 -71 56 -71q27 0 45 20q24 26 24 77v79z" />
    <glyph glyph-name="e" unicode="e" horiz-adv-x="411" 
d="M371 134q0 -66 -37 -102q-44 -42 -127 -42q-94 0 -134 50q-33 41 -33 130v143q0 50 6 74q9 38 36 62q44 39 122 39q82 0 124 -43t42 -141v-51q0 -28 -28 -28h-174q-10 0 -18.5 -8t-8.5 -18v-19q0 -51 14.5 -73t49.5 -22q59 0 65 48q4 32 30 32h43q28 0 28 -31zM269 341
q-1 61 -64 61q-65 0 -65 -61q0 -26 28 -26h72q29 0 29 26z" />
    <glyph glyph-name="f" unicode="f" horiz-adv-x="292" 
d="M282 652q0 -28 -28 -28h-16q-29 0 -37.5 -12t-8.5 -44v-61q0 -28 28 -28h25q29 0 29 -27v-34q0 -10 -9.5 -19t-19.5 -9h-24q-29 0 -29 -30v-332q0 -28 -27 -28h-45q-28 0 -28 27v333q0 30 -28 30h-15q-29 0 -29 29v32q0 28 29 28h15q11 0 19.5 9.5t8.5 20.5v80
q0 125 129 125h32q29 0 29 -29v-33z" />
    <glyph glyph-name="g" unicode="g" horiz-adv-x="437" 
d="M427 426q0 -27 -29 -27h-13q-28 0 -28 -30q0 -2 3 -20t3 -46q0 -185 -160 -185q-5 0 -13.5 1t-13.5 1q-35 0 -35 -26q0 -16 15.5 -20.5t87.5 -7.5q89 -4 126 -26q50 -30 50 -91q0 -119 -212 -119q-183 0 -183 87q0 40 45 63q21 11 21 15q0 5 -16 14q-30 16 -30 48
q0 41 46 62q20 9 20 18q0 5 -6 10q-66 56 -66 155q0 183 164 183q67 0 105 -34q14 -12 23 -12q10 0 15 11l4 8q13 27 37 27h11q29 0 29 -27v-32zM262 328q0 78 -61 78q-60 0 -60 -78v-53q0 -78 60 -78q61 0 61 78v53zM326 -53q0 36 -132 36q-68 0 -68 -38q0 -40 98 -40
q102 0 102 42z" />
    <glyph glyph-name="h" unicode="h" horiz-adv-x="399" 
d="M359 29q0 -10 -9.5 -19.5t-19.5 -9.5h-43q-28 0 -28 28v298q0 32 -8 44t-30 12q-31 0 -56.5 -24t-25.5 -52v-277q0 -29 -28 -29h-43q-28 0 -28 29v656q0 29 29 29h42q28 0 28 -28v-254q0 -15 15 -1q57 54 117 54q88 0 88 -111v-345z" />
    <glyph glyph-name="i" unicode="i" horiz-adv-x="210" 
d="M155 558q0 -10 -9.5 -20t-19.5 -10h-43q-12 0 -20 9t-8 21v45q0 29 29 29h42q29 0 29 -28v-46zM155 29q0 -10 -9.5 -19.5t-19.5 -9.5h-43q-28 0 -28 29v422q0 28 29 28h42q29 0 29 -28v-422z" />
    <glyph glyph-name="j" unicode="j" horiz-adv-x="240" 
d="M180 558q0 -10 -9.5 -20t-19.5 -10h-43q-12 0 -20 9t-8 21v45q0 29 29 29h42q29 0 29 -28v-46zM179 -34q0 -68 -26.5 -93t-97.5 -25h-37q-28 0 -28 28v33q0 10 8.5 19t18.5 9h17q29 0 37.5 12t8.5 44v457q0 29 27 29h44q28 0 28 -28v-485z" />
    <glyph glyph-name="k" unicode="k" horiz-adv-x="386" 
d="M374 28q2 -7 2 -12q0 -16 -29 -16h-46q-29 0 -38 28l-56 167q-4 13 -13 13q-8 0 -17 -13l-17 -25q-20 -29 -20 -60v-81q0 -29 -29 -29h-42q-29 0 -29 29v655q0 30 29 30h42q29 0 29 -29v-370q0 -11 5 -11t12 11l85 136q17 28 46 28h58q14 0 14 -13q0 -8 -5 -15l-70 -103
q-14 -20 -14 -31q0 -9 6 -24z" />
    <glyph glyph-name="l" unicode="l" horiz-adv-x="209" 
d="M154 29q0 -29 -28 -29h-43q-28 0 -28 29v656q0 29 29 29h42q28 0 28 -28v-657z" />
    <glyph glyph-name="m" unicode="m" horiz-adv-x="619" 
d="M579 29q0 -29 -29 -29h-43q-28 0 -28 29v297q0 32 -8 44t-30 12q-36 0 -68 -32q-14 -14 -14 -29v-293q0 -28 -30 -28h-42q-10 0 -18.5 9t-8.5 19v298q0 56 -39 56q-34 0 -68 -33q-13 -13 -13 -28v-293q0 -9 -9.5 -18.5t-19.5 -9.5h-44q-10 0 -18.5 9t-8.5 20v423
q0 27 27 27h44q29 0 29 -27v-20q0 -15 15 -1q58 54 116 54q63 0 81 -55q3 -8 9 -8l11 10q57 53 119 53q42 0 65 -38t23 -97v-321z" />
    <glyph glyph-name="n" unicode="n" horiz-adv-x="400" 
d="M360 28q0 -11 -9.5 -19.5t-21.5 -8.5h-41q-28 0 -28 28v298q0 56 -39 56q-35 0 -67 -32q-14 -14 -14 -30v-292q0 -28 -29 -28h-42q-11 0 -20 8.5t-9 19.5v423q0 28 29 28h41q29 0 29 -27v-20q0 -17 16 -1q54 54 116 54q89 0 89 -111v-346z" />
    <glyph glyph-name="o" unicode="o" horiz-adv-x="406" 
d="M366 166q0 -50 -6 -74q-8 -39 -36 -63q-45 -39 -121 -39q-111 0 -148 73q-15 31 -15 102v148q0 99 43.5 137t119.5 38q111 0 148 -72q15 -31 15 -103v-147zM266 159v159q0 88 -63 88t-63 -88v-158q0 -88 63 -88t63 87z" />
    <glyph glyph-name="p" unicode="p" horiz-adv-x="405" 
d="M365 183q0 -96 -22 -139q-25 -49 -86 -49q-42 0 -89 32q-15 10 -20 10q-8 0 -8 -17v-223q0 -12 -8.5 -21.5t-20.5 -9.5h-43q-10 0 -19 10t-9 20v655q0 10 9.5 19t19.5 9h42q11 0 20 -9t9 -20t5 -11q4 0 11 7q11 9 12 10q44 30 89 30q61 0 86 -48q22 -43 22 -140v-115z
M265 175v127q0 74 -56 74q-26 0 -46 -26q-23 -28 -23 -70v-79q0 -51 24 -77q18 -20 45 -20q56 0 56 71z" />
    <glyph glyph-name="q" unicode="q" horiz-adv-x="405" 
d="M365 -204q0 -10 -9 -20t-19 -10h-43q-12 0 -20.5 9.5t-8.5 21.5v223q0 17 -8 17q-5 0 -20 -10q-47 -32 -89 -32q-61 0 -86 49q-22 43 -22 139v115q0 97 22 140q25 48 86 48q45 0 89 -30l23 -16q5 0 5 10.5t9 19.5t20 9h42q10 0 19.5 -9t9.5 -19v-655zM265 280
q0 42 -21.5 69t-47.5 27q-56 0 -56 -74v-127q0 -71 56 -71q27 0 45 20q24 26 24 77v79z" />
    <glyph glyph-name="r" unicode="r" horiz-adv-x="277" 
d="M267 448v-36q0 -35 -19 -35q-5 0 -14.5 1t-14.5 1q-80 0 -80 -104v-246q0 -29 -29 -29h-43q-27 0 -27 29v422q0 10 8 19t19 9h43q29 0 29 -28v-27q0 -7 3 -7q3 -1 6 5q31 61 88 61q31 0 31 -35z" />
    <glyph glyph-name="s" unicode="s" horiz-adv-x="393" 
d="M368 131q0 -64 -45 -102.5t-119 -38.5q-121 0 -170 105q-4 9 -4 16q0 16 22 23l34 11q7 2 13 2q17 0 28 -22q24 -47 77 -47q57 0 57 41q0 36 -73.5 72.5t-109.5 71.5q-39 37 -39 92q0 58 44.5 95.5t111.5 37.5q107 0 157 -85q5 -8 5 -17q0 -18 -19 -25l-34 -13
q-7 -3 -13 -3q-17 0 -29 20q-23 38 -66 38q-55 0 -55 -39q0 -21 13 -34q15 -17 68 -43q84 -41 108 -64q38 -36 38 -92z" />
    <glyph glyph-name="t" unicode="t" horiz-adv-x="292" 
d="M272 28q0 -28 -29 -28h-36q-70 0 -97.5 28t-27.5 97v242q0 30 -28 30h-15q-29 0 -29 28v32q0 29 29 29h15q28 0 28 29v91q0 27 28 27h45q10 0 18.5 -9t8.5 -19v-89q0 -30 29 -30h24q29 0 29 -28v-34q0 -27 -29 -27h-25q-28 0 -28 -28v-224q0 -32 8.5 -44t37.5 -12h16
q9 0 18.5 -9t9.5 -19v-33z" />
    <glyph glyph-name="u" unicode="u" horiz-adv-x="399" 
d="M359 28q0 -28 -29 -28h-41q-29 0 -29 28v19q0 8 -3 8q-4 0 -12 -8q-54 -54 -117 -54q-88 0 -88 111v346q0 29 30 29h41q29 0 29 -29v-298q0 -32 8 -44t30 -12q35 0 68 33q14 14 14 29v292q0 29 29 29h42q11 0 19.5 -9t8.5 -20v-422z" />
    <glyph glyph-name="v" unicode="v" horiz-adv-x="373" 
d="M356 450l-104 -420q-7 -30 -35 -30h-47q-29 0 -37 29l-117 422q-1 5 -1 9q0 19 23 19h48q30 0 37 -29l63 -261q2 -7 6 -7q3 0 4 7l55 260q7 30 37 30h47q23 0 23 -17q0 -5 -2 -12z" />
    <glyph glyph-name="w" unicode="w" horiz-adv-x="569" 
d="M554 456v-6l-99 -421q-6 -23 -29 -28q-4 -1 -43 -1q-29 0 -36 30l-58 247q-1 3 -4 7q-2 -2 -3 -7l-56 -247q-6 -24 -29 -29q-5 -1 -45 -1q-27 0 -34 30l-101 420q-2 7 -2 12q0 17 24 17h45q28 0 34 -29l55 -255q1 -5 3 -5q3 0 4 5l55 254q5 26 25 30h45q27 0 34 -29
l59 -255q0 -2 3 -5q2 2 3 6l50 253q6 30 35 30h45q20 0 20 -23z" />
    <glyph glyph-name="x" unicode="x" horiz-adv-x="386" 
d="M360 29q6 -11 6 -17q0 -12 -20 -12h-50q-29 0 -43 30l-56 124q-6 15 -13 1l-55 -125q-13 -30 -43 -30h-47q-19 0 -19 14q0 7 4 16l93 191q9 18 9 29t-9 28l-86 172q-4 9 -4 16q0 13 18 13h65q16 0 28 -28l47 -106q4 -8 7 -8t6 9l43 104q12 29 42 29h49q20 0 20 -11
q0 -6 -6 -18l-83 -172q-14 -29 0 -57z" />
    <glyph glyph-name="y" unicode="y" horiz-adv-x="375" 
d="M359 449l-107 -496q-16 -72 -35 -107q-30 -55 -83 -71q-37 -11 -81 -12q-28 -1 -28 29v44q0 10 9 20t19 11q36 3 58 24t22 54q0 16 -6 41l-110 463q-2 7 -2 12q0 18 23 18h46q30 0 37 -29l67 -282q4 -18 8 0l61 282q6 29 36 29h43q24 0 24 -21q0 -4 -1 -9z" />
    <glyph glyph-name="z" unicode="z" horiz-adv-x="377" 
d="M347 417q0 -32 -20 -61l-162 -236q-8 -12 -8 -19q0 -10 18 -10h140q11 0 21 -9.5t10 -20.5v-32q0 -12 -9 -20.5t-21 -8.5h-257q-29 0 -29 30v37q0 27 20 56l161 235q11 15 11 22q0 8 -18 8h-128q-11 0 -19.5 8.5t-8.5 19.5v33q0 30 28 30h242q29 0 29 -29v-33z" />
    <glyph glyph-name="braceleft" unicode="{" horiz-adv-x="380" 
d="M340 -129q0 -31 -29 -31h-28q-89 0 -126.5 35.5t-37.5 120.5v166q0 47 -15 69q-5 7 -29 24q-15 11 -15 32v34q0 22 15 33q24 16 29 23q15 21 15 71v168q0 84 37.5 118.5t126.5 34.5h28q29 0 29 -32v-30q0 -32 -29 -32q-43 -1 -57 -10q-20 -12 -20 -53v-173q0 -53 -13 -83
q-8 -18 -22.5 -30.5t-14.5 -20.5q0 -7 13 -18q16 -15 24 -34q13 -31 13 -83v-172q0 -41 20 -53q14 -9 57 -10q29 0 29 -32v-32z" />
    <glyph glyph-name="bar" unicode="|" horiz-adv-x="376" 
d="M237 -124q0 -27 -29 -27h-41q-28 0 -28 27v848q0 28 28 28h42q10 0 19 -8.5t9 -18.5v-849z" />
    <glyph glyph-name="braceright" unicode="}" horiz-adv-x="380" 
d="M320 287q0 -21 -15 -32q-24 -17 -29 -24q-15 -22 -15 -69v-166q0 -85 -37.5 -120.5t-126.5 -35.5h-28q-29 0 -29 31v32q0 32 29 32q43 1 57 10q20 12 20 53v172q0 52 13 83q8 19 24 34q13 11 13 18q0 8 -13 19q-16 14 -24 32q-13 30 -13 83v173q0 41 -20 53q-14 9 -57 10
q-29 0 -29 32v30q0 32 29 32h28q89 0 126.5 -34.5t37.5 -118.5v-168q0 -50 15 -71q5 -7 29 -23q15 -11 15 -33v-34z" />
    <glyph glyph-name="asciitilde" unicode="~" horiz-adv-x="601" 
d="M546 695q0 -19 -7 -30q-61 -94 -132 -94q-39 0 -119.5 37t-108.5 37q-38 0 -66.5 -37t-37.5 -37q-11 0 -27 18.5t-16 27.5q0 15 8 28q63 99 136 99q42 0 122.5 -36t108.5 -36q34 0 61 33.5t38 33.5q10 0 25 -17t15 -27z" />
    <glyph glyph-name="Adieresis" unicode="&#xc4;" horiz-adv-x="453" 
d="M346 812q0 -25 -21 -25h-13q-21 0 -21 25v11q0 24 22 24h12q21 0 21 -24v-11zM156 812q0 -25 -21 -25h-13q-21 0 -21 25v11q0 24 22 24h12q21 0 21 -24v-11zM438 29q5 -29 -25 -29h-53q-28 0 -34 29l-20 97q-7 30 -35 30h-95q-11 0 -21 -9.5t-12 -20.5l-19 -98
q-6 -28 -34 -28h-52q-28 0 -22 29l127 658q5 27 33 27h95q29 0 35 -29zM277 285l-48 261q-2 6 -6 6t-5 -7l-47 -262q-5 -26 25 -26h57q29 0 24 28z" />
    <glyph glyph-name="Aring" unicode="&#xc5;" horiz-adv-x="453" 
d="M291 829q0 -26 -19 -44t-46 -18t-46 18.5t-19 43.5t19.5 43.5t45.5 18.5q27 0 46 -18t19 -44zM438 29q5 -29 -25 -29h-53q-28 0 -34 29l-20 97q-7 30 -35 30h-95q-11 0 -21 -9.5t-12 -20.5l-19 -98q-6 -28 -34 -28h-52q-28 0 -22 29l127 658q5 27 33 27h95q29 0 35 -29z
M255 829q0 28 -29 28t-29 -28t29 -28t29 28zM277 285l-48 261q-2 6 -6 6t-5 -7l-47 -262q-5 -26 25 -26h57q29 0 24 28z" />
    <glyph glyph-name="Ccedilla" unicode="&#xc7;" horiz-adv-x="480" 
d="M440 222q0 -215 -170 -232q3 -13 11 -19.5t18 -13.5q30 -21 30 -62q0 -36 -24 -55.5t-58 -19.5q-45 0 -70 28q-19 20 -19 40q0 10 14 17q11 6 20 6q15 0 24.5 -18.5t28.5 -18.5q24 0 24 20q0 21 -15 31q-33 22 -40 66q-90 11 -129 78q-24 40 -31 93q-4 31 -4 99v199
q0 75 4 103q8 57 37 95q52 67 152 67q91 0 143 -57.5t52 -158.5q0 -11 -9.5 -19.5t-20.5 -8.5h-51q-28 0 -29 28q-5 113 -86 113q-45 0 -63 -31.5t-18 -108.5v-236q0 -86 18 -120t64 -34q84 0 87 131q1 28 29 28h51q30 0 30 -29z" />
    <glyph glyph-name="Eacute" unicode="&#xc9;" horiz-adv-x="414" 
d="M296 857l-39 -46q-20 -24 -40 -24h-25q-20 0 -20 18q0 3 2 6l23 47q4 8 17.5 15.5t22.5 7.5h42q20 0 20 -17q0 -4 -3 -7zM384 72v-44q0 -28 -29 -28h-266q-29 0 -29 28v657q0 10 9.5 19.5t19.5 9.5h266q28 0 28 -29v-45q0 -28 -27 -28h-157q-29 0 -29 -33v-126
q0 -28 29 -28h133q28 0 28 -29v-45q0 -11 -8.5 -19.5t-19.5 -8.5h-134q-27 0 -27 -30v-162q0 -29 27 -29h157q11 0 20 -9.5t9 -20.5z" />
    <glyph glyph-name="Ntilde" unicode="&#xd1;" horiz-adv-x="521" 
d="M417 859q0 -12 -4 -18q-37 -56 -79 -56q-23 0 -71 22t-65 22q-23 0 -39.5 -22t-22.5 -22t-16 10.5t-10 16.5q0 9 5 17q37 59 81 59q25 0 73.5 -21.5t64.5 -21.5q20 0 36 20t23 20q6 0 15 -10t9 -16zM461 28q0 -11 -9 -19.5t-20 -8.5h-54q-28 0 -40 29l-155 372
q-4 10 -8 10t-4 -10v-372q0 -29 -29 -29h-54q-28 0 -28 28v657q0 29 28 29h54q28 0 40 -28l156 -373q4 -10 8 -10t4 10v372q0 29 28 29h54q29 0 29 -28v-658z" />
    <glyph glyph-name="Odieresis" unicode="&#xd6;" horiz-adv-x="491" 
d="M367 812q0 -25 -21 -25h-13q-21 0 -21 25v11q0 24 22 24h12q21 0 21 -24v-11zM177 812q0 -25 -21 -25h-13q-21 0 -21 25v11q0 24 22 24h12q21 0 21 -24v-11zM441 227q0 -115 -41 -169q-52 -69 -155 -69q-106 0 -154 69q-41 59 -41 169v259q0 114 41 170q50 68 154 68
q108 0 155 -68q41 -59 41 -170v-259zM329 228v256q0 76 -18.5 106.5t-65.5 30.5t-65.5 -30t-18.5 -107v-256q0 -76 18 -106t66 -30q47 0 65.5 30t18.5 106z" />
    <glyph glyph-name="Udieresis" unicode="&#xdc;" horiz-adv-x="487" 
d="M367 812q0 -25 -21 -25h-13q-21 0 -21 25v11q0 24 22 24h12q21 0 21 -24v-11zM177 812q0 -25 -21 -25h-13q-21 0 -21 25v11q0 24 22 24h12q21 0 21 -24v-11zM432 230q0 -126 -41 -178q-51 -65 -147 -63q-104 2 -151 67q-38 55 -38 173v456q0 29 28 29h53q29 0 29 -29
v-473q0 -64 18.5 -92t60.5 -28t60 27.5t18 92.5v473q0 29 29 29h52q29 0 29 -30v-454z" />
    <glyph glyph-name="aacute" unicode="&#xe1;" horiz-adv-x="394" 
d="M266 617l-39 -46q-20 -24 -40 -24h-25q-20 0 -20 18q0 3 2 6l23 47q4 8 17.5 15.5t22.5 7.5h42q20 0 20 -17q0 -4 -3 -7zM354 25q0 -10 -9.5 -17.5t-19.5 -7.5h-45q-26 0 -26 29q0 15 -11 15q-5 0 -9 -5q-8 -9 -10 -10q-42 -35 -91 -35q-51 0 -79.5 33t-28.5 92
q0 68 47 106q36 29 152 77q30 12 30 36q0 33 -10.5 45t-41.5 12q-44 0 -54 -28.5t-34 -28.5h-48q-25 0 -25 23q0 34 30 69q47 55 144 55q73 0 109 -37q21 -22 27 -49q3 -16 3 -56v-318zM254 187v12q0 16 -18 8q-76 -33 -85 -38q-29 -18 -29 -46t21 -28q15 0 42 14
q69 36 69 78z" />
    <glyph glyph-name="agrave" unicode="&#xe0;" horiz-adv-x="394" 
d="M267 571q2 -3 2 -6q0 -18 -20 -18h-25q-20 0 -40 24l-39 46q-3 3 -3 7q0 17 20 17h42q9 0 22.5 -7.5t17.5 -15.5zM354 25q0 -10 -9.5 -17.5t-19.5 -7.5h-45q-26 0 -26 29q0 15 -11 15q-5 0 -9 -5q-8 -9 -10 -10q-42 -35 -91 -35q-51 0 -79.5 33t-28.5 92q0 68 47 106
q36 29 152 77q30 12 30 36q0 33 -10.5 45t-41.5 12q-44 0 -54 -28.5t-34 -28.5h-48q-25 0 -25 23q0 34 30 69q47 55 144 55q73 0 109 -37q21 -22 27 -49q3 -16 3 -56v-318zM254 187v12q0 16 -18 8q-76 -33 -85 -38q-29 -18 -29 -46t21 -28q15 0 42 14q69 36 69 78z" />
    <glyph glyph-name="acircumflex" unicode="&#xe2;" horiz-adv-x="394" 
d="M288 558q8 -14 -6 -14h-10q-15 0 -29 14l-20 20q-12 12 -24 -1l-19 -19q-14 -14 -29 -14h-10q-14 0 -6 14l15 26q9 16 35 16h53q26 0 35 -16zM354 25q0 -10 -9.5 -17.5t-19.5 -7.5h-45q-26 0 -26 29q0 15 -11 15q-5 0 -9 -5q-8 -9 -10 -10q-42 -35 -91 -35
q-51 0 -79.5 33t-28.5 92q0 68 47 106q36 29 152 77q30 12 30 36q0 33 -10.5 45t-41.5 12q-44 0 -54 -28.5t-34 -28.5h-48q-25 0 -25 23q0 34 30 69q47 55 144 55q73 0 109 -37q21 -22 27 -49q3 -16 3 -56v-318zM254 187v12q0 16 -18 8q-76 -33 -85 -38q-29 -18 -29 -46
t21 -28q15 0 42 14q69 36 69 78z" />
    <glyph glyph-name="adieresis" unicode="&#xe4;" horiz-adv-x="394" 
d="M326 572q0 -25 -21 -25h-13q-21 0 -21 25v11q0 24 22 24h12q21 0 21 -24v-11zM136 572q0 -25 -21 -25h-13q-21 0 -21 25v11q0 24 22 24h12q21 0 21 -24v-11zM354 25q0 -10 -9.5 -17.5t-19.5 -7.5h-45q-26 0 -26 29q0 15 -11 15q-5 0 -9 -5q-8 -9 -10 -10q-42 -35 -91 -35
q-51 0 -79.5 33t-28.5 92q0 68 47 106q36 29 152 77q30 12 30 36q0 33 -10.5 45t-41.5 12q-44 0 -54 -28.5t-34 -28.5h-48q-25 0 -25 23q0 34 30 69q47 55 144 55q73 0 109 -37q21 -22 27 -49q3 -16 3 -56v-318zM254 187v12q0 16 -18 8q-76 -33 -85 -38q-29 -18 -29 -46
t21 -28q15 0 42 14q69 36 69 78z" />
    <glyph glyph-name="atilde" unicode="&#xe3;" horiz-adv-x="394" 
d="M367 619q0 -12 -4 -18q-37 -56 -79 -56q-23 0 -71 22t-65 22q-23 0 -39.5 -22t-22.5 -22t-16 10.5t-10 16.5q0 9 5 17q37 59 81 59q25 0 73.5 -21.5t64.5 -21.5q20 0 36 20t23 20q6 0 15 -10t9 -16zM354 25q0 -10 -9.5 -17.5t-19.5 -7.5h-45q-26 0 -26 29q0 15 -11 15
q-5 0 -9 -5q-8 -9 -10 -10q-42 -35 -91 -35q-51 0 -79.5 33t-28.5 92q0 68 47 106q36 29 152 77q30 12 30 36q0 33 -10.5 45t-41.5 12q-44 0 -54 -28.5t-34 -28.5h-48q-25 0 -25 23q0 34 30 69q47 55 144 55q73 0 109 -37q21 -22 27 -49q3 -16 3 -56v-318zM254 187v12
q0 16 -18 8q-76 -33 -85 -38q-29 -18 -29 -46t21 -28q15 0 42 14q69 36 69 78z" />
    <glyph glyph-name="aring" unicode="&#xe5;" horiz-adv-x="394" 
d="M271 589q0 -26 -19 -44t-46 -18t-46 18.5t-19 43.5t19.5 43.5t45.5 18.5q27 0 46 -18t19 -44zM354 25q0 -10 -9.5 -17.5t-19.5 -7.5h-45q-26 0 -26 29q0 15 -11 15q-5 0 -9 -5q-8 -9 -10 -10q-42 -35 -91 -35q-51 0 -79.5 33t-28.5 92q0 68 47 106q36 29 152 77
q30 12 30 36q0 33 -10.5 45t-41.5 12q-44 0 -54 -28.5t-34 -28.5h-48q-25 0 -25 23q0 34 30 69q47 55 144 55q73 0 109 -37q21 -22 27 -49q3 -16 3 -56v-318zM235 589q0 28 -29 28t-29 -28t29 -28t29 28zM254 187v12q0 16 -18 8q-76 -33 -85 -38q-29 -18 -29 -46t21 -28
q15 0 42 14q69 36 69 78z" />
    <glyph glyph-name="ccedilla" unicode="&#xe7;" horiz-adv-x="401" 
d="M371 141q0 -71 -37 -108q-31 -31 -84 -40q2 -15 9 -22l20 -14q30 -21 30 -62q0 -36 -24 -55.5t-58 -19.5q-45 0 -70 28q-19 20 -19 40q0 10 14 17q11 6 20 6q15 0 24.5 -18.5t28.5 -18.5q24 0 24 20q0 21 -15 31q-32 22 -40 65q-84 4 -121 50q-33 41 -33 130v138
q0 90 33 130q41 50 133 50q85 0 128 -42q37 -36 37 -104q0 -10 -9.5 -20t-19.5 -10h-42q-27 0 -29 31t-17 41.5t-47 10.5q-38 0 -52.5 -21t-14.5 -77v-115q0 -55 14.5 -77.5t51.5 -22.5q33 0 48 12.5t17 46.5q2 29 30 29h41q11 0 20 -9t9 -20z" />
    <glyph glyph-name="eacute" unicode="&#xe9;" horiz-adv-x="411" 
d="M266 617l-39 -46q-20 -24 -40 -24h-25q-20 0 -20 18q0 3 2 6l23 47q4 8 17.5 15.5t22.5 7.5h42q20 0 20 -17q0 -4 -3 -7zM371 134q0 -66 -37 -102q-44 -42 -127 -42q-94 0 -134 50q-33 41 -33 130v143q0 50 6 74q9 38 36 62q44 39 122 39q82 0 124 -43t42 -141v-51
q0 -28 -28 -28h-174q-10 0 -18.5 -8t-8.5 -18v-19q0 -51 14.5 -73t49.5 -22q59 0 65 48q4 32 30 32h43q28 0 28 -31zM269 341q-1 61 -64 61q-65 0 -65 -61q0 -26 28 -26h72q29 0 29 26z" />
    <glyph glyph-name="egrave" unicode="&#xe8;" horiz-adv-x="411" 
d="M267 571q2 -3 2 -6q0 -18 -20 -18h-25q-20 0 -40 24l-39 46q-3 3 -3 7q0 17 20 17h42q9 0 22.5 -7.5t17.5 -15.5zM371 134q0 -66 -37 -102q-44 -42 -127 -42q-94 0 -134 50q-33 41 -33 130v143q0 50 6 74q9 38 36 62q44 39 122 39q82 0 124 -43t42 -141v-51
q0 -28 -28 -28h-174q-10 0 -18.5 -8t-8.5 -18v-19q0 -51 14.5 -73t49.5 -22q59 0 65 48q4 32 30 32h43q28 0 28 -31zM269 341q-1 61 -64 61q-65 0 -65 -61q0 -26 28 -26h72q29 0 29 26z" />
    <glyph glyph-name="ecircumflex" unicode="&#xea;" horiz-adv-x="411" 
d="M288 558q8 -14 -6 -14h-10q-15 0 -29 14l-20 20q-12 12 -24 -1l-19 -19q-14 -14 -29 -14h-10q-14 0 -6 14l15 26q9 16 35 16h53q26 0 35 -16zM371 134q0 -66 -37 -102q-44 -42 -127 -42q-94 0 -134 50q-33 41 -33 130v143q0 50 6 74q9 38 36 62q44 39 122 39
q82 0 124 -43t42 -141v-51q0 -28 -28 -28h-174q-10 0 -18.5 -8t-8.5 -18v-19q0 -51 14.5 -73t49.5 -22q59 0 65 48q4 32 30 32h43q28 0 28 -31zM269 341q-1 61 -64 61q-65 0 -65 -61q0 -26 28 -26h72q29 0 29 26z" />
    <glyph glyph-name="edieresis" unicode="&#xeb;" horiz-adv-x="411" 
d="M326 572q0 -25 -21 -25h-13q-21 0 -21 25v11q0 24 22 24h12q21 0 21 -24v-11zM136 572q0 -25 -21 -25h-13q-21 0 -21 25v11q0 24 22 24h12q21 0 21 -24v-11zM371 134q0 -66 -37 -102q-44 -42 -127 -42q-94 0 -134 50q-33 41 -33 130v143q0 50 6 74q9 38 36 62
q44 39 122 39q82 0 124 -43t42 -141v-51q0 -28 -28 -28h-174q-10 0 -18.5 -8t-8.5 -18v-19q0 -51 14.5 -73t49.5 -22q59 0 65 48q4 32 30 32h43q28 0 28 -31zM269 341q-1 61 -64 61q-65 0 -65 -61q0 -26 28 -26h72q29 0 29 26z" />
    <glyph glyph-name="iacute" unicode="&#xed;" horiz-adv-x="210" 
d="M206 617l-39 -46q-20 -24 -40 -24h-25q-20 0 -20 18q0 3 2 6l23 47q4 8 17.5 15.5t22.5 7.5h42q20 0 20 -17q0 -4 -3 -7zM155 29q0 -10 -9.5 -19.5t-19.5 -9.5h-43q-28 0 -28 29v422q0 28 29 28h42q29 0 29 -28v-422z" />
    <glyph glyph-name="igrave" unicode="&#xec;" horiz-adv-x="210" 
d="M137 571q1 -3 1 -6q0 -18 -19 -18h-25q-20 0 -40 24l-39 46q-3 3 -3 7q0 17 20 17h42q8 0 22 -7.5t18 -15.5zM155 29q0 -10 -10 -19.5t-19 -9.5h-43q-28 0 -28 29v422q0 28 29 28h42q29 0 29 -28v-422z" />
    <glyph glyph-name="icircumflex" unicode="&#xee;" horiz-adv-x="210" 
d="M183 558q8 -14 -6 -14h-10q-15 0 -29 14l-20 20q-11 12 -24 -1l-19 -19q-14 -14 -29 -14h-10q-14 0 -6 14l15 26q9 16 35 16h53q26 0 35 -16zM155 29q0 -10 -9.5 -19.5t-19.5 -9.5h-43q-28 0 -28 29v422q0 28 29 28h42q29 0 29 -28v-422z" />
    <glyph glyph-name="idieresis" unicode="&#xef;" horiz-adv-x="210" 
d="M203 572q0 -25 -21 -25h-13q-21 0 -21 25v11q0 24 22 24h12q21 0 21 -24v-11zM63 572q0 -25 -21 -25h-13q-21 0 -21 25v11q0 24 22 24h12q21 0 21 -24v-11zM155 29q0 -10 -9.5 -19.5t-19.5 -9.5h-43q-28 0 -28 29v422q0 28 29 28h42q29 0 29 -28v-422z" />
    <glyph glyph-name="ntilde" unicode="&#xf1;" horiz-adv-x="400" 
d="M350 619q0 -12 -4 -18q-37 -56 -79 -56q-23 0 -71 22t-65 22q-23 0 -39.5 -22t-22.5 -22t-16 10.5t-10 16.5q0 9 5 17q37 59 81 59q25 0 73.5 -21.5t64.5 -21.5q20 0 36 20t23 20q6 0 15 -10t9 -16zM360 28q0 -11 -9.5 -19.5t-21.5 -8.5h-41q-28 0 -28 28v298
q0 56 -39 56q-35 0 -67 -32q-14 -14 -14 -30v-292q0 -28 -29 -28h-42q-11 0 -20 8.5t-9 19.5v423q0 28 29 28h41q29 0 29 -27v-20q0 -17 16 -1q54 54 116 54q89 0 89 -111v-346z" />
    <glyph glyph-name="oacute" unicode="&#xf3;" horiz-adv-x="406" 
d="M276 617l-39 -46q-20 -24 -40 -24h-25q-20 0 -20 18q0 3 2 6l23 47q4 8 17.5 15.5t22.5 7.5h42q20 0 20 -17q0 -4 -3 -7zM366 166q0 -50 -6 -74q-8 -39 -36 -63q-45 -39 -121 -39q-111 0 -148 73q-15 31 -15 102v148q0 99 43.5 137t119.5 38q111 0 148 -72
q15 -31 15 -103v-147zM266 159v159q0 88 -63 88t-63 -88v-158q0 -88 63 -88t63 87z" />
    <glyph glyph-name="ograve" unicode="&#xf2;" horiz-adv-x="406" 
d="M256 571q2 -3 2 -6q0 -18 -20 -18h-25q-20 0 -40 24l-39 46q-3 3 -3 7q0 17 20 17h42q9 0 22.5 -7.5t17.5 -15.5zM366 166q0 -50 -6 -74q-8 -39 -36 -63q-45 -39 -121 -39q-111 0 -148 73q-15 31 -15 102v148q0 99 43.5 137t119.5 38q111 0 148 -72q15 -31 15 -103v-147z
M266 159v159q0 88 -63 88t-63 -88v-158q0 -88 63 -88t63 87z" />
    <glyph glyph-name="ocircumflex" unicode="&#xf4;" horiz-adv-x="406" 
d="M283 558q8 -14 -6 -14h-10q-15 0 -29 14l-20 20q-12 12 -24 -1l-19 -19q-14 -14 -29 -14h-10q-14 0 -6 14l15 26q9 16 35 16h53q26 0 35 -16zM366 166q0 -50 -6 -74q-8 -39 -36 -63q-45 -39 -121 -39q-111 0 -148 73q-15 31 -15 102v148q0 99 43.5 137t119.5 38
q111 0 148 -72q15 -31 15 -103v-147zM266 159v159q0 88 -63 88t-63 -88v-158q0 -88 63 -88t63 87z" />
    <glyph glyph-name="odieresis" unicode="&#xf6;" horiz-adv-x="406" 
d="M326 572q0 -25 -21 -25h-13q-21 0 -21 25v11q0 24 22 24h12q21 0 21 -24v-11zM136 572q0 -25 -21 -25h-13q-21 0 -21 25v11q0 24 22 24h12q21 0 21 -24v-11zM366 166q0 -50 -6 -74q-8 -39 -36 -63q-45 -39 -121 -39q-111 0 -148 73q-15 31 -15 102v148q0 99 43.5 137
t119.5 38q111 0 148 -72q15 -31 15 -103v-147zM266 159v159q0 88 -63 88t-63 -88v-158q0 -88 63 -88t63 87z" />
    <glyph glyph-name="otilde" unicode="&#xf5;" horiz-adv-x="406" 
d="M359 619q0 -12 -4 -18q-37 -56 -79 -56q-23 0 -71 22t-65 22q-23 0 -39.5 -22t-22.5 -22t-16 10.5t-10 16.5q0 9 5 17q37 59 81 59q25 0 73.5 -21.5t64.5 -21.5q20 0 36 20t23 20q6 0 15 -10t9 -16zM366 166q0 -50 -6 -74q-8 -39 -36 -63q-45 -39 -121 -39
q-111 0 -148 73q-15 31 -15 102v148q0 99 43.5 137t119.5 38q111 0 148 -72q15 -31 15 -103v-147zM266 159v159q0 88 -63 88t-63 -88v-158q0 -88 63 -88t63 87z" />
    <glyph glyph-name="uacute" unicode="&#xfa;" horiz-adv-x="399" 
d="M296 617l-39 -46q-20 -24 -40 -24h-25q-20 0 -20 18q0 3 2 6l23 47q4 8 17.5 15.5t22.5 7.5h42q20 0 20 -17q0 -4 -3 -7zM359 28q0 -28 -29 -28h-41q-29 0 -29 28v19q0 8 -3 8q-4 0 -12 -8q-54 -54 -117 -54q-88 0 -88 111v346q0 29 30 29h41q29 0 29 -29v-298
q0 -32 8 -44t30 -12q35 0 68 33q14 14 14 29v292q0 29 29 29h42q11 0 19.5 -9t8.5 -20v-422z" />
    <glyph glyph-name="ugrave" unicode="&#xf9;" horiz-adv-x="399" 
d="M229 571q2 -3 2 -6q0 -18 -20 -18h-25q-20 0 -40 24l-39 46q-3 3 -3 7q0 17 20 17h42q9 0 22.5 -7.5t17.5 -15.5zM359 28q0 -28 -29 -28h-41q-29 0 -29 28v19q0 8 -3 8q-4 0 -12 -8q-54 -54 -117 -54q-88 0 -88 111v346q0 29 30 29h41q29 0 29 -29v-298q0 -32 8 -44
t30 -12q35 0 68 33q14 14 14 29v292q0 29 29 29h42q11 0 19.5 -9t8.5 -20v-422z" />
    <glyph glyph-name="ucircumflex" unicode="&#xfb;" horiz-adv-x="399" 
d="M278 558q8 -14 -6 -14h-10q-15 0 -29 14l-20 20q-12 12 -24 -1l-19 -19q-14 -14 -29 -14h-10q-14 0 -6 14l15 26q9 16 35 16h53q26 0 35 -16zM359 28q0 -28 -29 -28h-41q-29 0 -29 28v19q0 8 -3 8q-4 0 -12 -8q-54 -54 -117 -54q-88 0 -88 111v346q0 29 30 29h41
q29 0 29 -29v-298q0 -32 8 -44t30 -12q35 0 68 33q14 14 14 29v292q0 29 29 29h42q11 0 19.5 -9t8.5 -20v-422z" />
    <glyph glyph-name="udieresis" unicode="&#xfc;" horiz-adv-x="399" 
d="M326 572q0 -25 -21 -25h-13q-21 0 -21 25v11q0 24 22 24h12q21 0 21 -24v-11zM136 572q0 -25 -21 -25h-13q-21 0 -21 25v11q0 24 22 24h12q21 0 21 -24v-11zM359 28q0 -28 -29 -28h-41q-29 0 -29 28v19q0 8 -3 8q-4 0 -12 -8q-54 -54 -117 -54q-88 0 -88 111v346
q0 29 30 29h41q29 0 29 -29v-298q0 -32 8 -44t30 -12q35 0 68 33q14 14 14 29v292q0 29 29 29h42q11 0 19.5 -9t8.5 -20v-422z" />
    <glyph glyph-name="dagger" unicode="&#x2020;" horiz-adv-x="347" 
d="M297 453q0 -10 -9 -19t-19 -9h-24q-21 0 -22 -30l-11 -366q-1 -29 -27 -29h-23q-27 0 -28 29l-11 366q-1 18 -5.5 24t-20.5 6h-20q-27 0 -27 29v43q0 10 8.5 19t18.5 9h22q27 0 25 23l-11 137q-1 11 8.5 20t20.5 9h62q31 0 29 -28l-10 -129q-2 -32 23 -32h22
q10 0 19.5 -9t9.5 -19v-44z" />
    <glyph glyph-name="degree" unicode="&#xb0;" horiz-adv-x="286" 
d="M226 706q0 -26 -19 -44t-46 -18t-46 18t-19 44q0 25 19.5 43.5t45.5 18.5q27 0 46 -18t19 -44zM190 706q0 28 -29 28t-29 -28t29 -28t29 28z" />
    <glyph glyph-name="cent" unicode="&#xa2;" horiz-adv-x="479" 
d="M410 233q-1 -71 -37 -107q-27 -27 -63 -36q-17 -4 -23.5 -11.5t-6.5 -23.5v-58q0 -9 -10 -18.5t-19 -9.5h-8q-9 0 -19 9.5t-10 19.5v57q3 14 -4.5 22t-23.5 12q-60 15 -87 62q-20 35 -20 111v139q0 90 33 129q27 32 74 44q13 3 24 14q7 8 4 19v52q0 10 10 19.5t19 9.5h8
q9 0 19 -9.5t10 -18.5v-53q0 -14 4 -20q14 -12 25 -15q41 -12 64 -34q36 -35 37 -104q0 -11 -10 -20t-19 -9h-42q-11 0 -20 9t-9 20q-3 32 -17.5 42.5t-46.5 10.5q-38 0 -52.5 -21t-14.5 -77v-115q0 -55 14.5 -77.5t51.5 -22.5q33 0 48 12.5t17 46.5q-1 5 8 19q10 10 22 10
h41q9 0 19 -10t10 -19z" />
    <glyph glyph-name="sterling" unicode="&#xa3;" horiz-adv-x="588" 
d="M484 162q-5 -76 -37.5 -120t-82.5 -44q-33 0 -82.5 23.5t-67.5 23.5q-22 0 -42 -18q-6 -7 -12.5 -14t-15.5 -7q-8 0 -28 16l-12 12q-16 16 -18 31q-1 15 13 33q28 38 64 47q9 2 15 7q3 3 9 10q17 27 17 63q0 29 -13 62q-7 17 -16 25q-8 4 -25 4h-34q-12 0 -20 7.5
t-8 20.5v8q0 16 8 23t20 7h10q14 0 20 4t3 13l-4 11q-33 91 -33 142q0 82 47.5 130t129.5 48q78 0 123.5 -46.5t49.5 -129.5q1 -16 -6 -22.5t-22 -6.5h-46q-16 0 -22 6t-8 23q-9 78 -70 78q-32 0 -51.5 -21t-19.5 -55q0 -44 21 -100l21 -55q3 -8 8 -13.5t26 -5.5h67
q13 0 21 -7t8 -22v-8q0 -13 -8.5 -21t-21.5 -8h-43q-22 4 -25 -5q-1 -6 4 -23q8 -30 8 -60q0 -37 -14 -66q-10 -22 -10 -26q1 -4 21 -16l5 -2q22 -9 38 -9q36 0 45 54q0 8 7 23q8 7 23 7h38q15 0 22 -6.5t6 -24.5z" />
    <glyph glyph-name="section" unicode="&#xa7;" horiz-adv-x="554" 
d="M439 331q0 -105 -99 -136q35 -29 49 -46q37 -45 37 -106q0 -64 -43.5 -104.5t-113.5 -40.5q-137 0 -170 140q-1 10 4 17q2 4 16 11l32 9q15 4 24 2q6 -3 10 -17q21 -79 84 -79q29 0 47 18t18 47q0 27 -17 50t-67 62q-25 19 -58 45q-62 49 -76 107q-1 5 -4 16q-2 5 0 12v8
q0 51 28.5 87t77.5 48l-13 10q-80 62 -80 144q0 62 42 101t108 39q111 0 153 -120q3 -8 -1 -16q-1 -3 -15 -13l-40 -12q-11 -2 -18 2t-11 14q-22 63 -69 62q-25 0 -41 -16t-16 -41q0 -44 59 -91l39 -31q49 -39 55 -44q19 -16 32 -32q37 -46 37 -106zM346 340q0 30 -20 51
t-49 21q-28 0 -48 -21t-20 -51q0 -29 20 -50t48 -21t48.5 21t20.5 50z" />
    <glyph glyph-name="bullet" unicode="&#x2022;" horiz-adv-x="377" 
d="M328 357q0 -55 -39.5 -94.5t-94.5 -39.5q-56 0 -95 39.5t-39 94.5q0 56 39 95t95 39q55 0 94.5 -39t39.5 -95z" />
    <glyph glyph-name="paragraph" unicode="&#xb6;" horiz-adv-x="666" 
d="M583 749q-2 -31 -30 -30q-10 0 -16 -4q-5 -7 -5 -25v-696q0 -12 -7.5 -19.5t-20.5 -7.5h-24q-15 0 -22 7t-7 21v695q0 11 -8 20t-20 9h-36q-13 -2 -21 -9.5t-8 -19.5v-696q2 -12 -6.5 -20.5t-21.5 -6.5h-25q-15 0 -22 7t-7 21v386q0 13 -6 19.5t-22 7.5
q-79 4 -127.5 54.5t-48.5 127.5q0 63 31.5 109.5t87.5 63.5q52 16 127 16h235q28 0 30 -30z" />
    <glyph glyph-name="germandbls" unicode="&#xdf;" horiz-adv-x="431" 
d="M388 259q0 -104 -11.5 -157t-41.5 -82t-89 -29q-17 0 -24 8t-7 23v38q0 15 7 22q8 3 21 8q29 8 37 75q2 21 2 89q0 93 -11.5 128t-47.5 42q-9 1 -24 7q-5 7 -5 24v40q0 18 5.5 23t22.5 9q31 11 31 48q0 47 -43 47q-47 0 -47 -81v-520q0 -12 -7.5 -20t-22.5 -8h-41
q-15 0 -22 6.5t-7 21.5v496q0 100 37 146q40 50 112 50q63 0 101.5 -38.5t38.5 -100.5q0 -43 -23 -72q-16 -20 -16 -22q0 -6 16 -16q34 -21 46.5 -65t12.5 -140z" />
    <glyph glyph-name="registered" unicode="&#xae;" horiz-adv-x="556" 
d="M516 492q0 -91 -65.5 -156t-157.5 -65q-93 0 -158.5 64.5t-65.5 156.5t65.5 157t158.5 65q92 0 157.5 -65t65.5 -157zM466 492q0 72 -50.5 122t-122.5 50t-123 -50t-51 -122q0 -71 51 -121t123 -50q71 0 122 50.5t51 120.5zM389 540q0 -19 -12 -35l-6 -6t-4 -8
q0 -2 5 -10q2 -1 6 -7q7 -14 10 -54v-9q1 -13 -3 -18q-7 -4 -18 -4h-8q-12 0 -16.5 3.5t-5.5 19.5q-1 1 -1 7q-2 31 -9 41.5t-34 10.5h-14q-13 0 -16 -4q-5 -9 -5 -19v-37q0 -12 -5 -17t-17 -5h-11q-11 0 -15.5 4.5t-4.5 17.5v171q-2 11 4 16t17 5h82q81 0 81 -63zM337 536
q0 26 -40 26h-17q-13 2 -17.5 -3t-4.5 -17v-11q-1 -10 5.5 -16.5t16.5 -4.5h15q42 0 42 26z" />
    <glyph glyph-name="copyright" unicode="&#xa9;" horiz-adv-x="544" 
d="M500 491q0 -91 -65.5 -156t-157.5 -65t-157.5 65t-65.5 156q0 92 65.5 157t157.5 65t157.5 -65t65.5 -157zM453 491q0 75 -51.5 127t-124.5 52q-74 0 -126 -52t-52 -127q0 -74 52.5 -127t125.5 -53t124.5 53t51.5 127zM397 452q-18 -90 -116 -90q-56 0 -91 36.5t-35 96.5
q0 59 36 96t93 37q41 0 71.5 -21t39.5 -55q2 -9 -1.5 -13t-13.5 -4h-22q-7 0 -12 4q-8 8 -10 13q-15 29 -54 29q-32 0 -50.5 -23t-18.5 -63t18.5 -63t50.5 -23q45 0 57 43q3 8 8 13q1 1 12 4h21q13 0 16 -4t1 -13z" />
    <glyph glyph-name="trademark" unicode="&#x2122;" horiz-adv-x="666" 
d="M613 302q0 -6 -6 -11.5t-12 -4.5h-29q-7 0 -12 5.5t-5 11.5v275q0 6 -1 6t-3 -6l-65 -275q-1 -5 -7.5 -11t-13.5 -6h-6q-7 0 -14 5q-3 3 -7 11l-64 277q-1 5 -3 5t-2 -5v-276q1 -7 -4.5 -12t-12.5 -5h-29q-6 0 -11.5 5.5t-5.5 11.5v394q0 8 4.5 12.5t12.5 4.5h63
q9 0 15 -5q2 -2 6 -12l52 -222q1 -4 3 -4t4 4l52 222q2 7 7 12t15 5h61q6 0 12 -5t6 -12v-395zM281 664q0 -6 -5.5 -11.5t-11.5 -5.5h-49q-7 0 -12 -5t-5 -12v-328q0 -6 -6 -11.5t-12 -5.5h-32q-7 0 -12 5.5t-5 11.5v329q1 5 -5 10.5t-12 5.5h-49q-6 0 -11.5 6t-5.5 12v32
q0 7 5.5 12t11.5 5h199q6 0 11.5 -5.5t5.5 -11.5v-33z" />
    <glyph glyph-name="acute" unicode="&#xb4;" horiz-adv-x="376" 
d="M276 796l-39 -47q-4 -7 -17.5 -15t-22.5 -8h-25q-9 0 -15 7.5t-2 16.5l22 46q4 8 17 16t23 8h42q9 0 15 -8t2 -16z" />
    <glyph glyph-name="dieresis" unicode="&#xa8;" 
d="M363 813q0 -11 -6.5 -17.5t-14.5 -6.5h-13q-9 1 -15 6.5t-6 17.5v11q0 10 6 17q3 3 16 8h12q8 0 14.5 -7t6.5 -17v-12zM173 813q0 -11 -6.5 -17.5t-14.5 -6.5h-13q-9 1 -15 6.5t-6 17.5v11q0 10 6 17q3 3 16 8h12q8 0 14.5 -7t6.5 -17v-12z" />
    <glyph glyph-name="AE" unicode="&#xc6;" horiz-adv-x="680" 
d="M650 72v-44q0 -28 -29 -28h-266q-28 0 -28 28v98q0 30 -32 30h-95q-27 0 -39 -30l-38 -98q-11 -28 -40 -28h-52q-12 0 -16 10q-4 9 0 19l258 658q11 27 39 27h309q28 0 28 -29v-45q0 -28 -27 -28h-157q-29 0 -29 -33v-126q0 -28 29 -28h133q28 0 28 -29v-45
q0 -11 -8.5 -19.5t-19.5 -8.5h-134q-27 0 -27 -30v-162q0 -29 27 -29h157q11 0 20 -9.5t9 -20.5zM331 546l-4 6q-5 0 -7 -7l-99 -262q-2 -5 -2 -10q0 -16 21 -16h57q30 0 30 28z" />
    <glyph glyph-name="Oslash" unicode="&#xd8;" horiz-adv-x="538" 
d="M497 738q4 -10 -2 -23l-48 -102q18 -48 18 -127v-259q0 -115 -41 -169q-53 -70 -155 -69q-64 1 -107 26l-9 -19q-9 -20 -18.5 -27t-26.5 -7h-39q-13 0 -16 10t4 24l42 89q-25 49 -25 142v259q0 114 41 170q50 68 154 68q71 0 118 -32l11 23q7 14 18 23t25 9h41q9 1 15 -9
zM337 586q-18 36 -68 35q-48 0 -66 -30t-18 -107v-218zM353 416l-144 -302q18 -22 60 -22q47 0 65.5 30t18.5 106v188z" />
    <glyph glyph-name="plusminus" unicode="&#xb1;" horiz-adv-x="573" 
d="M547 374q-1 -9 -10 -18.5t-18 -9.5h-147q-13 0 -21.5 -8.5t-6.5 -20.5v-146q1 -9 -8.5 -18.5t-19.5 -9.5h-56q-9 1 -18.5 10t-9.5 18v146q2 12 -6.5 20.5t-22.5 8.5h-146q-8 1 -18 10.5t-10 18.5v55q1 10 10 19t18 9h146q14 0 22.5 8t6.5 19v148q1 8 10.5 18t18.5 10h55
q10 -1 19 -10t9 -18v-148q-2 -10 7 -18.5t21 -8.5h146q9 0 19 -9t10 -19v-56zM551 29q-1 -9 -10.5 -18.5t-17.5 -9.5h-471q-8 1 -18 10.5t-10 18.5v44q1 10 10 18.5t18 8.5h470q9 1 19 -8t10 -19v-45z" />
    <glyph glyph-name="yen" unicode="&#xa5;" horiz-adv-x="529" 
d="M475 687l-109 -286q-6 -11 -3 -17q9 -5 17 -5h7q12 0 21 -9t7 -19v-10q2 -10 -7 -19t-21 -9h-33q-11 -2 -16 -5.5t-13 -16.5q-1 -3 -3 -10q-1 -9 3.5 -13t16.5 -4h45q12 0 21 -9t7 -19v-9q2 -10 -7 -19t-21 -9h-45q-9 0 -15 -6.5t-6 -16.5v-145q0 -11 -9.5 -20t-20.5 -9
h-52q-9 -1 -19 9.5t-10 18.5v147q0 9 -6.5 15.5t-15.5 6.5h-46q-10 0 -19.5 9.5t-7.5 19.5v8q-2 11 7.5 19.5t19.5 8.5h46q12 0 16.5 4t3.5 12q0 4 -2 11.5t-12 15.5q-3 2 -17 6h-35q-10 0 -19.5 10t-7.5 19v9q-2 10 7.5 19t19.5 9h10q13 0 16 5q4 6 -2 17l-106 285
q-4 11 0 22q15 8 18 8h66q15 0 25 -9q4 -5 11 -19l78 -246q3 -10 9 -11q3 0 10 12l80 245q2 10 11 19t26 9h63q12 0 18 -9q4 -10 0 -20z" />
    <glyph glyph-name="ordfeminine" unicode="&#xaa;" horiz-adv-x="410" 
d="M370 27h-1q2 -8 -8 -17.5t-20 -9.5h-43q-10 -1 -19.5 8t-9 20t-8.5 16q-5 2 -10 -3.5t-11 -11.5q-43 -35 -91 -35q-51 0 -80 33t-29 92q0 68 47 106q35 28 152 77q15 6 23 14.5t8 21.5q0 33 -10.5 45t-41.5 12q-44 0 -54 -28q-1 -4 -11 -16.5t-23 -12.5h-48
q-12 0 -20 7.5t-5 21.5q28 118 173 118q103 0 131 -69q9 -22 9 -73v-316zM270 199q0 6 -3 9q-5 3 -15 -1q-80 -35 -89 -40q-29 -19 -26 -52q2 -20 20 -20q16 0 43 14q49 25 62 49q3 6 7 29z" />
    <glyph glyph-name="ordmasculine" unicode="&#xba;" horiz-adv-x="442" 
d="M384 166q0 -50 -6 -74q-8 -39 -36 -63q-45 -39 -121 -39q-111 0 -148 73q-15 31 -15 102v148q0 99 43.5 137t119.5 38q111 0 148 -72q15 -31 15 -103v-147zM284 159v159q0 88 -63 88t-63 -88v-158q0 -88 63 -88t63 87z" />
    <glyph glyph-name="ae" unicode="&#xe6;" horiz-adv-x="625" 
d="M585 134q0 -66 -37 -102q-44 -42 -127 -42q-51 0 -85 17q-22 11 -41 31q-15 17 -19 17q-10 0 -29 -16q-27 -21 -43 -29q-32 -16 -71 -16q-51 0 -79.5 33t-28.5 92q0 68 47 106q36 29 152 77q30 12 30 36q0 33 -10.5 45t-41.5 12q-44 0 -54 -28.5t-34 -28.5h-48
q-25 0 -25 23q0 34 30 69q47 55 144 55q44 0 71.5 -14.5t23.5 -14.5q-5 0 26.5 16t81.5 16q82 0 124 -43t42 -141v-51q0 -28 -28 -28h-175q-10 0 -18.5 -8t-8.5 -18v-19q0 -51 14.5 -73t50.5 -22q59 0 65 48q4 32 30 32h43q28 0 28 -31zM483 341q-1 61 -64 61q-65 0 -65 -61
q0 -26 28 -26h72q29 0 29 26zM254 187v12q0 16 -18 8q-76 -33 -85 -38q-29 -18 -29 -46t21 -28q15 0 42 14q69 36 69 78z" />
    <glyph glyph-name="oslash" unicode="&#xf8;" horiz-adv-x="382" 
d="M356 158q0 -50 -6 -74q-8 -39 -36 -63q-44 -38 -121 -38q-12 0 -32 2q-24 2 -25 2q-3 -1 -13 -24l-4 -8q-7 -6 -18 -6h-28q-8 0 -13 10q-3 10 2 23l2 8q6 15 5 28q-1 7 -10 17t-10 12q-19 31 -19 110v149q0 99 43.5 137t119.5 38h7q16 -2 24 3q4 4 12 18q3 14 10.5 23
t16.5 9h29q8 0 13 -10q4 -10 -1 -22l-4 -14q-6 -20 -5 -26q1 -4 19 -20q28 -26 36 -62q6 -24 6 -74v-148zM192 371q5 14 -0.5 21.5t-18.5 3.5q-43 -10 -43 -85v-97q-1 -6 3 -7q2 0 7 7zM256 152v159q0 14 -6 14q-8 0 -8 -7l-73 -216q-5 -14 -2 -25q7 -12 26 -12q63 0 63 87z
" />
    <glyph glyph-name="questiondown" unicode="&#xbf;" horiz-adv-x="386" 
d="M248 637q0 -9 -9.5 -19t-19.5 -10h-46q-9 0 -19 9.5t-10 18.5v57q0 10 10 19.5t19 9.5h46q9 0 19 -10t10 -19v-56zM353 145q6 -9 -3 -31q-47 -114 -166 -114q-68 0 -110 38t-42 101q0 50 54 131q44 66 55.5 101.5t10.5 105.5q0 10 8 19t22 9h34q14 0 21 -7.5t7 -22.5
q0 -80 -13.5 -127.5t-59.5 -129.5q-29 -52 -29 -80q0 -47 46 -47q38 0 62 52q2 10 13 25q10 5 29 0l43 -12q15 -4 18 -11z" />
    <glyph glyph-name="exclamdown" unicode="&#xa1;" horiz-adv-x="212" 
d="M158 627q0 -10 -10 -19.5t-19 -9.5h-46q-10 0 -19.5 10t-9.5 19v56q0 10 9.5 19.5t19.5 9.5h46q9 0 19 -9.5t10 -18.5v-57zM162 28q0 -11 -9 -19.5t-19 -8.5h-55q-10 0 -19 8.5t-9 18.5l7 443q0 9 8.5 18t16.5 9h47q9 0 18 -8q3 -5 7 -19z" />
    <glyph glyph-name="florin" unicode="&#x192;" horiz-adv-x="381" 
d="M322 652q2 -12 -7.5 -21.5t-20.5 -6.5h-16q-29 0 -37.5 -12t-8.5 -44v-62q-1 -9 7.5 -18.5t20.5 -9.5h25q12 0 20.5 -8.5t8.5 -18.5v-34q1 -8 -8.5 -18t-20.5 -10h-24q-13 2 -21 -6t-8 -24v-390q0 -69 -27 -95.5t-97 -28.5l-37 -1q-11 0 -20 9t-9 20v33q-2 12 7.5 21.5
t20.5 6.5h16q29 0 37.5 12t8.5 44v369q0 16 -9 25q-8 5 -19 5h-15q-12 0 -20.5 9t-8.5 20v32q0 13 8.5 20.5t20.5 7.5h15q9 0 18.5 10t9.5 20v81q0 69 27 95.5t97 28.5l37 1q11 0 20 -9t9 -20v-33z" />
    <glyph glyph-name="guillemotleft" unicode="&#xab;" horiz-adv-x="360" 
d="M310 124q0 -11 -9.5 -17.5t-18.5 -2.5l-54 45q-9 5 -18.5 20.5t-9.5 26.5v72q0 11 9 27q4 8 19 20l54 45q9 4 18.5 -2.5t9.5 -17.5v-49q0 -11 -9 -27q-5 -7 -18 -19q-11 -6 -12 -13q0 -2 12 -12q9 -5 18 -20.5t9 -26.5v-49zM150 124q0 -11 -9.5 -17.5t-18.5 -2.5l-54 45
q-9 5 -18.5 20.5t-9.5 26.5v72q0 11 9 27q4 8 19 20l54 45q9 4 18.5 -2.5t9.5 -17.5v-49q0 -11 -9 -27q-5 -7 -18 -19q-11 -6 -12 -13q0 -2 12 -12q9 -5 18 -20.5t9 -26.5v-49z" />
    <glyph glyph-name="guillemotright" unicode="&#xbb;" horiz-adv-x="386" 
d="M344 196q0 -11 -9 -27q-4 -7 -18 -20l-55 -45q-9 -4 -18 2.5t-9 17.5v49q0 11 8 27q4 7 19 20q11 7 11 12q0 7 -10 12.5t-19 20.5t-9 26v49q0 11 9 17.5t18 2.5l55 -45q9 -5 18 -20.5t9 -26.5v-72zM174 196q0 -11 -9 -27q-4 -7 -18 -20l-55 -45q-9 -4 -18 2.5t-9 17.5v49
q0 11 8 27q4 7 19 20q11 7 11 12q0 7 -10 12.5t-19 20.5t-9 26v49q0 11 9 17.5t18 2.5l55 -45q9 -5 18 -20.5t9 -26.5v-72z" />
    <glyph glyph-name="ellipsis" unicode="&#x2026;" horiz-adv-x="586" 
d="M551 29q0 -10 -10 -19.5t-19 -9.5h-46q-9 0 -18.5 10t-9.5 19v56q0 9 9.5 19t18.5 10h46q9 0 19 -9.5t10 -18.5v-57zM351 29q0 -10 -10 -19.5t-19 -9.5h-46q-9 0 -18.5 10t-9.5 19v56q0 9 9.5 19t18.5 10h46q9 0 19 -9.5t10 -18.5v-57zM151 29q0 -10 -10 -19.5t-19 -9.5
h-46q-9 0 -18.5 10t-9.5 19v56q0 9 9.5 19t18.5 10h46q9 0 19 -9.5t10 -18.5v-57z" />
    <glyph glyph-name="nonbreakingspace" unicode="&#xa0;" horiz-adv-x="98" 
 />
    <glyph glyph-name="Agrave" unicode="&#xc0;" horiz-adv-x="453" 
d="M257 811q2 -3 2 -6q0 -18 -20 -18h-25q-20 0 -40 24l-39 46q-3 3 -3 7q0 17 20 17h42q9 0 22.5 -7.5t17.5 -15.5zM438 29q5 -29 -25 -29h-53q-28 0 -34 29l-20 97q-7 30 -35 30h-95q-11 0 -21 -9.5t-12 -20.5l-19 -98q-6 -28 -34 -28h-52q-28 0 -22 29l127 658
q5 27 33 27h95q29 0 35 -29zM277 285l-48 261q-2 6 -6 6t-5 -7l-47 -262q-5 -26 25 -26h57q29 0 24 28z" />
    <glyph glyph-name="Atilde" unicode="&#xc3;" horiz-adv-x="453" 
d="M369 859q0 -12 -4 -18q-37 -56 -79 -56q-23 0 -71 22t-65 22q-23 0 -39.5 -22t-22.5 -22t-16 10.5t-10 16.5q0 9 5 17q37 59 81 59q25 0 73.5 -21.5t64.5 -21.5q20 0 36 20t23 20q6 0 15 -10t9 -16zM438 29q5 -29 -25 -29h-53q-28 0 -34 29l-20 97q-7 30 -35 30h-95
q-11 0 -21 -9.5t-12 -20.5l-19 -98q-6 -28 -34 -28h-52q-28 0 -22 29l127 658q5 27 33 27h95q29 0 35 -29zM277 285l-48 261q-2 6 -6 6t-5 -7l-47 -262q-5 -26 25 -26h57q29 0 24 28z" />
    <glyph glyph-name="Otilde" unicode="&#xd5;" horiz-adv-x="491" 
d="M396 859q0 -12 -4 -18q-37 -56 -79 -56q-23 0 -71 22t-65 22q-23 0 -39.5 -22t-22.5 -22t-16 10.5t-10 16.5q0 9 5 17q37 59 81 59q25 0 73.5 -21.5t64.5 -21.5q20 0 36 20t23 20q6 0 15 -10t9 -16zM441 227q0 -115 -41 -169q-52 -69 -155 -69q-106 0 -154 69
q-41 59 -41 169v259q0 114 41 170q50 68 154 68q108 0 155 -68q41 -59 41 -170v-259zM329 228v256q0 76 -18.5 106.5t-65.5 30.5t-65.5 -30t-18.5 -107v-256q0 -76 18 -106t66 -30q47 0 65.5 30t18.5 106z" />
    <glyph glyph-name="OE" unicode="&#x152;" horiz-adv-x="684" 
d="M654 72v-44q0 -28 -29 -28h-266q-8 0 -13 4t-8 4q2 0 -29.5 -9.5t-63.5 -9.5q-106 0 -154 69q-41 59 -41 169v259q0 114 41 170q50 68 154 68q39 0 68 -9.5t27 -9.5q4 0 8.5 4.5t10.5 4.5h266q28 0 28 -29v-45q0 -28 -27 -28h-156q-29 0 -29 -33v-126q0 -28 28 -28h133
q28 0 28 -29v-45q0 -11 -8.5 -19.5t-19.5 -8.5h-134q-27 0 -27 -30v-162q0 -29 27 -29h157q11 0 20 -9.5t9 -20.5zM329 228v256q0 76 -18.5 106.5t-65.5 30.5t-65.5 -30t-18.5 -107v-256q0 -76 18 -106t66 -30q47 0 65.5 30t18.5 106z" />
    <glyph glyph-name="oe" unicode="&#x153;" horiz-adv-x="637" 
d="M597 134q0 -66 -37 -102q-44 -42 -127 -42q-48 0 -83.5 16.5t-33.5 16.5q1 0 -32 -16.5t-81 -16.5q-111 0 -148 73q-15 31 -15 102v148q0 99 43.5 137t119.5 38q49 0 82.5 -16t30.5 -16t30.5 16t83.5 16q82 0 124 -43t42 -141v-51q0 -28 -28 -28h-174q-10 0 -19 -8
t-9 -18v-19q0 -51 14.5 -73t50.5 -22q59 0 65 48q4 32 30 32h43q28 0 28 -31zM495 341q-1 61 -64 61q-65 0 -65 -61q0 -26 28 -26h72q29 0 29 26zM266 159v159q0 88 -63 88t-63 -88v-158q0 -88 63 -88t63 87z" />
    <glyph glyph-name="endash" unicode="&#x2013;" horiz-adv-x="460" 
d="M406 282q-1 -9 -10 -18.5t-17 -9.5h-282q-8 1 -17.5 10.5t-9.5 18.5v44q1 10 10 18.5t17 8.5h281q9 1 18.5 -8t9.5 -19v-45z" />
    <glyph glyph-name="emdash" unicode="&#x2014;" horiz-adv-x="538" 
d="M506 282q-1 -9 -10 -18.5t-17 -9.5h-382q-8 1 -17.5 10.5t-9.5 18.5v44q1 10 10 18.5t17 8.5h381q9 1 18.5 -8t9.5 -19v-45z" />
    <glyph glyph-name="quotedblleft" unicode="&#x201c;" horiz-adv-x="317" 
d="M278 539q0 -10 -8.5 -19t-20.5 -9h-46q-10 0 -19 9q-4 4 -10 18v57q0 14 3.5 27.5t15.5 45.5l37 89q3 7 7.5 11t13.5 3h12q6 1 9 -4q1 -5 0 -10l-37 -119q-2 -6 1 -10.5t13.5 -4.5t20 -10t8.5 -18v-56zM143 539q0 -10 -8.5 -19t-20.5 -9h-46q-10 0 -20 9q-4 4 -9 18v57
q0 14 3.5 27.5t15.5 45.5l37 89q3 7 7 11t13 3h13q6 1 8 -4t1 -10l-37 -119q-2 -6 1 -10.5t13.5 -4.5t20 -10t8.5 -18v-56z" />
    <glyph glyph-name="quotedblright" unicode="&#x201d;" horiz-adv-x="307" 
d="M273 687q0 -14 -4 -28.5t-15 -45.5l-37 -88q-3 -7 -7 -11t-13 -3h-13q-6 -1 -8 3.5t-1 9.5l38 120q2 6 -1 10.5t-13.5 4.5t-20 10t-8.5 18v55q0 10 8.5 19.5t20.5 9.5h46q10 0 19 -9q3 -4 9 -19v-56zM138 687q0 -14 -4 -28.5t-15 -45.5l-37 -88q-3 -7 -7 -11t-13 -3h-13
q-6 -1 -8 3.5t-1 9.5l38 120q2 6 -1 10.5t-13.5 4.5t-20.5 10t-9 18v55q0 10 8.5 19.5t20.5 9.5h47q10 0 19 -9q3 -4 9 -19v-56z" />
    <glyph glyph-name="quoteleft" unicode="&#x2018;" horiz-adv-x="197" 
d="M151 539q0 -10 -8.5 -19t-20.5 -9h-46q-11 0 -19 9q-5 4 -11 18v57q0 14 3.5 27.5t15.5 45.5l37 89q3 8 8 11.5t13 2.5h12q6 1 8.5 -4t1.5 -10l-37 -119q-2 -6 0 -10q4 -5 14 -5t20 -10t9 -18v-56z" />
    <glyph glyph-name="quoteright" unicode="&#x2019;" horiz-adv-x="192" 
d="M148 687q0 -14 -4 -28.5t-15 -45.5l-37 -88q-3 -7 -7.5 -11t-13.5 -3h-12q-6 -1 -9 4q-1 4 0 9l37 120q2 6 -1 10.5t-13.5 4.5t-20 10t-8.5 18v55q0 10 8.5 19.5t20.5 9.5h46q10 0 19 -9q4 -4 10 -19v-56z" />
    <glyph glyph-name="divide" unicode="&#xf7;" horiz-adv-x="538" 
d="M328 429q0 -10 -10 -19.5t-19 -9.5h-46q-9 0 -18.5 10t-9.5 19v56q0 9 9.5 19t18.5 10h46q9 0 19 -9.5t10 -18.5v-57zM506 282q-1 -9 -10 -18.5t-17 -9.5h-382q-8 1 -17.5 10.5t-9.5 18.5v44q1 10 10 18.5t17 8.5h381q9 1 18.5 -8t9.5 -19v-45zM328 129q0 -10 -10 -19.5
t-19 -9.5h-46q-9 0 -18.5 10t-9.5 19v56q0 9 9.5 19t18.5 10h46q9 0 19 -9.5t10 -18.5v-57z" />
    <glyph glyph-name="ydieresis" unicode="&#xff;" horiz-adv-x="375" 
d="M308 572q0 -25 -21 -25h-13q-21 0 -21 25v11q0 24 22 24h12q21 0 21 -24v-11zM118 572q0 -25 -21 -25h-13q-21 0 -21 25v11q0 24 22 24h12q21 0 21 -24v-11zM354 449l-107 -496q-16 -72 -35 -107q-30 -55 -83 -71q-37 -11 -81 -12q-28 -1 -28 29v44q0 10 9 20t19 11
q36 3 58 24t22 54q0 16 -6 41l-110 463q-2 7 -2 12q0 18 23 18h46q30 0 37 -29l67 -282q4 -18 8 0l61 282q6 29 36 29h43q24 0 24 -21q0 -4 -1 -9z" />
    <glyph glyph-name="Ydieresis" unicode="&#x178;" horiz-adv-x="470" 
d="M363 812q0 -25 -21 -25h-13q-21 0 -21 25v11q0 24 22 24h12q21 0 21 -24v-11zM173 812q0 -25 -21 -25h-13q-21 0 -21 25v11q0 24 22 24h12q21 0 21 -24v-11zM442 685l-144 -379q-10 -26 -10 -57v-220q0 -11 -8.5 -20t-20.5 -9h-53q-29 0 -29 28v221q0 30 -10 57l-140 378
q-2 6 -2 12q0 18 20 18h66q28 0 36 -28l78 -246q5 -13 10 -13t9 14l80 245q10 28 37 28h63q21 0 21 -17q0 -5 -3 -12z" />
    <glyph glyph-name="currency" unicode="&#xa4;" horiz-adv-x="480" 
d="M440 222q0 -233 -196 -233q-112 0 -159 80q-24 40 -31 93q-4 31 -4 99v20h-22q-5 0 -10 5.5t-5 10.5v24q0 16 15 16h22v37h-22q-5 0 -10 5.5t-5 10.5v24q0 15 15 15h22v31q0 75 4 103q8 57 37 95q52 67 152 67q91 0 143 -57.5t52 -158.5q0 -11 -9.5 -19.5t-20.5 -8.5h-51
q-28 0 -29 28q-5 113 -86 113q-45 0 -63 -31.5t-18 -108.5v-53h122q16 0 16 -15v-25q0 -15 -16 -15h-122v-37h122q16 0 16 -16v-25q0 -15 -16 -15h-122v-35q0 -86 18 -120t64 -34q84 0 87 131q1 28 29 28h51q30 0 30 -29z" />
    <glyph glyph-name="guilsinglleft" unicode="&#x2039;" horiz-adv-x="210" 
d="M160 124q0 -23 -19 -23q-5 0 -9 3l-54 45q-28 23 -28 47v72q0 24 28 47l54 45q4 3 9 3q19 0 19 -23v-49q0 -19 -19.5 -34.5t-19.5 -24.5q0 -10 19.5 -25.5t19.5 -33.5v-49z" />
    <glyph glyph-name="guilsinglright" unicode="&#x203a;" horiz-adv-x="210" 
d="M160 196q0 -24 -28 -47l-54 -45q-4 -3 -9 -3q-19 0 -19 23v49q0 18 19.5 33.5t19.5 25.5q0 9 -19.5 24.5t-19.5 34.5v49q0 23 19 23q5 0 9 -3l54 -45q28 -23 28 -47v-72z" />
    <glyph glyph-name="daggerdbl" unicode="&#x2021;" horiz-adv-x="347" 
d="M297 217q0 -10 -9 -19t-19 -9h-21q-27 0 -25 -23l10 -137q1 -11 -8 -20t-21 -9h-62q-30 0 -28 28l10 129q2 32 -23 32h-22q-10 0 -19.5 9t-9.5 19v44q0 10 9 19t19 9h24q16 0 20 15q4 12 4 54q0 41 -5 54t-24 13h-20q-10 0 -18.5 8.5t-8.5 20.5v43q0 10 8.5 19t18.5 9h22
q27 0 25 23l-11 137q-1 11 8.5 20t20.5 9h62q31 0 29 -28l-10 -129q-2 -32 23 -32h22q10 0 19.5 -9t9.5 -19v-44q0 -10 -9 -19t-19 -9h-24q-19 0 -24 -25q-1 -8 -1 -41q0 -44 5 -57t25 -13h19q10 0 19 -10t9 -19v-43z" />
    <glyph glyph-name="periodcentered" unicode="&#xb7;" horiz-adv-x="204" 
d="M154 276q0 -11 -9 -20t-20 -9h-47q-10 0 -19 9.5t-9 19.5v56q0 10 9 19.5t19 9.5h47q10 0 19.5 -9t9.5 -19v-57z" />
    <glyph glyph-name="periodcentered" unicode="&#x2219;" horiz-adv-x="204" 
d="M154 276q0 -11 -9 -20t-20 -9h-47q-10 0 -19 9.5t-9 19.5v56q0 10 9 19.5t19 9.5h47q10 0 19.5 -9t9.5 -19v-57z" />
    <glyph glyph-name="perthousand" unicode="&#x2030;" horiz-adv-x="793" 
d="M762 115q0 -124 -94 -124t-94 124v136q0 124 94 124t94 -124v-136zM218 460q0 -125 -94 -125q-93 0 -93 125v136q0 124 93 124q94 0 94 -124v-136zM451 684l-271 -654q-12 -30 -34 -30h-29q-20 0 -8 30l270 655q12 29 33 29h30q10 0 11 -11q2 -10 -2 -19zM532 115
q0 -124 -94 -124t-94 124v136q0 124 94 124t94 -124v-136zM699 109v148q0 49 -31 49t-31 -49v-148q0 -49 31 -49t31 49zM156 454v147q0 50 -32 50q-31 0 -31 -50v-147q0 -50 31 -50q32 0 32 50zM469 109v148q0 49 -31 49t-31 -49v-148q0 -49 31 -49t31 49z" />
    <glyph glyph-name="Acircumflex" unicode="&#xc2;" horiz-adv-x="453" 
d="M300 798q8 -14 -6 -14h-10q-15 0 -29 14l-20 20q-12 12 -24 -1l-19 -19q-14 -14 -29 -14h-10q-14 0 -6 14l15 26q9 16 35 16h53q26 0 35 -16zM438 29q5 -29 -25 -29h-53q-28 0 -34 29l-20 97q-7 30 -35 30h-95q-11 0 -21 -9.5t-12 -20.5l-19 -98q-6 -28 -34 -28h-52
q-28 0 -22 29l127 658q5 27 33 27h95q29 0 35 -29zM277 285l-48 261q-2 6 -6 6t-5 -7l-47 -262q-5 -26 25 -26h57q29 0 24 28z" />
    <glyph glyph-name="Ecircumflex" unicode="&#xca;" horiz-adv-x="414" 
d="M304 798q8 -14 -6 -14h-10q-15 0 -29 14l-20 20q-12 12 -24 -1l-19 -19q-14 -14 -29 -14h-10q-14 0 -6 14l15 26q9 16 35 16h53q26 0 35 -16zM384 72v-44q0 -28 -29 -28h-266q-29 0 -29 28v657q0 10 9.5 19.5t19.5 9.5h266q28 0 28 -29v-45q0 -28 -27 -28h-157
q-29 0 -29 -33v-126q0 -28 29 -28h133q28 0 28 -29v-45q0 -11 -8.5 -19.5t-19.5 -8.5h-134q-27 0 -27 -30v-162q0 -29 27 -29h157q11 0 20 -9.5t9 -20.5z" />
    <glyph glyph-name="Aacute" unicode="&#xc1;" horiz-adv-x="453" 
d="M316 857l-39 -46q-20 -24 -40 -24h-25q-20 0 -20 18q0 3 2 6l23 47q4 8 17.5 15.5t22.5 7.5h42q20 0 20 -17q0 -4 -3 -7zM438 29q5 -29 -25 -29h-53q-28 0 -34 29l-20 97q-7 30 -35 30h-95q-11 0 -21 -9.5t-12 -20.5l-19 -98q-6 -28 -34 -28h-52q-28 0 -22 29l127 658
q5 27 33 27h95q29 0 35 -29zM277 285l-48 261q-2 6 -6 6t-5 -7l-47 -262q-5 -26 25 -26h57q29 0 24 28z" />
    <glyph glyph-name="Edieresis" unicode="&#xcb;" horiz-adv-x="414" 
d="M356 812q0 -25 -21 -25h-13q-21 0 -21 25v11q0 24 22 24h12q21 0 21 -24v-11zM166 812q0 -25 -21 -25h-13q-21 0 -21 25v11q0 24 22 24h12q21 0 21 -24v-11zM384 72v-44q0 -28 -29 -28h-266q-29 0 -29 28v657q0 10 9.5 19.5t19.5 9.5h266q28 0 28 -29v-45q0 -28 -27 -28
h-157q-29 0 -29 -33v-126q0 -28 29 -28h133q28 0 28 -29v-45q0 -11 -8.5 -19.5t-19.5 -8.5h-134q-27 0 -27 -30v-162q0 -29 27 -29h157q11 0 20 -9.5t9 -20.5z" />
    <glyph glyph-name="Egrave" unicode="&#xc8;" horiz-adv-x="414" 
d="M267 811q2 -3 2 -6q0 -18 -20 -18h-25q-20 0 -40 24l-39 46q-3 3 -3 7q0 17 20 17h42q9 0 22.5 -7.5t17.5 -15.5zM384 72v-44q0 -28 -29 -28h-266q-29 0 -29 28v657q0 10 9.5 19.5t19.5 9.5h266q28 0 28 -29v-45q0 -28 -27 -28h-157q-29 0 -29 -33v-126q0 -28 29 -28h133
q28 0 28 -29v-45q0 -11 -8.5 -19.5t-19.5 -8.5h-134q-27 0 -27 -30v-162q0 -29 27 -29h157q11 0 20 -9.5t9 -20.5z" />
    <glyph glyph-name="Iacute" unicode="&#xcd;" horiz-adv-x="251" 
d="M226 857l-39 -46q-20 -24 -40 -24h-25q-20 0 -20 18q0 3 2 6l23 47q4 8 17.5 15.5t22.5 7.5h42q20 0 20 -17q0 -4 -3 -7zM181 27q0 -10 -9.5 -18.5t-19.5 -8.5h-54q-10 0 -19 8t-9 19v659q0 28 28 28h55q10 0 19 -8.5t9 -18.5v-660z" />
    <glyph glyph-name="Icircumflex" unicode="&#xce;" horiz-adv-x="251" 
d="M205 798q8 -14 -6 -14h-10q-15 0 -29 14l-20 20q-12 12 -24 -1l-19 -19q-14 -14 -29 -14h-10q-14 0 -6 14l15 26q9 16 35 16h53q26 0 35 -16zM181 27q0 -10 -9.5 -18.5t-19.5 -8.5h-54q-10 0 -19 8t-9 19v659q0 28 28 28h55q10 0 19 -8.5t9 -18.5v-660z" />
    <glyph glyph-name="Idieresis" unicode="&#xcf;" horiz-adv-x="251" 
d="M226 812q0 -25 -21 -25h-13q-21 0 -21 25v11q0 24 22 24h12q21 0 21 -24v-11zM86 812q0 -25 -21 -25h-13q-21 0 -21 25v11q0 24 22 24h12q21 0 21 -24v-11zM181 27q0 -10 -9.5 -18.5t-19.5 -8.5h-54q-10 0 -19 8t-9 19v659q0 28 28 28h55q10 0 19 -8.5t9 -18.5v-660z" />
    <glyph glyph-name="Igrave" unicode="&#xcc;" horiz-adv-x="251" 
d="M157 811q2 -3 2 -6q0 -18 -20 -18h-25q-20 0 -40 24l-39 46q-3 3 -3 7q0 17 20 17h42q9 0 22.5 -7.5t17.5 -15.5zM181 27q0 -10 -9.5 -18.5t-19.5 -8.5h-54q-10 0 -19 8t-9 19v659q0 28 28 28h55q10 0 19 -8.5t9 -18.5v-660z" />
    <glyph glyph-name="Oacute" unicode="&#xd3;" horiz-adv-x="491" 
d="M346 857l-39 -46q-20 -24 -40 -24h-25q-20 0 -20 18q0 3 2 6l23 47q4 8 17.5 15.5t22.5 7.5h42q20 0 20 -17q0 -4 -3 -7zM441 227q0 -115 -41 -169q-52 -69 -155 -69q-106 0 -154 69q-41 59 -41 169v259q0 114 41 170q50 68 154 68q108 0 155 -68q41 -59 41 -170v-259z
M329 228v256q0 76 -18.5 106.5t-65.5 30.5t-65.5 -30t-18.5 -107v-256q0 -76 18 -106t66 -30q47 0 65.5 30t18.5 106z" />
    <glyph glyph-name="Ocircumflex" unicode="&#xd4;" horiz-adv-x="491" 
d="M320 798q8 -14 -6 -14h-10q-15 0 -29 14l-20 20q-12 12 -24 -1l-19 -19q-14 -14 -29 -14h-10q-14 0 -6 14l15 26q9 16 35 16h53q26 0 35 -16zM441 227q0 -115 -41 -169q-52 -69 -155 -69q-106 0 -154 69q-41 59 -41 169v259q0 114 41 170q50 68 154 68q108 0 155 -68
q41 -59 41 -170v-259zM329 228v256q0 76 -18.5 106.5t-65.5 30.5t-65.5 -30t-18.5 -107v-256q0 -76 18 -106t66 -30q47 0 65.5 30t18.5 106z" />
    <glyph glyph-name="Ograve" unicode="&#xd2;" horiz-adv-x="491" 
d="M267 811q2 -3 2 -6q0 -18 -20 -18h-25q-20 0 -40 24l-39 46q-3 3 -3 7q0 17 20 17h42q9 0 22.5 -7.5t17.5 -15.5zM441 227q0 -115 -41 -169q-52 -69 -155 -69q-106 0 -154 69q-41 59 -41 169v259q0 114 41 170q50 68 154 68q108 0 155 -68q41 -59 41 -170v-259zM329 228
v256q0 76 -18.5 106.5t-65.5 30.5t-65.5 -30t-18.5 -107v-256q0 -76 18 -106t66 -30q47 0 65.5 30t18.5 106z" />
    <glyph glyph-name="Uacute" unicode="&#xda;" horiz-adv-x="487" 
d="M336 857l-39 -46q-20 -24 -40 -24h-25q-20 0 -20 18q0 3 2 6l23 47q4 8 17.5 15.5t22.5 7.5h42q20 0 20 -17q0 -4 -3 -7zM432 230q0 -126 -41 -178q-51 -65 -147 -63q-104 2 -151 67q-38 55 -38 173v456q0 29 28 29h53q29 0 29 -29v-473q0 -64 18.5 -92t60.5 -28t60 27.5
t18 92.5v473q0 29 29 29h52q29 0 29 -30v-454z" />
    <glyph glyph-name="Ucircumflex" unicode="&#xdb;" horiz-adv-x="487" 
d="M322 798q8 -14 -6 -14h-10q-15 0 -29 14l-20 20q-12 12 -24 -1l-19 -19q-14 -14 -29 -14h-10q-14 0 -6 14l15 26q9 16 35 16h53q26 0 35 -16zM432 230q0 -126 -41 -178q-51 -65 -147 -63q-104 2 -151 67q-38 55 -38 173v456q0 29 28 29h53q29 0 29 -29v-473
q0 -64 18.5 -92t60.5 -28t60 27.5t18 92.5v473q0 29 29 29h52q29 0 29 -30v-454z" />
    <glyph glyph-name="Ugrave" unicode="&#xd9;" horiz-adv-x="487" 
d="M276 811q2 -3 2 -6q0 -18 -20 -18h-25q-20 0 -40 24l-39 46q-3 3 -3 7q0 17 20 17h42q9 0 22.5 -7.5t17.5 -15.5zM432 230q0 -126 -41 -178q-51 -65 -147 -63q-104 2 -151 67q-38 55 -38 173v456q0 29 28 29h53q29 0 29 -29v-473q0 -64 18.5 -92t60.5 -28t60 27.5
t18 92.5v473q0 29 29 29h52q29 0 29 -30v-454z" />
    <glyph glyph-name="circumflex" unicode="&#x2c6;" 
d="M337 796q-1 -1 -7 -4h-11q-6 1 -13 4q-3 2 -15 11l-21 19q-5 6 -12 6q-3 0 -11 -7l-20 -18q-8 -7 -13.5 -9.5t-15.5 -5.5h-10q-6 1 -7 4t1 11l15 26q6 6 15 11t21 5h52q11 0 21 -5q4 -2 14 -11l15 -26q3 -8 2 -11z" />
    <glyph glyph-name="tilde" unicode="&#x2dc;" 
d="M410 824q0 -11 -4 -17q-36 -56 -79 -56q-19 0 -43 10l-29 12l-28 12q-23 10 -36 10q-25 0 -48 -34q-6 -11 -14 -11q-3 0 -13 7l-3 4q-9 8 -10 17q0 8 5 16q38 60 81 60q25 0 79 -23q47 -20 59 -20q23 0 44 29q8 11 15 11q5 0 16 -10q7 -8 8 -17z" />
    <glyph glyph-name="macron" unicode="&#xaf;" 
d="M365 813q0 -5 -4 -11q-7 -6 -20 -6h-139q-12 0 -18.5 6t-6.5 12v9q-1 6 5.5 12t18.5 6h140q12 0 19 -6t5 -12v-10z" />
    <glyph glyph-name="macron" unicode="&#x2c9;" 
d="M365 813q0 -5 -4 -11q-7 -6 -20 -6h-139q-12 0 -18.5 6t-6.5 12v9q-1 6 5.5 12t18.5 6h140q12 0 19 -6t5 -12v-10z" />
    <glyph glyph-name="cedilla" unicode="&#xb8;" horiz-adv-x="454" 
d="M304 -105q0 -33 -22 -51.5t-55 -18.5q-57 0 -81 49q-3 9 -3 14q0 7 11 12.5t18 5.5q11 0 21 -18.5t32 -18.5q29 0 29 25q0 22 -17 35q-37 26 -39 88q-1 19 18 19q28 0 28 -21q0 -32 8 -44q3 -3 24 -18q28 -20 28 -58z" />
    <glyph glyph-name="Scaron" unicode="&#x160;" horiz-adv-x="554" 
d="M451 876q0 -13 -30 -40l-76 -66q-5 -4 -9 -8q-8 -6 -19 -6h-27q-14 0 -20 6q-49 39 -121 96q-11 8 -11 16q0 9 11 15q8 5 21 5h26q11 0 20 -5l60 -48q10 -8 21 -8q15 0 31 14.5t49 41.5q9 5 19 5h26q15 0 22 -5.5t7 -12.5zM481 170q0 -81 -54 -131t-142 -50
q-172 0 -212 174q-3 11 4 22q10 6 21 13l40 12q18 5 30 2q7 -3 12 -21q25 -99 105 -99q36 0 58.5 22.5t22.5 58.5q0 34 -21.5 62.5t-83.5 77.5l-72 57q-37 31 -60 60q-40 52 -40 119q0 78 52.5 126.5t134.5 48.5q140 0 192 -149q3 -10 -1 -21q-1 -4 -19 -16l-50 -15
q-14 -2 -22.5 2t-13.5 18q-27 79 -87 78q-31 -1 -51 -21t-20 -51q0 -54 74 -113l49 -39q54 -43 69 -55q23 -21 39 -40q46 -56 46 -132z" />
    <glyph glyph-name="scaron" unicode="&#x161;" horiz-adv-x="442" 
d="M372 667q0 -13 -30 -40l-76 -66q-5 -4 -11 -9t-17 -5h-27q-14 0 -20 6q-49 39 -121 96q-11 8 -11 16q0 9 11 15q8 5 21 5h26q10 0 20 -5l9 -8l51 -40q10 -8 21 -8q15 0 30.5 14.5t49.5 41.5q8 5 19 5h26q15 0 22 -5.5t7 -12.5zM390 131q0 -64 -45 -102.5t-119 -38.5
q-121 0 -170 105q-5 11 -3 23q1 5 21 16l34 11q16 5 24 0q10 -6 17 -20q23 -47 77 -47q57 0 57 41q0 37 -74 73q-90 44 -118 71q-39 37 -39 92q0 58 44 95.5t112 37.5q107 0 157 -85q7 -13 5 -24q-4 -8 -19 -18l-34 -13q-13 -5 -25 0q-9 4 -17 17q-20 32 -69 32
q-52 0 -52 -33q0 -20 17 -35t73 -42q84 -41 108 -64q38 -36 38 -92z" />
    <glyph glyph-name="Eth" unicode="&#xd0;" horiz-adv-x="540" 
d="M461 224q0 -224 -207 -224h-148q-10 1 -18 9.5t-8 19.5v278q0 18 -21 18h-17q-7 0 -17 9.5t-10 19.5v43q1 10 10 19t17 9h17q16 0 20 6q1 2 1 14v240q0 11 8.5 20t17.5 9h148q207 0 207 -223v-267zM350 253v207q0 84 -23.5 118t-81.5 34h-28q-12 0 -19.5 -8t-7.5 -19
v-138q0 -14 1 -15q2 -7 16 -7h16q9 1 19 -8.5t10 -19.5v-44q-1 -10 -10.5 -19t-17.5 -9h-17q-14 0 -16 -5q-1 -1 -1 -15v-180q-2 -7 7 -15t20 -8h28q58 0 81.5 34t23.5 117z" />
    <glyph glyph-name="eth" unicode="&#xf0;" horiz-adv-x="452" 
d="M437 502q-1 -10 -10 -19t-18 -9h-13q-12 0 -15 -9q-1 -3 -1 -21v-204q0 -251 -178 -251q-179 0 -179 241q0 213 145 213q47 0 78 -24q17 -13 22 -13q8 2 8 14v26q0 22 -8 26q-3 2 -22 2h-18q-8 0 -18 9.5t-10 19.5v43q2 10 11 19t17 9h17q20 0 20 9q0 3 -4 11
q-17 35 -62 35q-9 2 -21 13q-4 4 -8 22l2 36q1 10 11 19q7 6 19 6q86 0 135 -62q21 -27 32 -66q5 -19 7 -21t13 -2h20q8 1 18 -8.5t10 -19.5v-44zM276 203v64q-3 24 -8.5 35.5t-19.5 30.5q-15 12 -47 12q-39 0 -54.5 -29t-15.5 -98q0 -70 16.5 -100.5t55.5 -30.5
q73 0 73 116z" />
    <glyph glyph-name="Yacute" unicode="&#xdd;" horiz-adv-x="562" 
d="M367 837l-39 -47q-4 -7 -17.5 -15.5t-22.5 -8.5h-25q-10 0 -16 8.5t-2 15.5l23 47q4 7 17 15t23 8h42q9 0 14.5 -8t2.5 -15zM490 705q4 -10 -2 -20l-144 -379q-4 -10 -8 -27.5t-2 -29.5v-220q0 -12 -9.5 -20.5t-19.5 -8.5h-53q-11 0 -20 8.5t-9 19.5v221q0 11 -1 29
q-2 8 -9 28l-140 378q-4 11 0 22q9 8 18 8h66q14 0 25 -9q4 -5 11 -19l78 -246q4 -13 9 -14q3 0 10 15l80 245q3 9 11.5 18.5t25.5 9.5h63q14 0 20 -9z" />
    <glyph glyph-name="yacute" unicode="&#xfd;" horiz-adv-x="442" 
d="M293 597l-39 -47q-4 -7 -17 -15t-22 -8h-26q-9 0 -15 8t-2 16l22 46q4 8 17.5 16t22.5 8h42q9 0 15 -8t2 -16zM392 448l-107 -495q-22 -100 -58 -140q-25 -27 -60.5 -38t-80.5 -12q-14 0 -22 8.5t-6 20.5v44q-2 9 8 19.5t20 11.5q36 3 58 24t22 54q0 16 -6 41l-110 462
q-4 16 3 23t18 7h46q16 0 25 -7q4 -5 12 -22l67 -281q2 -7 4 -7q1 0 4 7l61 281q2 10 12 19.5t24 9.5h43q11 0 19 -6q7 -9 4 -24z" />
    <glyph glyph-name="Thorn" unicode="&#xde;" horiz-adv-x="537" 
d="M464 365q0 -112 -50 -164t-157 -52h-45q-11 0 -20.5 -9t-7.5 -21v-91q0 -10 -9 -19t-20 -9h-55q-7 2 -16 6q-2 2 -4 3q-8 10 -8 18v659q0 10 9 19t19 9h55q10 0 19 -9t9 -18v-58q0 -27 5 -37q9 -18 38 -18h31q103 0 150 -46q57 -56 57 -163zM349 358q0 66 -24.5 90
t-92.5 24h-20q-13 0 -21.5 -9t-6.5 -20v-164q0 -13 7.5 -20.5t20.5 -7.5h20q66 0 91.5 23.5t25.5 83.5z" />
    <glyph glyph-name="thorn" unicode="&#xfe;" horiz-adv-x="442" 
d="M383 183q0 -95 -22 -139q-24 -49 -86 -49q-42 0 -89 32q-17 12 -21 10q-7 -9 -7 -17v-223q0 -11 -9 -21t-20 -10h-43q-9 0 -18.5 10t-9.5 20v890q0 10 9 19t19 9h55q10 0 19 -9t9 -18v-245q4 4 17 14q42 30 89 30q61 0 86 -48q22 -43 22 -140v-115zM283 178v127
q0 72 -56 71q-69 -7 -69 -97v-79q0 -89 69 -96q56 0 56 74z" />
    <glyph glyph-name="Lslash" unicode="&#x141;" horiz-adv-x="493" 
d="M412 28q0 -11 -8 -19.5t-20 -8.5h-274q-10 -1 -20 9t-8 19v268q0 17 -1 20q-4 9 -20 9h-19q-7 0 -17 9.5t-10 19.5v43q1 10 10 19t17 9h17q18 0 22 8q1 3 1 18v234q0 13 8 21t20 8h53q12 0 21 -9t9 -20v-230q0 -18 1 -20q2 -10 13 -10h26q9 1 19 -8.5t10 -19.5v-44
q-1 -10 -10.5 -19t-17.5 -9h-27q-11 0 -13 -8q-1 -2 -1 -19v-167q0 -12 8 -20.5t19 -8.5h164q12 0 20 -8t8 -21v-45z" />
    <glyph glyph-name="lslash" unicode="&#x142;" horiz-adv-x="256" 
d="M252 353q-1 -10 -10.5 -19t-17.5 -9h-24q-18 0 -21 -8q-1 -2 -1 -22v-266q0 -12 -9 -20.5t-19 -8.5h-43q-12 0 -20.5 8.5t-8.5 20.5v266q0 19 -1 22q-5 8 -25 8h-20q-7 0 -17 9.5t-10 19.5v43q1 10 10 19t17 9h22q19 0 23 6q1 1 1 17v237q0 10 8.5 19.5t20.5 9.5h42
q14 0 22 -9t7 -19v-229q0 -20 1 -23q4 -9 22 -9h22q9 1 19 -8.5t10 -19.5v-44z" />
    <glyph glyph-name="Zcaron" unicode="&#x17d;" horiz-adv-x="523" 
d="M451 876q0 -13 -30 -40l-76 -66q-5 -4 -9 -8q-8 -6 -19 -6h-27q-14 0 -20 6q-49 39 -121 96q-11 8 -11 16q0 9 11 15q8 5 21 5h26q11 0 20 -5l60 -48q10 -8 21 -8q15 0 31 14.5t49 41.5q9 5 19 5h26q15 0 22 -5.5t7 -12.5zM448 72v-44q0 -12 -7.5 -20t-20.5 -8h-318
q-10 0 -19 9t-9 19v43q0 18 3 33q3 10 10 26l223 454q5 10 1 21q-6 8 -16 7h-168q-10 0 -19.5 8.5t-9.5 17.5v47q0 12 8.5 20.5t20.5 8.5h289q12 0 20.5 -9.5t8.5 -19.5v-46q0 -17 -2.5 -26.5t-11.5 -29.5l-221 -453q-5 -10 -2 -18q6 -10 18 -10h194q13 2 20.5 -7t7.5 -23z
" />
    <glyph glyph-name="zcaron" unicode="&#x17e;" horiz-adv-x="442" 
d="M381 653q0 -13 -30 -40l-76 -66q-5 -4 -11 -9t-17 -5h-27q-14 0 -20 6q-49 39 -121 96q-11 8 -11 16q0 9 11 15q8 5 21 5h26q10 0 20 -5l60 -48q10 -8 21 -8q15 0 31 14.5t49 41.5q8 5 19 5h26q15 0 22 -5.5t7 -12.5zM379 416q0 -19 -6 -32q-2 -5 -14 -29l-162 -235
q-6 -9 -7 -20q1 -9 17 -9h139q12 0 22 -10t10 -20v-32q0 -9 -9.5 -19t-21.5 -10h-256q-13 0 -21 8t-8 22v37q2 13 6 27l14 29l161 234q11 15 11 23q-1 7 -18 7h-128q-10 0 -19 9t-9 19v33q0 12 9 21t19 9h242q12 0 20.5 -9t8.5 -20v-33z" />
    <glyph glyph-name="notequal" unicode="&#x2260;" horiz-adv-x="571" 
d="M548 296q-1 -9 -10 -18.5t-18 -9.5h-250l-61 -126q-10 -21 -19.5 -27t-25.5 -6h-39q-12 0 -17 10q-2 10 4 23l61 126h-117q-8 1 -18 10.5t-10 18.5v44q1 10 10 19t18 9h166l33 68h-199q-8 1 -18 10.5t-10 18.5v43q0 11 9.5 19.5t18.5 8.5h248l57 118q7 14 18 23t25 9h41
q9 1 14 -9t-1 -23l-57 -118h118q9 1 19 -8.5t10 -19.5v-44q-1 -10 -10 -19t-18 -9h-168l-33 -68h200q9 1 19 -8.5t10 -19.5v-45z" />
    <glyph glyph-name="infinity" unicode="&#x221e;" horiz-adv-x="624" 
d="M594 355q0 -137 -153 -137q-81 0 -111 42q-8 11 -12 11t-12 -11q-32 -42 -112 -42q-154 0 -154 139q0 137 154 137q82 0 112 -40q7 -13 12 -13q3 0 12 13q29 40 111 40q153 0 153 -139zM517 355q-1 55 -82 55t-81 -55q0 -54 81 -54q83 0 82 54zM280 357q0 54 -81 54
q-82 0 -81 -54q1 -55 81 -55q81 0 81 55z" />
    <glyph glyph-name="lessequal" unicode="&#x2264;" horiz-adv-x="812" 
d="M777 357q0 -154 -108.5 -263t-262.5 -109t-263 108.5t-109 262.5t108.5 263t262.5 109t263 -108.5t109 -262.5zM740 356q0 139 -98 237t-237 98q-138 0 -236 -98t-98 -237q0 -138 98 -236t236 -98q139 0 237 98t98 236zM546 464q0 -83 -52 -121q-4 -1 -8 -7t-4 -14
l64 -195q3 -7 0 -11.5t-14 -8.5h-41q-13 0 -17.5 5t-9.5 15l-53 165q-3 9 -9 14.5t-17 5.5h-7q-8 0 -14 -6t-6 -14v-165q0 -7 -6 -13.5t-14 -6.5h-38q-8 0 -13.5 6t-5.5 14v460q0 7 6.5 13.5t13.5 6.5h102q143 0 143 -143zM466 460q0 42 -17.5 58.5t-61.5 16.5h-9
q-7 0 -14 -5q-6 -8 -6 -15v-112q-2 -6 5.5 -13.5t14.5 -6.5h9q44 0 61.5 17t17.5 60z" />
    <glyph glyph-name="greaterequal" unicode="&#x2265;" horiz-adv-x="812" 
d="M777 357q0 -154 -108.5 -263t-262.5 -109t-263 108.5t-109 262.5t108.5 263t262.5 109t263 -108.5t109 -262.5zM740 356q0 139 -98 237t-237 98q-138 0 -236 -98t-98 -237q0 -138 98 -236t236 -98q139 0 237 98t98 236zM541 263q-2 -164 -137 -164q-80 0 -112 56
q-24 41 -24 135v139q0 53 3 73q6 40 26 66q37 47 106 47q63 0 99 -40t37 -112q-1 -8 -6.5 -13.5t-14.5 -5.5h-35q-7 0 -12.5 5t-8.5 14q-3 79 -60 79q-31 0 -43.5 -22t-12.5 -76v-165q0 -60 12.5 -83.5t44.5 -23.5q60 0 61 91q0 5 5 14q7 6 15 6h36q9 0 14.5 -5.5t6.5 -14.5
z" />
    <glyph glyph-name="partialdiff" unicode="&#x2202;" horiz-adv-x="403" 
d="M380 240q0 -251 -178 -251q-179 0 -179 241q0 213 145 213q47 0 78 -24q17 -13 22 -13q8 2 8 14v55q0 89 -16.5 121.5t-60.5 32.5q-9 2 -21 13q-4 4 -8 22l2 36q1 10 11 19q7 6 19 6q86 0 135 -62q43 -55 43 -168v-255zM276 203v64q-3 24 -8.5 35.5t-19.5 30.5
q-15 12 -47 12q-39 0 -54.5 -29t-15.5 -98q0 -70 16.5 -100.5t55.5 -30.5q73 0 73 116z" />
    <glyph glyph-name="summation" unicode="&#x2211;" horiz-adv-x="523" 
d="M448 72v-44q0 -12 -7.5 -20t-20.5 -8h-318q-10 0 -19 9t-9 19v43q0 18 3 33q1 6 10 26l92 176q16 31 16 57q0 19 -8 38l-82 182q-8 19 -11 29t-3 27v46q0 10 9 19.5t20 9.5h289q13 0 21 -8.5t8 -20.5v-47q0 -9 -9.5 -17.5t-19.5 -8.5h-168q-9 1 -16 -7q-4 -11 1 -21
l89 -188q7 -15 7 -34q0 -23 -11 -44l-101 -188q-6 -10 -2 -18q6 -10 18 -10h194q13 2 20.5 -7t7.5 -23z" />
    <glyph glyph-name="product" unicode="&#x220f;" horiz-adv-x="544" 
d="M518 634q-1 -10 -10 -19t-18 -9h-17q-9 0 -11 -17q-1 -6 -1 -42v-519q-1 -8 -10.5 -18t-18.5 -10h-54q-10 1 -19 10.5t-9 17.5v549q0 29 -39 29h-71q-39 0 -39 -30v-549q-1 -8 -9 -18q-11 -9 -20 -9h-54q-10 1 -19 10t-9 17v522q0 35 -2 40q-4 17 -25 17h-10
q-10 0 -19.5 9t-9.5 19v53q0 11 10 20t19 9h437q8 -1 18 -10q4 -4 10 -19v-53z" />
    <glyph glyph-name="pi" unicode="&#x3c0;" horiz-adv-x="544" 
d="M518 396q-1 -10 -10 -19t-18 -9h-17q-9 0 -11 -17q-1 -6 -1 -42v-281q-1 -8 -10.5 -18t-18.5 -10h-54q-10 1 -19 10.5t-9 17.5v311q0 29 -39 29h-71q-39 0 -39 -30v-311q-1 -8 -9 -18q-11 -9 -20 -9h-54q-10 1 -19 10t-9 17v284q0 35 -2 40q-4 17 -25 17h-10
q-10 0 -19.5 9t-9.5 19v53q0 11 10 20t19 9h437q8 -1 18 -10q4 -4 10 -19v-53z" />
    <glyph glyph-name="integral" unicode="&#x222b;" horiz-adv-x="381" 
d="M322 652q2 -12 -7.5 -21.5t-20.5 -6.5h-16q-29 0 -38 -12t-8 -44q3 -117 2 -301q-2 -305 -2 -298q0 -69 -27 -95.5t-97 -28.5l-37 -1q-11 0 -20 9t-9 20v33q-2 12 7.5 21.5t20.5 6.5h16q29 0 37.5 12t8.5 44v599q0 69 27 95.5t97 28.5l37 1q11 0 20 -9t9 -20v-33z" />
    <glyph glyph-name="Omega" unicode="&#x3a9;" horiz-adv-x="558" 
d="M543 528q-5 -7 -15 -18l-148 -65l149 -68q11 -5 14 -16q2 -11 -2 -19l-37 -64q-5 -9 -15 -11q-11 -3 -23 3l-131 96l17 -163q1 -11 -7.5 -19.5t-17.5 -8.5h-73q-10 0 -18 8t-8 21l17 161l-133 -95q-9 -7 -21 -4q-6 1 -16 11l-36 64q-5 9 -3 19q5 7 15 18l148 65l-149 68
q-11 5 -14 16q-2 11 2 19l37 64q5 9 15 11q11 3 23 -3l131 -96l-16 163q-1 11 7 19.5t18 8.5h73q9 0 18 -8q3 -3 8 -21l-18 -161l133 95q9 7 21 4q6 -1 16 -11l36 -64q5 -9 3 -19z" />
    <glyph glyph-name="Omega" unicode="&#x2126;" horiz-adv-x="558" 
d="M543 528q-5 -7 -15 -18l-148 -65l149 -68q11 -5 14 -16q2 -11 -2 -19l-37 -64q-5 -9 -15 -11q-11 -3 -23 3l-131 96l17 -163q1 -11 -7.5 -19.5t-17.5 -8.5h-73q-10 0 -18 8t-8 21l17 161l-133 -95q-9 -7 -21 -4q-6 1 -16 11l-36 64q-5 9 -3 19q5 7 15 18l148 65l-149 68
q-11 5 -14 16q-2 11 2 19l37 64q5 9 15 11q11 3 23 -3l131 -96l-16 163q-1 11 7 19.5t18 8.5h73q9 0 18 -8q3 -3 8 -21l-18 -161l133 95q9 7 21 4q6 -1 16 -11l36 -64q5 -9 3 -19z" />
    <glyph glyph-name="approxequal" unicode="&#x2248;" horiz-adv-x="545" 
d="M449 454q0 -15 -6 -22q-46 -70 -99 -70q-22 0 -53 13l-36 15l-35 14q-30 12 -45 12q-33 0 -60 -42q-8 -13 -18 -13q-4 0 -16 8l-4 5q-12 11 -13 22q0 9 7 20q47 75 101 75q33 0 99 -29q59 -26 73 -26q29 0 55 38q9 13 19 13q6 0 20 -13q10 -10 11 -20zM449 316
q0 -13 -6 -22q-47 -70 -99 -70q-22 0 -53 13l-71 30q-28 12 -45 12q-32 0 -60 -43q-8 -12 -18 -12q-3 0 -16 8l-4 5q-12 11 -13 21q0 10 7 21q46 74 101 74q32 0 99 -29q58 -25 73 -25q30 0 55 37q9 13 19 13q6 0 20 -12q10 -10 11 -21z" />
    <glyph glyph-name="approxequal" unicode="&#x22f2;" horiz-adv-x="545" 
d="M449 454q0 -15 -6 -22q-46 -70 -99 -70q-22 0 -53 13l-36 15l-35 14q-30 12 -45 12q-33 0 -60 -42q-8 -13 -18 -13q-4 0 -16 8l-4 5q-12 11 -13 22q0 9 7 20q47 75 101 75q33 0 99 -29q59 -26 73 -26q29 0 55 38q9 13 19 13q6 0 20 -13q10 -10 11 -20zM449 316
q0 -13 -6 -22q-47 -70 -99 -70q-22 0 -53 13l-71 30q-28 12 -45 12q-32 0 -60 -43q-8 -12 -18 -12q-3 0 -16 8l-4 5q-12 11 -13 21q0 10 7 21q46 74 101 74q32 0 99 -29q58 -25 73 -25q30 0 55 37q9 13 19 13q6 0 20 -12q10 -10 11 -21z" />
    <glyph glyph-name="Delta" unicode="&#x394;" horiz-adv-x="518" 
d="M382 722h-26q-10 0 -20 6l-9 7l-51 41q-9 7 -20 7q-15 0 -31.5 -14t-48.5 -42q-9 -5 -20 -5h-25q-16 0 -23 5.5t-7 13.5q0 12 31 39q37 33 75 66q5 4 11 9t17 5h27q14 0 20 -6q18 -13 121 -96q11 -9 11 -17t-9.5 -13.5t-22.5 -5.5z" />
    <glyph glyph-name="Delta" unicode="&#x2206;" horiz-adv-x="518" 
d="M382 722h-26q-10 0 -20 6l-9 7l-51 41q-9 7 -20 7q-15 0 -31.5 -14t-48.5 -42q-9 -5 -20 -5h-25q-16 0 -23 5.5t-7 13.5q0 12 31 39q37 33 75 66q5 4 11 9t17 5h27q14 0 20 -6q18 -13 121 -96q11 -9 11 -17t-9.5 -13.5t-22.5 -5.5z" />
    <glyph glyph-name="fraction" unicode="&#x2044;" horiz-adv-x="376" 
d="M408 753l-341 -720q-16 -33 -45 -33h-39q-17 0 -17 16q0 8 4 17l341 720q15 31 43 31h41q13 0 16 -11q2 -10 -3 -20z" />
    <glyph glyph-name="fi" unicode="&#xf001;" horiz-adv-x="480" 
d="M425 29q0 -10 -9.5 -19.5t-19.5 -9.5h-43q-28 0 -28 29v330q0 31 -28 31h-76q-29 0 -29 -30v-332q0 -28 -27 -28h-45q-28 0 -28 27v333q0 30 -28 30h-15q-29 0 -29 29v32q0 28 29 28h15q11 0 19.5 9.5t8.5 20.5v80q0 125 129 125h52q29 0 29 -29v-33q0 -28 -28 -28h-36
q-29 0 -37.5 -12t-8.5 -44v-61q0 -28 28 -28h176q29 0 29 -28v-422z" />
    <glyph glyph-name="fl" unicode="&#xf002;" horiz-adv-x="499" 
d="M444 29q0 -29 -28 -29h-43q-28 0 -28 29v564q0 31 -27 31h-80q-29 0 -37.5 -12t-8.5 -44v-61q0 -28 28 -28h25q29 0 29 -27v-34q0 -10 -9.5 -19t-19.5 -9h-24q-29 0 -29 -30v-332q0 -28 -27 -28h-45q-28 0 -28 27v333q0 30 -28 30h-15q-29 0 -29 29v32q0 28 29 28h15
q11 0 19.5 9.5t8.5 20.5v80q0 125 129 125h195q28 0 28 -28v-657z" />
    <glyph glyph-name="apple" unicode="&#xf000;" horiz-adv-x="812" 
d="M777 357q0 -154 -108.5 -263t-262.5 -109t-263 108.5t-109 262.5t108.5 263t262.5 109t263 -108.5t109 -262.5zM740 356q0 139 -98 237t-237 98q-138 0 -236 -98t-98 -237q0 -138 98 -236t236 -98q139 0 237 98t98 236zM575 451q0 -79 -34.5 -115.5t-110.5 -36.5h-31
q-8 0 -14.5 -6t-5.5 -15v-161q0 -7 -6.5 -13.5t-14.5 -6.5h-37q-7 0 -13 6.5t-6 12.5v461q0 7 6.5 13.5t13.5 6.5h108q73 0 105 -32q40 -40 40 -114zM495 446q0 46 -17.5 62.5t-64.5 16.5h-14q-9 0 -15 -6t-5 -14v-115q0 -8 5.5 -13.5t14.5 -5.5h14q46 0 64 16t18 59z" />
    <glyph glyph-name="dotlessi" unicode="&#x131;" horiz-adv-x="210" 
d="M155 29q0 -10 -9.5 -19.5t-19.5 -9.5h-43q-28 0 -28 29v422q0 28 29 28h42q29 0 29 -28v-422z" />
    <glyph glyph-name="breve" unicode="&#x2d8;" 
d="M321 845q2 -4 -1 -11l-15 -26q-5 -7 -14.5 -11.5t-20.5 -4.5h-53q-11 0 -21 5q-5 2 -14 11l-15 26q-3 7 -1 11q0 2 7 4h10q7 -1 14 -5t15 -10l19 -19q5 -6 12 -6q3 0 12 6l20 19q8 8 15 11q3 2 14 4h11q5 -1 6 -4z" />
    <glyph glyph-name="dotaccent" unicode="&#x2d9;" 
d="M303 813q0 -11 -6.5 -17.5t-14.5 -6.5h-13q-9 1 -15 6.5t-6 17.5v11q0 10 6 17q3 3 16 8h12q8 0 14.5 -7t6.5 -17v-12z" />
    <glyph glyph-name="ring" unicode="&#x2da;" 
d="M331 806q0 -26 -19 -44t-46 -18t-46 18t-19 44q0 25 19.5 43.5t45.5 18.5t45.5 -18.5t19.5 -43.5zM315 806q0 19 -14.5 32.5t-34.5 13.5t-34.5 -13.5t-14.5 -32.5t14.5 -33t34.5 -14t34.5 14t14.5 33z" />
    <glyph glyph-name="hungarumlaut" unicode="&#x2dd;" 
d="M384 844q1 -6 -4 -12l-24 -25q-7 -8 -14 -11q-3 -1 -13 -4h-3q-6 1 -8 4q-1 3 0 11l13 26q5 6 13.5 11t15.5 5h15q6 0 9 -5zM224 844q3 -6 -3 -12l-25 -25q-7 -7 -14 -11q-3 -1 -13 -4h-3q-6 1 -7 4q-2 3 0 11l13 26q3 7 12 11.5t16 4.5h15q6 0 9 -5z" />
    <glyph glyph-name="ogonek" unicode="&#x2db;" 
 />
    <glyph glyph-name="caron" unicode="&#x2c7;" 
d="M316 796q-1 -1 -7 -4h-11q-6 1 -13 4q-3 2 -15 11l-21 19q-5 6 -12 6q-3 0 -11 -7l-20 -18q-8 -7 -13.5 -9.5t-15.5 -5.5h-10q-6 1 -7 4t1 11l15 26q6 6 15 11t21 5h52q11 0 21 -5q4 -2 14 -11l15 -26q3 -8 2 -11z" />
    </font>
</defs>
</svg>
