<?xml version="1.0" encoding="utf-8"?>
<!-- Generator: Adobe Illustrator 22.0.1, SVG Export Plug-In . SVG Version: 6.00 Build 0)  -->
<svg version="1.1" id="Layer_1" xmlns="http://www.w3.org/2000/svg" xmlns:xlink="http://www.w3.org/1999/xlink" x="0px" y="0px"
	 width="768px" height="768px" viewBox="0 0 768 768" style="enable-background:new 0 0 768 768;" xml:space="preserve">
<style type="text/css">
	.st0{fill:url(#SVGID_1_);}
	.st1{fill:url(#SVGID_2_);}
	.st2{fill:url(#SVGID_3_);}
	.st3{fill:url(#SVGID_4_);}
	.st4{fill:url(#SVGID_5_);}
	.st5{fill:url(#SVGID_6_);}
	.st6{fill:url(#SVGID_7_);}
	.st7{fill:url(#SVGID_8_);}
	.st8{fill:url(#SVGID_9_);}
	.st9{fill:url(#SVGID_10_);}
	.st10{fill:#FFFFFF;}
</style>
<g>
	<g>
		<g>
			
				<linearGradient id="SVGID_1_" gradientUnits="userSpaceOnUse" x1="-15285.8135" y1="-14356.1973" x2="11243.3066" y2="14754.9053">
				<stop  offset="0" style="stop-color:#A7A9AC"/>
				<stop  offset="1" style="stop-color:#414042"/>
			</linearGradient>
			<path class="st0" d="M-1793.2,488.3c-2.2,0-4.4-0.7-6.3-2.1l-102.7-77.1c-2.7-2-4.2-5.1-4.2-8.4V273.1c0-5.8,4.7-10.5,10.5-10.5
				s10.5,4.7,10.5,10.5v122.2l98.5,74c4.7,3.5,5.6,10.1,2.1,14.8C-1786.8,486.8-1790,488.3-1793.2,488.3z"/>
		</g>
		<g>
			
				<linearGradient id="SVGID_2_" gradientUnits="userSpaceOnUse" x1="-15317.7324" y1="-14327.5107" x2="11211.7832" y2="14784.0254">
				<stop  offset="0" style="stop-color:#A7A9AC"/>
				<stop  offset="1" style="stop-color:#414042"/>
			</linearGradient>
			<path class="st1" d="M-1895.9,592.2c-105.7,0-191.6-86-191.6-191.6s86-191.6,191.6-191.6s191.6,86,191.6,191.6
				S-1790.2,592.2-1895.9,592.2z M-1895.9,230c-94,0-170.5,76.5-170.5,170.6s76.5,170.6,170.5,170.6s170.6-76.5,170.6-170.6
				S-1801.8,230-1895.9,230z"/>
		</g>
	</g>
	<g>
		
			<linearGradient id="SVGID_3_" gradientUnits="userSpaceOnUse" x1="-15211.4717" y1="-14424.1699" x2="11317.8955" y2="14687.2002">
			<stop  offset="0" style="stop-color:#A7A9AC"/>
			<stop  offset="1" style="stop-color:#414042"/>
		</linearGradient>
		<path class="st2" d="M-1702.8,546.2c-2.1,0-4.2-0.6-6-1.9c-4.8-3.3-5.9-9.9-2.6-14.7c26.6-37.9,40.6-82.5,40.6-129
			c0-124.1-101-225.1-225.1-225.1c-5.8,0-10.5-4.7-10.5-10.5s4.7-10.5,10.5-10.5c135.8,0,246.2,110.4,246.2,246.2
			c0,50.9-15.4,99.7-44.5,141.1C-1696.2,544.6-1699.5,546.2-1702.8,546.2z"/>
	</g>
	<g>
		
			<linearGradient id="SVGID_4_" gradientUnits="userSpaceOnUse" x1="-15363.9365" y1="-14284.9424" x2="11165.1025" y2="14826.0654">
			<stop  offset="0" style="stop-color:#A7A9AC"/>
			<stop  offset="1" style="stop-color:#414042"/>
		</linearGradient>
		<path class="st3" d="M-1895.9,646.8c-135.8,0-246.2-110.4-246.2-246.2c0-112.2,75.8-210.3,184.3-238.4c5.6-1.5,11.4,1.9,12.8,7.6
			c1.5,5.6-1.9,11.4-7.6,12.8c-99.2,25.7-168.5,115.3-168.5,218c0,124.1,101,225.1,225.1,225.1c53.9,0,106.1-19.4,146.9-54.5
			c4.4-3.8,11.1-3.3,14.9,1.1c3.8,4.4,3.3,11.1-1.1,14.9C-1779.8,625.6-1836.9,646.8-1895.9,646.8z"/>
	</g>
	<g>
		<g>
			
				<linearGradient id="SVGID_5_" gradientUnits="userSpaceOnUse" x1="-15072.125" y1="-14550.7646" x2="11456.8271" y2="14560.1533">
				<stop  offset="0" style="stop-color:#A7A9AC"/>
				<stop  offset="1" style="stop-color:#414042"/>
			</linearGradient>
			<path class="st4" d="M-1660.8,240c-3.3,0-6.5-1.5-8.5-4.3c-27.8-38.1-65-68.9-107.6-88.9c-4.5-2.1-6.9-7.1-5.8-11.9
				c9.7-41.5,46.3-70.6,88.9-70.6c50.4,0,91.4,41,91.4,91.4c0,35.9-21.2,68.7-54.1,83.4C-1657.9,239.7-1659.3,240-1660.8,240z
				 M-1759.8,131.6c39.7,20.1,74.7,49,102.1,84.3c21-12.6,34.2-35.5,34.2-60.3c0-38.8-31.5-70.3-70.3-70.3
				C-1723.8,85.3-1749.9,104-1759.8,131.6z"/>
		</g>
		<g>
			<linearGradient id="SVGID_6_" gradientUnits="userSpaceOnUse" x1="-15306.123" y1="-14338.085" x2="11223.3896" y2="14773.4473">
				<stop  offset="0" style="stop-color:#A7A9AC"/>
				<stop  offset="1" style="stop-color:#414042"/>
			</linearGradient>
			<path class="st5" d="M-2131,239.9c-1.4,0-2.9-0.3-4.3-0.9c-32.9-14.7-54.1-47.4-54.1-83.4c0-50.4,41-91.4,91.4-91.4
				c42.7,0,79.2,29,88.9,70.6c1.1,4.8-1.3,9.8-5.8,11.9c-42.6,20-79.8,50.7-107.6,88.9C-2124.5,238.4-2127.7,239.9-2131,239.9z
				 M-2098,85.3c-38.8,0-70.3,31.5-70.3,70.3c0,24.8,13.2,47.7,34.3,60.3c27.4-35.3,62.4-64.2,102.1-84.3
				C-2041.9,104-2068,85.3-2098,85.3z"/>
		</g>
	</g>
	<g>
		<g>
			
				<linearGradient id="SVGID_7_" gradientUnits="userSpaceOnUse" x1="-15520.5732" y1="-14141.8057" x2="11008.1025" y2="14968.8096">
				<stop  offset="0" style="stop-color:#A7A9AC"/>
				<stop  offset="1" style="stop-color:#414042"/>
			</linearGradient>
			<path class="st6" d="M-2065.1,703.7c-6.1,0-12.2-1.3-17.8-4c-21.1-9.9-30.2-35-20.3-56.1c0.2-0.4,0.4-0.8,0.7-1.2l44.1-69
				c3.1-4.9,9.7-6.3,14.6-3.2s6.3,9.7,3.2,14.6l-43.7,68.4c-4.5,10.4,0.1,22.6,10.4,27.5c5.1,2.4,10.8,2.6,16.1,0.7
				c5.3-1.9,9.5-5.8,11.9-10.9c0.2-0.5,0.5-1,0.8-1.5l37.6-55.4l1.9-4.2c2.5-5.3,8.7-7.6,14-5.1s7.5,8.7,5.1,14l-2.3,4.9
				c-0.2,0.5-0.5,1-0.8,1.5l-37.6,55.5c-4.8,9.8-13.1,17.2-23.4,21C-2055.4,702.9-2060.3,703.7-2065.1,703.7z"/>
		</g>
		<g>
			<g>
				
					<linearGradient id="SVGID_8_" gradientUnits="userSpaceOnUse" x1="-15350.2441" y1="-14297.25" x2="11178.6514" y2="14813.6025">
					<stop  offset="0" style="stop-color:#A7A9AC"/>
					<stop  offset="1" style="stop-color:#414042"/>
				</linearGradient>
				<path class="st7" d="M-1726.6,703.7c-4.8,0-9.7-0.8-14.4-2.5c-10.3-3.7-18.6-11.2-23.4-21l-37.6-55.5c-0.3-0.5-0.6-0.9-0.8-1.5
					l-2.3-4.9c-2.5-5.3-0.2-11.5,5.1-14c5.3-2.5,11.5-0.2,14,5.1l1.9,4.1l37.6,55.4c0.3,0.5,0.6,1,0.8,1.5c2.4,5.1,6.6,9,11.9,10.9
					s11,1.7,16.1-0.7c10.3-4.8,14.9-17,10.4-27.4l-41.5-63.7c-0.3-0.4-0.5-0.8-0.7-1.3l-2.2-4.7c-2.5-5.3-0.2-11.5,5.1-14
					c5.3-2.5,11.5-0.2,14,5.1l1.9,4l41.5,63.7c0.3,0.4,0.5,0.8,0.7,1.3c9.9,21.1,0.7,46.2-20.3,56.1
					C-1714.5,702.4-1720.5,703.7-1726.6,703.7z"/>
			</g>
		</g>
	</g>
	<g>
		
			<linearGradient id="SVGID_9_" gradientUnits="userSpaceOnUse" x1="-15161.0176" y1="-14471.3613" x2="11369.5391" y2="14641.3135">
			<stop  offset="0" style="stop-color:#A7A9AC"/>
			<stop  offset="1" style="stop-color:#414042"/>
		</linearGradient>
		<path class="st8" d="M-1843.7,95.3h-104.4c-5.8,0-10.5-4.7-10.5-10.5s4.7-10.5,10.5-10.5h104.4c5.8,0,10.5,4.7,10.5,10.5
			S-1837.9,95.3-1843.7,95.3z"/>
	</g>
	<g>
		
			<linearGradient id="SVGID_10_" gradientUnits="userSpaceOnUse" x1="-15179.0811" y1="-14453.1846" x2="11349.7705" y2="14657.624">
			<stop  offset="0" style="stop-color:#A7A9AC"/>
			<stop  offset="1" style="stop-color:#414042"/>
		</linearGradient>
		<path class="st9" d="M-1895.9,171.3c-5.8,0-10.5-4.7-10.5-10.5v-76c0-5.8,4.7-10.5,10.5-10.5s10.5,4.7,10.5,10.5v75.9
			C-1885.3,166.5-1890.1,171.3-1895.9,171.3z"/>
	</g>
</g>
<g>
	<g>
		<g>
			<path class="st10" d="M192,356.4c-38.1,4.7-76.2,10.8-113.9,18.4c-6.2,1.3-12.2-1.9-13.3-7.1c-4.9-23.6-9.8-47.2-14.7-70.8
				c-1.1-5.2,3.4-10.5,10.1-11.9c71.2-14.2,143.1-23.6,215.1-28.4c6.7-0.5,12.5,3.6,12.7,8.9c0.3,5.3-4.9,10-11.5,10.4
				c-67.3,4.4-134.3,13-200.7,25.8c3.3,17.3,6.6,34.6,10,52c34.5-6.6,69.1-12.1,103.8-16.4c6.4-0.8,12.1,2.9,12.7,8.2
				C203,350.7,198.3,355.6,192,356.4z"/>
		</g>
		<g>
			<path class="st10" d="M690.5,374.8c-43.8-8.7-87.8-15.6-132.1-20.5c-6.3-0.7-11-5.5-10.4-10.8c0.5-5.3,6.2-9.1,12.6-8.3
				c40.9,4.6,81.7,10.7,122.2,18.5c3.3-17.3,6.6-34.6,10-52c-74.6-14.3-150-23.4-225.5-27.2c-6.6-0.4-11.8-4.9-11.6-10.3
				c0.2-5.3,5.9-9.4,12.6-9.1c80.6,4,160.8,14,240.3,29.9c6.6,1.3,11.2,6.7,10.1,11.9c-4.9,23.6-9.8,47.2-14.7,70.8
				C702.7,372.9,696.7,376,690.5,374.8z"/>
		</g>
		<g>
			<path class="st10" d="M533.8,598.5c-94.6-10.8-190.1-11.3-284.8-1.6c-51.9,5.6-80.9-31.1-89.5-52.1c-0.1-0.2-0.1-0.3-0.2-0.5
				c-20.7-60.6-42.9-120.9-66.4-180.7c-2-4.9,1.4-10.6,7.5-12.6s12.6,0.5,14.6,5.6c22.7,60.1,44,120.6,63.9,181.5
				c1.6,3.7,19.5,45,68.3,39.7c96-9.9,193-9.3,289,1.6c40.2,4.8,58.7-38.5,60.6-43c18-60.1,36.9-119.9,57.1-179.4
				c1.7-5,8.2-7.7,14.3-6c6.2,1.8,9.7,7.4,8,12.5c-21.1,59.4-41.1,119.1-59.8,179c-0.1,0.2-0.2,0.5-0.2,0.6
				C606.9,565,579.1,603.8,533.8,598.5z"/>
		</g>
		<g>
			<path class="st10" d="M393.7,316L393.7,316c-26.8-0.2-51.4-12.6-63.4-32.4c-8.1-13.5-9.3-28.7-3.1-43
				c6.3-14.3,19.4-25.8,37.2-32.3c19.3-7,42.2-6.6,61.1,0.9c83.9-26.9,171.8-47.5,263.2-61c7-1,14.3,2.5,16.3,7.8
				c6.9,17.9,13.6,35.7,19.9,53.6c0.9,2.6,0.5,5.2-1.2,7.3c-1.6,2.1-4.4,3.6-7.6,3.9c-88.5,12-173.8,31.1-255,56.2
				c-6.5,15.5-20.8,28-39.3,34.3C412.7,314.6,403.3,316,393.7,316z M394,222.7c-6.7,0-13.2,1.1-19.3,3.2
				c-11.5,4.1-20.2,11.5-24.5,20.9c-4.2,9.3-3.6,19.3,1.6,28.2c7.7,13.1,24,21.4,41.9,21.5c6.4,0,12.6-1,18.6-3
				c13.5-4.7,23.6-14.3,26.9-26c0.8-3,3.5-5.6,7.1-6.7c79.8-25.2,163.5-44.6,250.4-57.4c-4.2-11.4-8.6-22.7-13.1-34.1
				c-88.2,13.5-173.1,33.6-254.2,59.7c-3.7,1.2-8,0.9-11.4-0.7C410.9,224.8,402.5,222.8,394,222.7z"/>
		</g>
		<g>
			<g>
				<path class="st10" d="M287.4,439.9c-26.6,1.7-53.2,4.2-79.6,7.4c-5.1,0.6-10-2-11.5-6.4c-6-16.4-12.1-32.8-18.2-49.2
					c-1-2.7-0.5-5.8,1.3-8.2s4.9-4.2,8.2-4.7c31.7-4,63.5-7.1,95.3-9.3c6.2-0.5,11.6,3.6,11.9,9c1,17,2,34,3,51
					C298,434.8,293.4,439.4,287.4,439.9z M214.5,427c20.2-2.3,40.4-4.2,60.8-5.7c-0.7-10.5-1.6-21.2-2.3-31.7
					c-23.2,1.7-46.3,3.9-69.3,6.7C207.2,406.5,210.9,416.8,214.5,427z"/>
			</g>
			<g>
				<path class="st10" d="M293.8,536.2c-21.3,1.4-42.5,3.3-63.8,5.7c-4.8,0.5-9.3-2.2-10.8-6.6c-5.6-16.5-11.3-33-17.1-49.4
					c-1-2.7-0.5-5.8,1.2-8.2c1.7-2.5,4.6-4.1,7.7-4.5c26-3.1,52.1-5.6,78.2-7.3c5.9-0.4,10.9,3.7,11.2,9c1,17,2,34.1,3,51
					C303.7,531.2,299.3,535.8,293.8,536.2z M236.2,521.7c15.3-1.6,30.7-3,46-4.1c-0.7-10.5-1.6-21.2-2.3-31.7c-18,1.3-36,3-53.9,4.9
					C229.4,501.1,232.8,511.4,236.2,521.7z"/>
			</g>
			<g>
				<path class="st10" d="M426.1,437.2c-26.6-0.7-53.2-0.8-79.8-0.1c-6,0.2-11-4-11.2-9.3c-0.5-17-1.1-34.1-1.7-51.1
					c-0.2-5.3,4.8-9.8,11-10c27.9-0.7,55.8-0.6,83.7,0.1c6.3,0.2,11.2,4.7,11,10c-0.6,17-1.2,34.1-1.8,51.1
					C437.1,433.3,432.1,437.4,426.1,437.2z M356.7,417.6c19.6-0.4,39.3-0.4,58.9,0.1c0.2-10.6,0.5-21.2,0.6-31.8
					c-20.1-0.5-40.1-0.5-60.2-0.1C356.4,396.3,356.5,407,356.7,417.6z"/>
			</g>
			<g>
				<path class="st10" d="M423.3,533.7c-24.8-0.7-49.8-0.7-74.6-0.1c-5.6,0.2-10.3-4-10.4-9.3c-0.5-17-1.1-34.1-1.7-51.1
					c-0.2-5.3,4.4-9.8,10.4-10c26.1-0.6,52.3-0.6,78.5,0.1c5.9,0.2,10.5,4.7,10.3,10c-0.6,17-1.2,34.1-1.8,51.1
					C433.6,529.8,428.9,533.9,423.3,533.7z M358.6,514.1c18.4-0.4,36.8-0.3,55.2,0.1c0.2-10.6,0.5-21.3,0.6-31.8
					c-18.8-0.4-37.6-0.5-56.4-0.1C358.1,492.9,358.3,503.5,358.6,514.1z"/>
			</g>
			<g>
				<path class="st10" d="M560.8,447.3c-26.5-3.2-53.1-5.7-79.6-7.4c-6-0.4-10.5-4.9-10.3-10.4c1-17,2-34,3-51
					c0.3-5.3,5.6-9.3,11.9-9c31.8,2.1,63.6,5.2,95.3,9.3c3.4,0.5,6.4,2.1,8.2,4.7c1.8,2.5,2.3,5.5,1.3,8.2
					c-6.2,16.4-12.3,32.7-18.2,49.2C570.8,445.2,566,447.8,560.8,447.3z M493.5,421.3c20.3,1.5,40.5,3.4,60.8,5.7
					c3.6-10.3,7.2-20.5,10.9-30.8c-23.1-2.7-46.2-4.9-69.3-6.7C495,400.2,494.2,410.7,493.5,421.3z"/>
			</g>
			<g>
				<path class="st10" d="M538.6,541.9c-21.3-2.4-42.5-4.3-63.8-5.7c-5.6-0.4-9.9-4.9-9.5-10.3c1-17,2-34.1,3-51
					c0.3-5.3,5.3-9.3,11.2-9c26.1,1.7,52.1,4.1,78.2,7.3c3.2,0.4,6,2,7.7,4.5s2.1,5.5,1.2,8.2c-5.9,16.4-11.5,32.9-17.1,49.4
					C548,539.7,543.4,542.4,538.6,541.9z M486.4,517.6c15.4,1.1,30.7,2.5,46,4.1c3.4-10.4,6.8-20.6,10.3-30.9
					c-18-2-35.9-3.7-53.9-4.9C488,496.4,487.1,507,486.4,517.6z"/>
			</g>
		</g>
	</g>
</g>
</svg>
