<?xml version="1.0" encoding="utf-8"?>
<!-- Generator: Adobe Illustrator 22.0.1, SVG Export Plug-In . SVG Version: 6.00 Build 0)  -->
<svg version="1.1" id="Layer_1" xmlns="http://www.w3.org/2000/svg" xmlns:xlink="http://www.w3.org/1999/xlink" x="0px" y="0px"
	 width="768px" height="768px" viewBox="0 0 768 768" style="enable-background:new 0 0 768 768;" xml:space="preserve">
<style type="text/css">
	.st0{fill:#FFFFFF;}
</style>
<g>
	<g>
		<g>
			<path class="st0" d="M472.7,474c-1.9,0-3.8-0.6-5.5-1.8l-88.7-66.6c-2.3-1.7-3.6-4.4-3.6-7.3V288.2c0-5,4.1-9.1,9.1-9.1
				s9.1,4.1,9.1,9.1v105.5l85.1,63.9c4,3,4.8,8.7,1.8,12.7C478.2,472.8,475.5,474,472.7,474z"/>
		</g>
		<g>
			<path class="st0" d="M384,563.8c-91.2,0-165.5-74.2-165.5-165.5S292.8,232.8,384,232.8S549.5,307,549.5,398.3
				S475.2,563.8,384,563.8z M384,251c-81.2,0-147.3,66.1-147.3,147.3S302.8,545.6,384,545.6s147.3-66.1,147.3-147.3
				S465.2,251,384,251z"/>
		</g>
	</g>
	<g>
		<path class="st0" d="M550.7,524.1c-1.8,0-3.6-0.5-5.2-1.7c-4.1-2.9-5.1-8.6-2.2-12.7c23-32.7,35.1-71.3,35.1-111.4
			c0-107.2-87.2-194.4-194.4-194.4c-5,0-9.1-4.1-9.1-9.1s4.1-9.1,9.1-9.1c117.2,0,212.6,95.4,212.6,212.6c0,43.9-13.3,86-38.4,121.9
			C556.4,522.7,553.6,524.1,550.7,524.1z"/>
	</g>
	<g>
		<path class="st0" d="M384,610.9c-117.2,0-212.6-95.4-212.6-212.6c0-96.9,65.4-181.6,159.2-205.8c4.8-1.3,9.8,1.7,11.1,6.5
			c1.3,4.9-1.7,9.8-6.5,11.1c-85.7,22.2-145.5,99.6-145.5,188.2c0,107.2,87.2,194.4,194.4,194.4c46.6,0,91.6-16.7,126.8-47.1
			c3.8-3.3,9.6-2.9,12.8,1c3.3,3.8,2.9,9.6-1,12.8C484.2,592.6,434.9,610.9,384,610.9z"/>
	</g>
	<g>
		<g>
			<path class="st0" d="M587,259.6c-2.8,0-5.6-1.3-7.4-3.7c-24-32.9-56.1-59.5-92.9-76.7c-3.9-1.8-6-6.1-5-10.3
				c8.4-35.9,40-60.9,76.8-60.9c43.5,0,78.9,35.4,78.9,78.9c0,31-18.3,59.3-46.7,72C589.5,259.4,588.2,259.6,587,259.6z
				 M501.5,166.1c34.3,17.4,64.5,42.3,88.1,72.8c18.2-10.9,29.6-30.6,29.6-52.1c0-33.5-27.2-60.7-60.7-60.7
				C532.6,126.1,510.1,142.2,501.5,166.1z"/>
		</g>
		<g>
			<path class="st0" d="M181,259.6c-1.3,0-2.5-0.3-3.7-0.8c-28.4-12.7-46.7-41-46.7-72c0-43.5,35.4-78.9,78.9-78.9
				c36.8,0,68.4,25.1,76.8,60.9c1,4.2-1.1,8.5-5,10.3c-36.8,17.3-68.9,43.8-92.9,76.7C186.6,258.3,183.8,259.6,181,259.6z
				 M209.5,126.1c-33.5,0-60.7,27.2-60.7,60.7c0,21.5,11.4,41.2,29.6,52.1c23.6-30.4,53.9-55.4,88.1-72.8
				C257.9,142.2,235.4,126.1,209.5,126.1z"/>
		</g>
	</g>
	<g>
		<g>
			<path class="st0" d="M237.9,660.1c-5.3,0-10.5-1.2-15.4-3.4c-18.2-8.5-26.1-30.2-17.6-48.4c0.2-0.4,0.4-0.7,0.6-1l38.1-59.6
				c2.7-4.2,8.3-5.5,12.6-2.8c4.2,2.7,5.5,8.3,2.8,12.6l-37.7,59c-3.9,9,0.1,19.5,9,23.7c4.4,2.1,9.4,2.3,13.9,0.6
				c4.6-1.7,8.2-5,10.3-9.4c0.2-0.4,0.4-0.9,0.7-1.3l32.5-47.9l1.7-3.6c2.1-4.6,7.5-6.5,12.1-4.4s6.5,7.5,4.4,12.1l-2,4.2
				c-0.2,0.4-0.4,0.9-0.7,1.3l-32.5,47.9c-4.2,8.5-11.3,14.9-20.2,18.1C246.2,659.3,242,660.1,237.9,660.1z"/>
		</g>
		<g>
			<g>
				<path class="st0" d="M530.1,660.1c-4.2,0-8.4-0.7-12.4-2.2c-8.9-3.2-16.1-9.6-20.2-18.1L465,591.9c-0.3-0.4-0.5-0.8-0.7-1.3
					l-2-4.2c-2.1-4.6-0.2-10,4.4-12.1s10-0.2,12.1,4.4l1.7,3.6l32.5,47.8c0.3,0.4,0.5,0.8,0.7,1.3c2.1,4.4,5.7,7.7,10.3,9.4
					s9.5,1.4,13.9-0.6c8.9-4.2,12.9-14.7,9-23.7l-35.8-55c-0.2-0.4-0.4-0.7-0.6-1.1l-1.9-4c-2.1-4.6-0.2-10,4.4-12.1
					c4.6-2.1,10-0.2,12.1,4.4l1.6,3.4l35.9,55c0.2,0.4,0.4,0.7,0.6,1.1c8.5,18.2,0.6,39.9-17.6,48.4
					C540.6,658.9,535.4,660.1,530.1,660.1z"/>
			</g>
		</g>
	</g>
	<g>
		<path class="st0" d="M429.1,134.8H339c-5,0-9.1-4.1-9.1-9.1s4.1-9.1,9.1-9.1h90.1c5,0,9.1,4.1,9.1,9.1
			C438.2,130.7,434.1,134.8,429.1,134.8z"/>
	</g>
	<g>
		<path class="st0" d="M384,200.3c-5,0-9.1-4.1-9.1-9.1v-65.5c0-5,4.1-9.1,9.1-9.1s9.1,4.1,9.1,9.1v65.5
			C393.1,196.2,389,200.3,384,200.3z"/>
	</g>
</g>
</svg>
