<?xml version="1.0" encoding="utf-8"?>
<!-- Generator: Adobe Illustrator 22.0.1, SVG Export Plug-In . SVG Version: 6.00 Build 0)  -->
<svg version="1.1" id="Layer_1" xmlns="http://www.w3.org/2000/svg" xmlns:xlink="http://www.w3.org/1999/xlink" x="0px" y="0px"
	 width="768px" height="768px" viewBox="0 0 768 768" style="enable-background:new 0 0 768 768;" xml:space="preserve">
<style type="text/css">
	.st0{fill:#FFFFFF;}
</style>
<g>
	<g>
		<path class="st0" d="M380.6,703.9c-1.5,0-3.1-0.3-4.5-1L188,613.3c-4.2-2-6.6-6.5-5.9-11.1c0.4-2.7,10.7-66.9,41.7-130
			c12.6-25.6,26.9-47.6,42.7-65.2c3.9-4.3,10.5-4.7,14.9-0.9c4.3,3.9,4.7,10.5,0.9,14.9c-14.5,16.2-27.7,36.6-39.5,60.5
			c-23.5,47.9-34.7,97.6-38.4,116.3l176.3,83.9l182.9-84c-6.5-30.2-33.8-138.9-98.4-193.4c-4.4-3.8-5-10.4-1.3-14.9
			c3.8-4.5,10.4-5,14.9-1.3c81,68.4,106.1,207.9,107.2,213.8c0.8,4.7-1.6,9.4-6,11.4l-195,89.6C383.6,703.5,382.1,703.9,380.6,703.9
			z"/>
	</g>
	<g>
		<path class="st0" d="M380.6,399.8c-54.8,0-101.7-62.2-119.6-123.7c-1.6-5.6,1.6-11.4,7.2-13.1c5.6-1.6,11.4,1.6,13.1,7.2
			c15.4,52.6,55.4,108.5,99.4,108.5c56.6,0,103.4-89,106.2-146.7c0.3-5.8,5.1-10.3,11-10c5.8,0.3,10.3,5.2,10,11
			C504.6,299.4,452.3,399.8,380.6,399.8z"/>
	</g>
	<g>
		<path class="st0" d="M247.3,286.4c-4.5,0-8.5-2.9-10-7.2c-4.4-12.9-9-35.3-9-59.1c0-86,70-156,155.9-156
			c81.4,0,149.7,63.6,155.5,144.8c0.1,1.9-0.2,3.8-1.1,5.5c-16.3,32.4-88.7,40.8-96.9,41.7c-3.5,0.4-6.9-1-9.1-3.6
			c-2.3-2.6-3.1-6.2-2.2-9.6c0-0.1,2.8-10.7,4.3-30.1c-0.5,0.5-1,0.9-1.5,1.4c-44,38.4-134.1,69.8-185.4,72.4
			C247.6,286.4,247.5,286.4,247.3,286.4z M384.2,85.2c-74.4,0-134.9,60.5-134.9,134.9c0,16.9,2.7,33.2,5.6,44.6
			c48-5,126.4-33.5,164.3-66.5c8.6-7.5,14.4-14.6,17.2-21.2c2-4.6,6.9-7.2,11.7-6.2c4.9,1,8.4,5.2,8.5,10.2
			c0.1,9.7-0.1,19.3-0.7,28.4c-0.6,9.6-1.5,17.5-2.4,23.7c25.5-4.4,55.8-13.7,64.7-26C511.8,138.5,453.5,85.2,384.2,85.2z"/>
	</g>
</g>
</svg>
