<?xml version="1.0" encoding="utf-8"?>
<!-- Generator: Adobe Illustrator 22.0.1, SVG Export Plug-In . SVG Version: 6.00 Build 0)  -->
<svg version="1.1" id="Layer_1" xmlns="http://www.w3.org/2000/svg" xmlns:xlink="http://www.w3.org/1999/xlink" x="0px" y="0px"
	 width="768px" height="768px" viewBox="0 0 768 768" style="enable-background:new 0 0 768 768;" xml:space="preserve">
<style type="text/css">
	.st0{fill:#FFFFFF;}
</style>
<g>
	<g>
		<g>
			<path class="st0" d="M599.7,663.8H168.3c-29.1,0-52.7-23.6-52.7-52.7V178.7c0-28.6,23.6-51.9,52.7-51.9h431.5
				c29.1,0,52.7,23.6,52.7,52.7V611C652.5,640.2,628.8,663.8,599.7,663.8z M168.3,148c-17.4,0-31.6,13.8-31.6,30.8v432.4
				c0,17.4,14.2,31.6,31.6,31.6h431.5c17.4,0,31.6-14.2,31.6-31.6V179.6c0-17.4-14.2-31.6-31.6-31.6H168.3z"/>
		</g>
		<g>
			<path class="st0" d="M641.9,237.4H126.1c-5.8,0-10.5-4.7-10.5-10.5s4.7-10.5,10.5-10.5h515.8c5.8,0,10.5,4.7,10.5,10.5
				C652.5,232.6,647.7,237.4,641.9,237.4z"/>
		</g>
		<g>
			<g>
				<path class="st0" d="M211.9,174.9c-5.8,0-10.5-4.7-10.5-10.5v-55.7c0-5.8,4.7-10.5,10.5-10.5s10.5,4.7,10.5,10.5v55.7
					C222.5,170.2,217.8,174.9,211.9,174.9z"/>
			</g>
			<g>
				<path class="st0" d="M556.1,174.9c-5.8,0-10.5-4.7-10.5-10.5v-55.7c0-5.8,4.7-10.5,10.5-10.5s10.5,4.7,10.5,10.5v55.7
					C566.6,170.2,561.9,174.9,556.1,174.9z"/>
			</g>
		</g>
	</g>
	<g>
		<path class="st0" d="M370.3,526.4L370.3,526.4c-2.8,0-5.5-1.1-7.5-3.1L243.2,402.8c-4.1-4.1-4.1-10.8,0.1-14.9
			c4.1-4.1,10.8-4.1,14.9,0.1l112.2,113l178.3-178.2c4.1-4.1,10.8-4.1,14.9,0c4.1,4.1,4.1,10.8,0,14.9L377.8,523.3
			C375.8,525.3,373.1,526.4,370.3,526.4z"/>
	</g>
</g>
</svg>
