<?xml version="1.0" encoding="utf-8"?>
<!-- Generator: Adobe Illustrator 22.0.1, SVG Export Plug-In . SVG Version: 6.00 Build 0)  -->
<svg version="1.1" id="Layer_1" xmlns="http://www.w3.org/2000/svg" xmlns:xlink="http://www.w3.org/1999/xlink" x="0px" y="0px"
	 width="768px" height="768px" viewBox="0 0 768 768" style="enable-background:new 0 0 768 768;" xml:space="preserve">
<style type="text/css">
	.st0{fill:#FFFFFF;}
</style>
<g>
	<g>
		<g>
			<path class="st0" d="M383.7,320.5c-5,0-10.1-0.4-15.2-1.1c-44.7-6.3-80.6-40.4-89.4-84.7c-1-5.2,2.4-10.3,7.6-11.3
				s10.3,2.4,11.3,7.6c7.2,36.3,36.6,64.2,73.2,69.4c23,3.3,45.9-2.6,64.5-16.6s30.6-34.4,33.9-57.5c6.8-47.6-26.4-91.8-74-98.6
				c-36.4-5.2-72.3,13.2-89.3,45.7c-2.5,4.7-8.3,6.5-13,4.1c-4.7-2.5-6.5-8.3-4.1-13c20.8-39.7,64.7-62.2,109.1-55.9
				c58,8.2,98.5,62.2,90.3,120.3c-4,28.1-18.7,53.1-41.4,70.1C428.7,313.2,406.6,320.5,383.7,320.5z"/>
		</g>
	</g>
	<g>
		<path class="st0" d="M384,586.6c-3.3,0-6.3-1.7-8.1-4.4c-7-10.9-170.5-267.8-170.5-362.9c0-98.6,80.1-178.8,178.6-178.8
			c83.6,0,155.2,56.9,174,138.4c3,13.2,4.6,26.8,4.6,40.4c0,8.4-1.3,18.4-3.7,29.6c-6.8,30.6-23,72.4-48.4,124.2
			C461,474,392.8,581.1,392.1,582.2C390.3,584.9,387.3,586.6,384,586.6z M384,59.7c-87.9,0-159.3,71.6-159.3,159.6
			c0,78.1,125.8,285.7,159.3,339.6c19.5-31.4,70.3-114.8,109.2-194.3c24.7-50.5,40.5-90.8,46.9-119.9c2.2-9.8,3.3-18.4,3.3-25.4
			c0-12.2-1.4-24.3-4.1-36.1C522.5,110.5,458.6,59.7,384,59.7z"/>
	</g>
	<g>
		<g>
			<path class="st0" d="M215.2,727.6c-4,0-7.8-2.5-9.1-6.5c-1.7-5,1-10.5,6-12.2l337.7-114c5-1.7,10.5,1,12.2,6s-1,10.5-6,12.2
				l-337.7,114C217.3,727.4,216.3,727.6,215.2,727.6z"/>
		</g>
		<g>
			<path class="st0" d="M553,727.6c-1,0-2.1-0.2-3.1-0.5L212.2,613c-5-1.7-7.7-7.2-6-12.2s7.1-7.7,12.2-6l337.6,114
				c5,1.7,7.7,7.2,6,12.2C560.7,725,557,727.6,553,727.6z"/>
		</g>
	</g>
</g>
</svg>
