<?xml version="1.0" standalone="no"?>
<!DOCTYPE svg PUBLIC "-//W3C//DTD SVG 1.1//EN" "http://www.w3.org/Graphics/SVG/1.1/DTD/svg11.dtd" >
<svg xmlns="http://www.w3.org/2000/svg" xmlns:xlink="http://www.w3.org/1999/xlink" version="1.1">
<metadata>
Created by FontForge 20161116 at Tue Jul 18 18:50:28 2017
 By Jimmy Wärting

</metadata>
<defs>
<font id="MrEavesXLModOT-LightItalic" horiz-adv-x="472" >
  <font-face 
    font-family="MrEavesXLModOTLight"
    font-weight="300"
    font-style="italic"
    font-stretch="normal"
    units-per-em="1000"
    panose-1="2 11 3 3 6 5 2 9 2 2"
    ascent="800"
    descent="-200"
    x-height="432"
    cap-height="600"
    bbox="-147 -222.11 839.305 846"
    underline-thickness="30"
    underline-position="-100"
    slope="-12"
    stemh="32"
    stemv="34"
    unicode-range="U+0010-FB02"
  />
<missing-glyph horiz-adv-x="500" 
 />
    <glyph glyph-name="fi" unicode="fi" horiz-adv-x="386" 
d="M295 606l-5 -28c-4 1 -15 3 -22 3c-52 0 -91 -14 -114 -129l-4 -20h114l-5 -28h-114l-71 -404h-33l71 404h-82l4 28h83l4 20c25 125 73 159 146 159c9 0 21 -2 28 -5zM389 600l-9 -54h-33l9 54h33zM359 432l-76 -432h-33l76 432h33z" />
    <glyph glyph-name="fl" unicode="fl" horiz-adv-x="385" 
d="M391 609l-108 -609h-33l102 573c-21 8 -48 11 -67 11c-69 0 -113 -33 -132 -136l-3 -16h114l-5 -28h-114l-71 -404h-33l71 404h-82l4 28h83l3 16c22 118 82 163 168 163c22 0 48 -5 69 -11z" />
    <glyph glyph-name=".notdef" horiz-adv-x="500" 
 />
    <glyph glyph-name="DLE" horiz-adv-x="453" 
d="M447 452l-89 -77c16 -24 24 -54 21 -87c-4 -36 -21 -69 -47 -93l56 -70l-19 -16l-57 70c-25 -18 -56 -29 -88 -29c-34 0 -65 14 -87 36c-16 -14 -90 -78 -90 -78l-15 19l89 77c-16 24 -25 54 -21 87c4 36 21 68 46 93c-10 13 -56 70 -56 70l20 16l56 -70
c26 19 57 29 88 29c35 0 66 -13 88 -35l89 77zM253 406c-64 0 -122 -52 -129 -117c-6 -64 38 -115 103 -115c64 0 122 51 128 115c6 65 -38 117 -102 117z" />
    <glyph glyph-name="space" unicode=" " horiz-adv-x="152" 
 />
    <glyph glyph-name="exclam" unicode="!" horiz-adv-x="186" 
d="M181 600l-85 -435h-24l69 435h40zM87 48l-8 -48h-49l9 48h48z" />
    <glyph glyph-name="quotedbl" unicode="&#x22;" horiz-adv-x="282" 
d="M283 600l-38 -157h-19l18 157h39zM172 600l-39 -157h-19l18 157h40z" />
    <glyph glyph-name="numbersign" unicode="#" horiz-adv-x="373" 
d="M395 462l-8 -26h-65l-56 -177h66l-8 -26h-66l-43 -139h-25l43 139h-119l-43 -139h-25l43 139h-67l9 26h65l56 177h-67l8 26h66l43 138h25l-43 -138h120l42 138h26l-43 -138h66zM296 436h-119l-56 -177h120z" />
    <glyph glyph-name="dollar" unicode="$" horiz-adv-x="414" 
d="M264 573c-74 -1 -131 -39 -141 -103c-9 -61 17 -110 99 -136zM190 29c77 0 137 43 148 120c9 64 -12 112 -101 147zM162 -1c-67 6 -110 39 -138 68l12 32c26 -28 67 -63 132 -69l48 273c-98 27 -136 90 -125 169c11 76 84 130 178 131l14 80h22l-14 -81
c48 -5 90 -29 106 -44l-10 -29c-17 16 -54 38 -102 43l-42 -244c108 -38 137 -98 127 -180c-13 -101 -93 -150 -186 -150l-14 -81h-22z" />
    <glyph glyph-name="percent" unicode="%" horiz-adv-x="607" 
d="M548 129c-11 -89 -67 -141 -127 -141c-57 0 -106 52 -95 141c10 90 68 142 127 142c56 0 105 -52 95 -142zM544 606l-439 -624l-16 12l439 624zM520 129c8 68 -21 117 -69 117c-49 0 -89 -49 -97 -117s20 -116 69 -116s89 48 97 116zM310 471c-11 -89 -67 -141 -127 -141
c-57 0 -106 52 -95 141c10 90 68 142 127 142c56 0 105 -52 95 -142zM282 471c8 68 -21 117 -69 117c-49 0 -89 -49 -97 -117s20 -116 69 -116s89 48 97 116z" />
    <glyph glyph-name="ampersand" unicode="&#x26;" horiz-adv-x="597" 
d="M570 29c-27 -30 -57 -43 -86 -43c-48 0 -84 23 -126 69c-39 -44 -89 -69 -150 -69c-94 0 -183 53 -171 170c7 72 70 121 140 164c-25 50 -35 101 -29 155c8 80 77 139 163 139c78 0 128 -50 121 -114c-10 -95 -138 -143 -215 -189c51 -87 102 -162 143 -210
c29 41 47 97 60 194h116l-3 -28h-88c-15 -90 -33 -142 -66 -187c42 -46 71 -67 113 -67c21 0 45 8 66 31zM399 500c6 53 -33 87 -90 87c-69 0 -122 -48 -128 -111c-6 -52 2 -96 24 -141c87 50 186 90 194 165zM340 75c-42 49 -97 130 -150 221c-59 -38 -113 -79 -120 -141
c-10 -95 61 -141 143 -141c51 0 94 22 127 61z" />
    <glyph glyph-name="quotesingle" unicode="'" horiz-adv-x="169" 
d="M172 600l-39 -157h-19l18 157h40z" />
    <glyph glyph-name="parenleft" unicode="(" horiz-adv-x="264" 
d="M326 689c-60 -59 -180 -198 -215 -394c-35 -198 36 -338 74 -396l-12 -10c-61 75 -124 213 -91 406c34 192 147 331 234 406z" />
    <glyph glyph-name="parenright" unicode=")" horiz-adv-x="264" 
d="M210 295c-34 -192 -147 -331 -234 -406l-10 12c61 59 180 198 215 394c35 198 -36 338 -74 396l12 10c61 -75 125 -213 91 -406z" />
    <glyph glyph-name="asterisk" unicode="*" horiz-adv-x="351" 
d="M213 420c-8 -80 -5 -125 -7 -145c-1 -15 -8 -26 -21 -26c-12 0 -17 12 -15 27c3 26 22 66 33 146c-73 -33 -109 -57 -128 -66c-14 -6 -27 -6 -33 5s2 21 16 27c24 11 67 14 141 44c-64 46 -105 66 -121 78c-11 8 -18 20 -12 31s19 9 31 0c21 -16 46 -52 109 -101
c8 80 5 125 7 145c2 15 8 26 21 26c12 0 17 -12 15 -27c-3 -26 -22 -66 -33 -146c74 34 112 58 131 67c14 6 26 6 33 -5s-2 -21 -16 -27c-24 -11 -68 -14 -144 -45c67 -46 107 -67 123 -79c12 -9 19 -20 12 -31s-19 -9 -31 0c-21 16 -47 53 -111 102z" />
    <glyph glyph-name="plus" unicode="+" horiz-adv-x="380" 
d="M358 302l-5 -26h-139l-26 -145h-26l25 145h-139l6 26h139l25 145h26l-25 -145h139z" />
    <glyph glyph-name="comma" unicode="," horiz-adv-x="179" 
d="M82 48l-7 -44c-10 -58 -34 -95 -76 -113l-8 13c33 18 53 53 58 96h-23l8 48h48z" />
    <glyph glyph-name="hyphen" unicode="-" horiz-adv-x="246" 
d="M209 265l-4 -30h-156l4 30h156z" />
    <glyph glyph-name="period" unicode="." horiz-adv-x="179" 
d="M82 48l-8 -48h-48l8 48h48z" />
    <glyph glyph-name="slash" unicode="/" horiz-adv-x="271" 
d="M348 608l-377 -626l-18 10l377 626z" />
    <glyph glyph-name="zero" unicode="0" horiz-adv-x="509" 
d="M478 300c-26 -197 -129 -314 -251 -314c-121 0 -195 117 -169 314c26 195 130 314 251 314c122 0 195 -119 169 -314zM444 300c26 184 -34 283 -136 283c-101 0 -190 -99 -216 -283c-26 -185 35 -283 136 -283c102 0 190 98 216 283z" />
    <glyph glyph-name="one" unicode="1" horiz-adv-x="224" 
d="M93 0h-34l100 566l-64 -8l4 25l101 25z" />
    <glyph glyph-name="two" unicode="2" horiz-adv-x="411" 
d="M393 445c-12 -105 -79 -170 -131 -216l-221 -198h291l-4 -31h-336l1 25l235 213c47 43 120 110 131 207c11 101 -52 139 -121 139c-44 0 -101 -21 -147 -55l5 34c31 25 92 52 147 52c96 0 162 -62 150 -170z" />
    <glyph glyph-name="three" unicode="3" horiz-adv-x="436" 
d="M447 580l-261 -228c18 5 39 8 59 7c95 -8 149 -85 138 -178c-14 -120 -108 -195 -219 -195c-56 0 -114 23 -144 51l5 35c31 -30 80 -55 142 -55c93 0 171 61 182 164c11 93 -45 152 -129 152c-42 0 -72 -13 -91 -28l-14 19l278 245h-285l4 31h336z" />
    <glyph glyph-name="four" unicode="4" horiz-adv-x="473" 
d="M443 191l-5 -30h-106l-28 -161h-33l28 161h-281l3 23l369 425h22l-75 -418h106zM367 542l-304 -351h241z" />
    <glyph glyph-name="five" unicode="5" horiz-adv-x="428" 
d="M434 600l-5 -31h-271l-45 -251c35 38 80 51 119 51c92 0 164 -68 150 -185c-14 -120 -108 -198 -220 -198c-56 0 -114 23 -144 51l5 35c33 -31 81 -55 142 -55c89 0 171 62 183 167c11 93 -39 156 -125 156c-62 0 -103 -35 -128 -74l-21 8l58 326h302z" />
    <glyph glyph-name="six" unicode="6" 
d="M465 582l-4 -32c-25 19 -67 33 -112 33c-126 0 -225 -101 -255 -284c-3 -16 -4 -24 -6 -41c28 62 98 113 177 113c110 0 176 -84 162 -196c-13 -114 -101 -189 -204 -189c-92 0 -194 65 -168 279c26 223 141 349 298 349c47 0 93 -16 112 -32zM393 177
c10 95 -38 164 -132 164c-82 0 -161 -62 -172 -156c-10 -95 45 -170 134 -170c87 0 160 63 170 162z" />
    <glyph glyph-name="seven" unicode="7" horiz-adv-x="396" 
d="M432 581c-67 -84 -254 -382 -327 -581h-39c78 201 257 483 322 569h-310l5 31h352z" />
    <glyph glyph-name="eight" unicode="8" horiz-adv-x="483" 
d="M449 475c-5 -73 -62 -129 -137 -145c70 -22 119 -76 113 -162c-7 -111 -101 -182 -213 -182c-102 0 -185 67 -178 169s90 168 177 180c-51 19 -89 65 -85 129c6 93 87 151 175 151c83 0 154 -53 148 -140zM416 473c6 73 -48 113 -116 113c-70 0 -136 -44 -141 -122
c-5 -71 50 -118 116 -118c67 0 136 51 141 127zM243 314c-81 0 -169 -58 -176 -156c-8 -90 64 -142 149 -142c84 0 169 55 176 151c8 92 -63 147 -149 147z" />
    <glyph glyph-name="nine" unicode="9" 
d="M33 19l4 32c25 -19 67 -33 112 -33c126 0 225 101 255 284c3 16 4 24 6 41c-28 -62 -98 -113 -177 -113c-110 0 -175 84 -162 196c13 114 101 189 204 189c92 0 193 -66 168 -279c-26 -223 -141 -349 -298 -349c-47 0 -93 16 -112 32zM105 424c-10 -95 38 -164 132 -164
c82 0 162 62 172 156c10 95 -45 170 -134 170c-87 0 -160 -63 -170 -162z" />
    <glyph glyph-name="colon" unicode=":" horiz-adv-x="179" 
d="M148 424l-8 -48h-48l8 48h48zM82 48l-8 -48h-48l8 48h48z" />
    <glyph glyph-name="semicolon" unicode=";" horiz-adv-x="179" 
d="M148 424l-8 -48h-48l8 48h48zM82 48l-7 -44c-10 -58 -34 -95 -76 -113l-8 13c33 18 53 53 58 96h-23l8 48h48z" />
    <glyph glyph-name="less" unicode="&#x3c;" horiz-adv-x="383" 
d="M379 490l-277 -202l205 -201l-16 -17l-227 220l304 220z" />
    <glyph glyph-name="equal" unicode="=" horiz-adv-x="378" 
d="M338 380l-4 -26h-241l5 26h240zM311 226l-5 -26h-240l5 26h240z" />
    <glyph glyph-name="greater" unicode="&#x3e;" horiz-adv-x="383" 
d="M343 290l-304 -220l-11 20l277 202l-205 201l16 17z" />
    <glyph glyph-name="question" unicode="?" horiz-adv-x="376" 
d="M140 48l-8 -48h-49l9 48h48zM394 468c-10 -88 -79 -142 -165 -184l-62 -30l-16 -89h-29l19 107l66 33c87 43 145 88 153 162c9 83 -56 116 -129 116c-53 0 -122 -27 -163 -63l4 35c39 32 106 59 164 59c88 0 169 -45 158 -146z" />
    <glyph glyph-name="at" unicode="@" horiz-adv-x="662" 
d="M649 265c-11 -130 -122 -244 -205 -244c-39 0 -57 25 -61 55c-22 -32 -64 -59 -102 -59c-83 0 -114 83 -87 183s116 181 198 181c27 0 42 -5 62 -16l28 -1l-68 -255c-9 -37 4 -67 40 -67c69 0 161 104 172 222c13 143 -90 243 -229 243c-177 0 -332 -152 -348 -328
c-15 -166 105 -287 266 -287c71 0 147 20 222 68l8 -15c-83 -55 -164 -73 -234 -73c-177 0 -306 134 -291 306c17 191 186 351 377 351c154 0 266 -108 252 -264zM449 340c-17 11 -31 19 -59 19c-71 0 -145 -72 -168 -161c-22 -87 -2 -157 67 -157c43 0 92 44 103 82z" />
    <glyph glyph-name="A" unicode="A" horiz-adv-x="524" 
d="M467 0h-34l-37 179h-281l-100 -179h-37l338 600h26zM389 209l-69 337l-188 -337h257z" />
    <glyph glyph-name="B" unicode="B" horiz-adv-x="442" 
d="M271 600c112 0 153 -67 143 -149c-7 -58 -42 -117 -110 -133c82 -11 114 -84 105 -153c-11 -89 -69 -165 -190 -165h-193l106 600h139zM252 300h-139l-47 -269h154c102 0 146 67 155 134c8 67 -19 135 -123 135zM380 451c8 63 -15 118 -110 118h-109l-43 -238h122
c94 0 132 58 140 120z" />
    <glyph glyph-name="C" unicode="C" horiz-adv-x="543" 
d="M548 556l-5 -36c-42 35 -102 61 -175 61c-138 0 -263 -104 -283 -278c-21 -174 79 -284 219 -284c73 0 138 26 189 61l-5 -38c-50 -33 -121 -55 -189 -55c-152 0 -271 119 -248 316c24 197 165 310 321 310c68 0 135 -23 176 -57z" />
    <glyph glyph-name="D" unicode="D" horiz-adv-x="558" 
d="M535 296c-25 -165 -131 -296 -348 -296h-161l106 600h143c218 0 285 -139 260 -304zM272 568h-111l-96 -536h125c202 0 291 129 311 264c22 145 -26 272 -229 272z" />
    <glyph glyph-name="E" unicode="E" horiz-adv-x="417" 
d="M438 600l-5 -31h-272l-43 -238h225l-6 -31h-224l-47 -269h272l-6 -31h-306l106 600h306z" />
    <glyph glyph-name="F" unicode="F" horiz-adv-x="381" 
d="M438 600l-5 -31h-272l-43 -238h225l-6 -31h-224l-53 -300h-34l106 600h306z" />
    <glyph glyph-name="G" unicode="G" horiz-adv-x="594" 
d="M551 557l-5 -37c-42 35 -101 61 -174 61c-142 0 -267 -104 -287 -278c-21 -173 79 -284 223 -284c63 0 108 16 163 46l32 179h-119l6 31h152l-40 -229c-43 -20 -100 -59 -198 -59c-156 0 -276 119 -253 316c24 197 167 311 325 311c68 0 134 -23 175 -57z" />
    <glyph glyph-name="H" unicode="H" horiz-adv-x="558" 
d="M560 600l-106 -600h-34l53 301h-360l-53 -301h-34l106 600h34l-48 -268h361l47 268h34z" />
    <glyph glyph-name="I" unicode="I" horiz-adv-x="164" 
d="M166 600l-106 -600h-34l106 600h34z" />
    <glyph glyph-name="J" unicode="J" horiz-adv-x="164" 
d="M166 600l-119 -677c-12 -68 -41 -121 -111 -121c-28 0 -51 15 -57 23l4 29c11 -11 33 -22 51 -22c38 0 65 16 80 98l118 670h34z" />
    <glyph glyph-name="K" unicode="K" horiz-adv-x="469" 
d="M493 600l-342 -303l272 -297h-43l-268 293l-52 -293h-34l106 600h34l-53 -298l337 298h43z" />
    <glyph glyph-name="L" unicode="L" horiz-adv-x="381" 
d="M338 31l-6 -31h-306l106 600h34l-100 -569h272z" />
    <glyph glyph-name="M" unicode="M" horiz-adv-x="678" 
d="M574 0h-33l95 537s-50 -84 -62 -104l-261 -433h-27l-109 433c-6 22 -24 104 -24 104l-95 -537h-32l106 600h36l139 -555l336 555h37z" />
    <glyph glyph-name="N" unicode="N" horiz-adv-x="544" 
d="M546 600l-106 -600h-20l-267 528l-93 -528h-34l106 600h20l267 -528l93 528h34z" />
    <glyph glyph-name="O" unicode="O" horiz-adv-x="657" 
d="M634 300c-20 -187 -163 -314 -325 -314c-163 0 -279 127 -259 314c20 186 162 314 325 314c162 0 279 -128 259 -314zM600 300c20 173 -87 282 -226 282c-141 0 -270 -109 -290 -282s85 -282 226 -282c139 0 270 109 290 282z" />
    <glyph glyph-name="P" unicode="P" horiz-adv-x="415" 
d="M436 419c-12 -91 -71 -172 -188 -172h-144l-44 -247h-34l106 600h159c117 0 158 -89 145 -181zM402 419c11 75 -16 150 -117 150h-124l-52 -291h141c99 0 142 73 152 141z" />
    <glyph glyph-name="Q" unicode="Q" horiz-adv-x="657" 
d="M600 300c20 173 -87 282 -226 282c-141 0 -270 -109 -290 -282s85 -282 226 -282c139 0 270 109 290 282zM347 -12l24 -60c29 -70 61 -97 113 -97c12 0 19 1 30 4l-2 -29c-12 -3 -23 -5 -37 -5c-63 0 -104 36 -136 113l-29 72c-165 0 -280 127 -260 314
c20 186 162 314 325 314c162 0 279 -128 259 -314c-18 -172 -141 -293 -287 -312z" />
    <glyph glyph-name="R" unicode="R" horiz-adv-x="467" 
d="M436 425c-11 -83 -65 -155 -163 -165l133 -260h-38l-132 258h-130l-46 -258h-34l106 600h157c117 0 159 -85 147 -175zM402 425c11 71 -19 144 -117 144h-124l-50 -280h139c101 0 142 68 152 136z" />
    <glyph glyph-name="S" unicode="S" horiz-adv-x="414" 
d="M403 568l-10 -29c-20 18 -69 44 -127 44c-79 0 -141 -43 -151 -110c-9 -62 19 -112 105 -138c130 -38 167 -103 155 -190c-14 -102 -98 -159 -195 -159c-84 0 -137 37 -169 70l12 33c31 -32 79 -72 160 -72c82 0 147 50 158 129c9 72 -18 123 -136 159
c-98 29 -136 92 -124 170c12 79 90 139 190 139c57 0 113 -28 132 -46z" />
    <glyph glyph-name="T" unicode="T" horiz-adv-x="463" 
d="M519 600l-5 -31h-204l-101 -569h-34l101 569h-204l5 31h442z" />
    <glyph glyph-name="U" unicode="U" horiz-adv-x="585" 
d="M587 600l-57 -321c-35 -200 -128 -293 -268 -293c-137 0 -222 92 -187 293l57 321h34l-57 -322c-32 -181 38 -260 155 -260c113 0 200 81 232 260l57 322h34z" />
    <glyph glyph-name="V" unicode="V" horiz-adv-x="524" 
d="M573 600l-337 -600h-26l-125 600h34l113 -544l304 544h37z" />
    <glyph glyph-name="W" unicode="W" horiz-adv-x="777" 
d="M826 600l-291 -600h-25l-67 534l-254 -534h-25l-79 600h34l69 -533l254 533h24l67 -533l256 533h37z" />
    <glyph glyph-name="X" unicode="X" horiz-adv-x="478" 
d="M519 600l-245 -295l150 -305h-37l-136 280l-234 -280h-42l259 311l-142 289h37l129 -265l219 265h42z" />
    <glyph glyph-name="Y" unicode="Y" horiz-adv-x="486" 
d="M537 600l-274 -360l-42 -240h-34l42 240l-145 360h35l131 -327l248 327h39z" />
    <glyph glyph-name="Z" unicode="Z" horiz-adv-x="433" 
d="M460 578l-413 -547h316l-5 -31h-359l3 22l413 547h-317l5 31h359z" />
    <glyph glyph-name="bracketleft" unicode="[" horiz-adv-x="259" 
d="M302 678l-4 -21h-92l-128 -724h92l-4 -21h-120l136 766h120z" />
    <glyph glyph-name="backslash" unicode="\" horiz-adv-x="271" 
d="M240 -10l-20 -7l-159 629l20 7z" />
    <glyph glyph-name="bracketright" unicode="]" horiz-adv-x="259" 
d="M242 678l-136 -766h-120l4 21h92l128 724h-92l4 21h120z" />
    <glyph glyph-name="asciicircum" unicode="^" horiz-adv-x="414" 
d="M417 295l-20 -10l-124 286l-226 -286l-18 13l250 320z" />
    <glyph glyph-name="underscore" unicode="_" horiz-adv-x="283" 
d="M247 0l-4 -21h-288l4 21h288z" />
    <glyph glyph-name="grave" unicode="`" horiz-adv-x="294" 
d="M260 517l-9 -12l-128 87l19 25z" />
    <glyph glyph-name="a" unicode="a" horiz-adv-x="499" 
d="M404 216c16 123 -50 198 -143 198s-178 -76 -193 -198c-16 -123 48 -198 141 -198c97 0 181 80 195 198zM474 432l-53 -300c-9 -50 -14 -101 -14 -132h-33c0 29 4 66 9 95c-33 -60 -102 -107 -179 -107c-115 0 -187 96 -169 230c17 135 116 226 228 226
c79 0 144 -53 156 -128l26 116h29z" />
    <glyph glyph-name="b" unicode="b" horiz-adv-x="499" 
d="M25 0l106 600h33l-47 -262c32 59 101 106 178 106c115 0 186 -96 169 -230c-17 -135 -116 -226 -228 -226c-79 0 -144 53 -156 128l-26 -116h-29zM95 216c-16 -123 50 -198 143 -198s177 76 193 198c16 123 -48 198 -141 198c-97 0 -180 -80 -195 -198z" />
    <glyph glyph-name="c" unicode="c" horiz-adv-x="413" 
d="M391 405l-4 -31c-31 25 -73 40 -115 40c-101 0 -189 -74 -204 -195c-16 -124 53 -201 159 -201c41 0 88 17 121 40l-5 -34c-32 -22 -77 -36 -128 -36c-116 0 -198 95 -180 232c17 137 121 224 234 224c48 0 93 -15 122 -39z" />
    <glyph glyph-name="d" unicode="d" horiz-adv-x="499" 
d="M404 216c16 123 -50 198 -143 198s-178 -76 -193 -198c-16 -123 48 -198 141 -198c97 0 181 80 195 198zM504 600l-83 -468c-9 -50 -14 -101 -14 -132h-33c0 29 4 66 9 95c-33 -60 -102 -107 -179 -107c-115 0 -187 96 -169 230c17 135 116 226 228 226
c79 0 146 -54 157 -132l51 288h33z" />
    <glyph glyph-name="e" unicode="e" horiz-adv-x="432" 
d="M403 293c-1 -12 -5 -35 -10 -49h-321c-2 -12 -4 -24 -5 -35c-8 -107 43 -191 162 -191c54 0 108 22 142 48l-6 -34c-32 -23 -83 -44 -147 -44c-120 0 -193 91 -184 222c10 148 119 234 219 234c91 0 156 -62 150 -151zM372 299c6 65 -44 117 -119 117
c-67 0 -142 -43 -175 -146h289s4 16 5 29z" />
    <glyph glyph-name="f" unicode="f" horiz-adv-x="225" 
d="M295 606l-5 -28c-4 1 -15 3 -22 3c-52 0 -91 -14 -114 -129l-4 -20h114l-5 -28h-114l-71 -404h-33l71 404h-82l4 28h83l4 20c25 125 73 159 146 159c9 0 21 -2 28 -5z" />
    <glyph glyph-name="g" unicode="g" horiz-adv-x="499" 
d="M474 432l-70 -399c-34 -191 -127 -236 -233 -236c-55 0 -113 21 -145 40v31c34 -21 92 -41 149 -41c86 0 165 34 196 206l11 61c-32 -59 -101 -106 -178 -106c-115 0 -187 96 -169 230c17 135 116 226 228 226c79 0 144 -53 156 -128l26 116h29zM404 216
c16 123 -50 198 -143 198s-178 -76 -193 -198c-16 -123 48 -198 141 -198c97 0 181 80 195 198z" />
    <glyph glyph-name="h" unicode="h" horiz-adv-x="476" 
d="M114 322c41 75 120 118 189 118c83 0 125 -49 125 -120c0 -37 -11 -90 -20 -145l-31 -175h-33l31 175c10 56 19 108 19 137c0 70 -40 97 -99 97c-79 0 -178 -72 -198 -188l-39 -221h-33l106 600h33z" />
    <glyph glyph-name="i" unicode="i" horiz-adv-x="161" 
d="M164 600l-9 -54h-33l9 54h33zM134 432l-76 -432h-33l76 432h33z" />
    <glyph glyph-name="j" unicode="j" horiz-adv-x="161" 
d="M164 600l-9 -54h-33l9 54h33zM134 432l-91 -520c-11 -64 -37 -116 -104 -116c-30 0 -52 15 -59 23l5 26c12 -9 33 -19 51 -19c44 0 63 20 76 98l89 508h33z" />
    <glyph glyph-name="k" unicode="k" horiz-adv-x="384" 
d="M401 432l-266 -203l201 -229h-39l-199 228l-40 -228h-33l106 600h33l-65 -365l258 197h44z" />
    <glyph glyph-name="l" unicode="l" horiz-adv-x="161" 
d="M164 600l-106 -600h-33l106 600h33z" />
    <glyph glyph-name="m" unicode="m" horiz-adv-x="738" 
d="M690 320c0 -36 -11 -92 -20 -145l-31 -175h-33l31 175c9 53 19 109 19 137c0 70 -32 97 -85 97c-72 0 -164 -73 -184 -188l-39 -221h-33l39 224c6 35 12 69 12 89c0 68 -31 96 -85 96c-72 0 -164 -72 -184 -188l-39 -221h-33l53 300c9 50 14 101 14 132h33
c0 -38 -5 -80 -11 -108c39 72 113 116 175 116c75 0 108 -45 111 -113v-6c44 82 118 119 179 119c78 0 111 -49 111 -120z" />
    <glyph glyph-name="n" unicode="n" horiz-adv-x="476" 
d="M428 320c0 -37 -11 -90 -20 -145l-31 -175h-33l31 175c10 56 19 108 19 137c0 70 -40 97 -99 97c-79 0 -178 -72 -198 -188l-39 -221h-33l53 300c9 50 14 101 14 132h33c0 -34 -6 -80 -11 -110c41 75 120 118 189 118c83 0 125 -49 125 -120z" />
    <glyph glyph-name="o" unicode="o" horiz-adv-x="490" 
d="M269 445c123 0 199 -103 186 -229s-111 -229 -234 -229s-199 103 -186 229s111 229 234 229zM268 415c-107 0 -187 -89 -200 -199s47 -199 154 -199s187 89 200 199s-47 199 -154 199z" />
    <glyph glyph-name="p" unicode="p" horiz-adv-x="499" 
d="M-9 -195l88 495c9 50 14 101 14 132h33c0 -29 -4 -66 -9 -95c33 60 102 107 179 107c115 0 186 -96 169 -230c-17 -135 -116 -226 -228 -226c-79 0 -146 54 -157 132l-56 -315h-33zM96 216c-16 -123 50 -198 143 -198s177 76 193 198c16 123 -48 198 -141 198
c-97 0 -180 -80 -195 -198z" />
    <glyph glyph-name="q" unicode="q" horiz-adv-x="499" 
d="M474 432l-111 -627h-33l52 289c-32 -59 -101 -106 -178 -106c-115 0 -187 96 -169 230c17 135 116 226 228 226c79 0 144 -53 156 -128l26 116h29zM404 216c16 123 -50 198 -143 198s-178 -76 -193 -198c-16 -123 48 -198 141 -198c97 0 181 80 195 198z" />
    <glyph glyph-name="r" unicode="r" horiz-adv-x="274" 
d="M294 444l-6 -38c-62 3 -167 -49 -189 -174l-41 -232h-33l53 300c9 50 14 101 14 132h33c0 -33 -4 -68 -9 -101c40 71 118 112 178 113z" />
    <glyph glyph-name="s" unicode="s" horiz-adv-x="343" 
d="M318 416l-8 -28c-9 6 -50 26 -104 26c-63 0 -106 -29 -113 -72c-6 -39 9 -79 83 -100c108 -32 126 -92 116 -146c-12 -71 -76 -109 -151 -109c-64 0 -109 24 -135 39l9 29c24 -16 67 -38 127 -38c59 0 108 27 117 78c8 39 4 90 -97 119c-83 24 -112 73 -101 130
c10 57 66 100 145 100c59 0 106 -23 112 -28z" />
    <glyph glyph-name="t" unicode="t" horiz-adv-x="262" 
d="M277 432l-5 -28h-95l-71 -404h-33l71 404h-93l4 28h94l21 118h33l-21 -118h95z" />
    <glyph glyph-name="u" unicode="u" horiz-adv-x="476" 
d="M47 112c0 37 10 90 20 145l31 175h33l-31 -175c-10 -56 -19 -108 -19 -137c0 -70 40 -97 99 -97c79 0 177 72 198 188l39 221h33l-53 -300c-9 -50 -14 -101 -14 -132h-33c0 34 6 80 11 110c-41 -75 -120 -118 -189 -118c-83 0 -125 49 -125 120z" />
    <glyph glyph-name="v" unicode="v" horiz-adv-x="393" 
d="M410 432l-248 -432h-29l-95 432h34l82 -387l220 387h36z" />
    <glyph glyph-name="w" unicode="w" horiz-adv-x="651" 
d="M664 432l-228 -432h-27l-65 378l-200 -378h-26l-76 432h32l66 -380l200 380h24l68 -380l198 380h34z" />
    <glyph glyph-name="x" unicode="x" horiz-adv-x="392" 
d="M398 432l-184 -213l116 -219h-34l-105 198l-170 -198h-39l193 224l-111 208h34l100 -187l161 187h39z" />
    <glyph glyph-name="y" unicode="y" horiz-adv-x="398" 
d="M415 432l-361 -627h-36l115 197l-93 430h34l83 -391l222 391h36z" />
    <glyph glyph-name="z" unicode="z" horiz-adv-x="357" 
d="M355 432l-3 -21l-315 -382h258l-5 -29h-301l3 21l315 382h-238l4 29h282z" />
    <glyph glyph-name="braceleft" unicode="{" horiz-adv-x="264" 
d="M314 682c-57 -35 -67 -73 -88 -192c-28 -153 -75 -178 -131 -195c50 -17 88 -46 62 -195c-21 -115 -24 -157 20 -192l-12 -14c-56 40 -59 77 -35 208c25 145 -13 167 -64 187l2 15c59 19 104 41 130 187c23 131 39 168 109 208z" />
    <glyph glyph-name="bar" unicode="|" horiz-adv-x="177" 
d="M183 687l-138 -782h-23l138 782h23z" />
    <glyph glyph-name="braceright" unicode="}" horiz-adv-x="264" 
d="M227 303l-3 -15c-58 -19 -104 -41 -130 -187c-24 -131 -38 -168 -108 -208l-7 17c57 35 67 73 88 192c28 153 74 178 131 195c-51 17 -88 46 -62 195c21 115 24 157 -21 192l13 14c56 -40 58 -77 35 -208c-25 -145 12 -167 64 -187z" />
    <glyph glyph-name="asciitilde" unicode="~" horiz-adv-x="384" 
d="M351 300c-9 -69 -39 -105 -80 -105c-49 0 -104 84 -150 84c-29 0 -46 -28 -56 -76h-19c8 68 39 104 80 104c49 0 105 -84 150 -84c29 0 46 29 56 77h19z" />
    <glyph glyph-name="nbspace" unicode="&#xa0;" horiz-adv-x="152" 
 />
    <glyph glyph-name="exclamdown" unicode="&#xa1;" horiz-adv-x="186" 
d="M98 384l8 48h49l-9 -48h-48zM6 -162l85 435h24l-69 -435h-40z" />
    <glyph glyph-name="cent" unicode="&#xa2;" horiz-adv-x="416" 
d="M289 460l-68 -385c6 -1 13 -1 19 -1c41 0 86 16 117 38l9 -24c-34 -27 -84 -44 -138 -44h-12l-23 -127h-22l23 130c-98 16 -162 101 -146 224c17 133 115 214 224 218l23 128h22l-23 -127c44 -3 84 -17 110 -39l-4 -31c-30 24 -70 39 -111 40zM199 78l68 381
c-93 -7 -172 -75 -186 -189c-14 -107 36 -176 118 -192z" />
    <glyph glyph-name="sterling" unicode="&#xa3;" horiz-adv-x="452" 
d="M451 583l-5 -32c-20 15 -53 33 -94 33c-86 0 -148 -56 -175 -213l-9 -52h155l-4 -25h-155l-17 -94c-20 -113 -43 -155 -90 -170h318l-5 -30h-384l4 30c80 4 98 34 119 149l21 115h-76l5 25h75l9 52c30 174 106 243 213 243c40 0 75 -17 95 -31z" />
    <glyph glyph-name="currency" unicode="&#xa4;" horiz-adv-x="458" 
d="M477 584l-5 -31c-18 15 -54 32 -104 32c-100 0 -182 -77 -219 -207h180l-4 -24h-181c-5 -17 -8 -35 -11 -53c-2 -18 -4 -36 -5 -53h178l-4 -24h-176c-1 -130 52 -208 160 -208c48 0 87 17 110 32l-5 -32c-21 -13 -60 -30 -111 -30c-122 0 -190 88 -188 238h-61l4 24h58
c1 17 3 35 6 53c2 18 6 36 10 53h-55l4 24h57c44 150 137 237 255 237c52 0 89 -17 107 -31z" />
    <glyph glyph-name="yen" unicode="&#xa5;" horiz-adv-x="489" 
d="M249 161h119l-4 -23h-119l-24 -138h-34l24 138h-118l4 23h118l14 77h-118l4 23h105l-136 339h35l131 -327l248 327h39l-259 -339h108l-4 -23h-119z" />
    <glyph glyph-name="brokenbar" unicode="&#xa6;" horiz-adv-x="177" 
d="M183 686l-57 -325h-23l57 325h23zM102 229l-57 -325h-23l57 325h23z" />
    <glyph glyph-name="section" unicode="&#xa7;" horiz-adv-x="378" 
d="M386 574l-10 -27c-14 14 -60 38 -117 38c-73 0 -127 -40 -137 -98c-9 -54 12 -96 91 -119c125 -37 149 -95 139 -169c-10 -68 -64 -119 -132 -134c60 -30 80 -77 71 -134c-12 -71 -79 -125 -172 -125c-57 0 -110 25 -123 40l9 27c15 -14 60 -39 118 -39
c72 0 126 41 136 99c10 53 -11 96 -90 119c-125 36 -150 95 -139 168c10 69 64 120 131 135c-60 29 -79 77 -70 134c11 71 79 125 171 125c58 0 110 -25 124 -40zM320 200c10 59 -5 105 -119 139c-73 -2 -129 -55 -140 -119c-9 -59 7 -106 120 -139c73 2 129 55 139 119z
" />
    <glyph glyph-name="dieresis" unicode="&#xa8;" horiz-adv-x="294" 
d="M305 553l-8 -42h-41l8 42h41zM156 553l-8 -42h-42l8 42h42z" />
    <glyph glyph-name="copyright" unicode="&#xa9;" horiz-adv-x="663" 
d="M659 300c-18 -175 -171 -316 -346 -316s-298 141 -280 316s171 316 346 316s298 -141 280 -316zM643 300c18 166 -99 300 -264 300c-166 0 -312 -134 -330 -300c-18 -165 99 -300 265 -300c165 0 311 135 329 300zM461 131c-28 -19 -77 -34 -122 -34
c-103 0 -188 74 -174 202c14 129 113 204 216 204c45 0 92 -15 116 -35l-3 -30c-27 22 -68 37 -114 37c-89 0 -171 -65 -183 -176c-12 -110 58 -174 147 -174c46 0 89 15 120 35z" />
    <glyph glyph-name="ordfeminine" unicode="&#xaa;" horiz-adv-x="401" 
d="M420 600l-40 -227c-7 -41 -10 -72 -10 -100h-29c0 22 1 51 5 67c-28 -46 -80 -78 -140 -78c-86 0 -141 76 -128 177c13 103 90 172 175 172c59 0 112 -38 122 -92l20 81h25zM363 437c12 91 -39 147 -110 147c-70 0 -134 -56 -145 -147c-11 -92 38 -148 107 -148
c70 0 136 57 148 148z" />
    <glyph glyph-name="guillemotleft" unicode="&#xab;" horiz-adv-x="360" 
d="M357 370l-137 -122l93 -121l-15 -13l-112 136l160 136zM256 414l-184 -166l125 -165l-16 -12l-143 179l207 180z" />
    <glyph glyph-name="logicalnot" unicode="&#xac;" horiz-adv-x="486" 
d="M419 321l-32 -181h-27l28 155h-305l5 26h331z" />
    <glyph glyph-name="registered" unicode="&#xae;" horiz-adv-x="473" 
d="M494 384c-14 -127 -125 -230 -252 -230s-218 103 -205 230s127 230 254 230s217 -103 203 -230zM478 384c12 118 -70 214 -188 214s-223 -96 -236 -214s71 -214 189 -214s223 96 235 214zM364 442c-5 -39 -33 -74 -80 -79l57 -114h-27l-55 113h-51l-20 -114h-26l50 279
h80c56 0 78 -41 72 -85zM338 443c5 33 -8 62 -48 62h-56l-22 -121h58c41 0 64 28 68 59z" />
    <glyph glyph-name="macron" unicode="&#xaf;" horiz-adv-x="294" 
d="M296 534l-4 -28h-190l5 28h189z" />
    <glyph glyph-name="degree" unicode="&#xb0;" horiz-adv-x="346" 
d="M231 612c82 0 143 -68 134 -150c-9 -83 -84 -149 -166 -149s-143 66 -134 149c9 82 84 150 166 150zM230 589c-70 0 -134 -58 -141 -127c-7 -70 41 -126 111 -126c69 0 135 56 142 126c7 69 -43 127 -112 127z" />
    <glyph glyph-name="plusminus" unicode="&#xb1;" horiz-adv-x="371" 
d="M353 302l-4 -26h-140l-26 -145h-26l26 145h-139l4 26h139l26 145h26l-26 -145h140zM304 25l-4 -25h-305l4 25h305z" />
    <glyph glyph-name="twosuperior" unicode="&#xb2;" horiz-adv-x="252" 
d="M261 517c-7 -55 -48 -95 -75 -120l-99 -92h142l-3 -25h-185l2 15l113 107c30 28 69 64 75 113c6 48 -23 69 -59 69c-25 0 -57 -12 -81 -30l3 27c19 13 55 28 84 28c53 0 90 -33 83 -92z" />
    <glyph glyph-name="threesuperior" unicode="&#xb3;" horiz-adv-x="265" 
d="M290 584l-131 -114c8 2 17 3 25 2c52 -5 78 -44 73 -94c-7 -66 -57 -107 -119 -107c-32 0 -61 13 -79 28l2 27c21 -20 49 -31 77 -31c47 0 85 30 90 83c5 43 -17 74 -64 74c-14 0 -34 -5 -46 -13l-10 14l138 122h-142l3 25h186z" />
    <glyph glyph-name="acute" unicode="&#xb4;" horiz-adv-x="294" 
d="M289 592l-128 -87l-9 12l118 100z" />
    <glyph glyph-name="mu" unicode="&#xb5;" horiz-adv-x="476" 
d="M66 56l-44 -251h-33l109 627h33l-31 -175c-10 -56 -19 -108 -19 -137c0 -70 40 -97 99 -97c79 0 177 72 198 188l39 221h33l-53 -300c-9 -50 -14 -101 -14 -132h-33c0 34 6 80 11 110c-41 -75 -120 -118 -189 -118c-53 0 -87 20 -106 64z" />
    <glyph glyph-name="paragraph" unicode="&#xb6;" horiz-adv-x="437" 
d="M65 453c15 87 99 147 181 147h231l-4 -20h-64l-136 -771h-21l136 771h-127l-136 -771h-21l84 477c-90 6 -137 86 -123 167z" />
    <glyph glyph-name="periodcentered" unicode="&#xb7;" horiz-adv-x="192" 
d="M133 293l-8 -50h-50l8 50h50z" />
    <glyph glyph-name="cedilla" unicode="&#xb8;" horiz-adv-x="294" 
d="M4 -215l3 22c68 -2 122 17 128 66c5 42 -54 52 -106 36l-1 16l93 92l20 -7l-69 -71c45 5 98 -15 93 -64c-7 -67 -79 -92 -161 -90z" />
    <glyph glyph-name="onesuperior" unicode="&#xb9;" horiz-adv-x="160" 
d="M110 280h-29l53 297l-36 -5l4 21l66 14z" />
    <glyph glyph-name="ordmasculine" unicode="&#xba;" horiz-adv-x="394" 
d="M260 613c95 0 156 -76 145 -177c-11 -102 -90 -175 -183 -175c-95 0 -156 75 -145 176s90 176 183 176zM259 586c-77 0 -141 -61 -151 -149c-10 -90 38 -149 115 -149s140 60 151 148c11 90 -38 150 -115 150z" />
    <glyph glyph-name="guillemotright" unicode="&#xbb;" horiz-adv-x="360" 
d="M331 250l-207 -179l-11 16l185 165l-125 166l16 12zM184 250l-161 -136l-11 17l137 121l-93 122l16 12z" />
    <glyph glyph-name="onequarter" unicode="&#xbc;" horiz-adv-x="497" 
d="M118 280h-29l53 297l-36 -5l4 21l66 14zM462 606l-439 -624l-16 12l439 624zM440 108l-4 -24h-54l-15 -84h-29l15 84h-153l2 15l199 225h23l-38 -216h54zM387 276l-148 -168h118z" />
    <glyph glyph-name="onehalf" unicode="&#xbd;" horiz-adv-x="510" 
d="M118 280h-29l53 297l-36 -5l4 21l66 14zM462 606l-439 -624l-16 12l439 624zM487 237c-7 -55 -48 -95 -75 -120l-99 -92h142l-3 -25h-185l2 15l113 107c30 28 69 64 75 113c6 48 -23 69 -59 69c-25 0 -57 -12 -81 -30l3 27c19 13 55 28 84 28c53 0 90 -33 83 -92z" />
    <glyph glyph-name="threequarters" unicode="&#xbe;" horiz-adv-x="590" 
d="M296 584l-131 -114c8 2 17 3 25 2c52 -5 78 -44 73 -94c-7 -66 -57 -107 -119 -107c-32 0 -61 13 -79 28l2 27c21 -20 49 -31 77 -31c47 0 85 30 90 83c5 43 -17 74 -64 74c-14 0 -34 -5 -46 -13l-10 14l138 122h-142l3 25h186zM534 108l-4 -24h-54l-15 -84h-29l15 84
h-153l2 15l199 225h23l-38 -216h54zM481 276l-148 -168h118zM556 606l-439 -624l-16 12l439 624z" />
    <glyph glyph-name="questiondown" unicode="&#xbf;" horiz-adv-x="376" 
d="M237 384l8 48h49l-9 -48h-48zM-15 -31c10 88 79 142 165 184l62 30l16 89h29l-19 -107l-66 -33c-87 -43 -145 -88 -153 -162c-9 -83 56 -116 129 -116c53 0 122 27 163 63l-4 -35c-39 -32 -106 -59 -164 -59c-88 0 -169 45 -158 146z" />
    <glyph glyph-name="Agrave" unicode="&#xc0;" horiz-adv-x="524" 
d="M467 0h-34l-37 179h-281l-100 -179h-37l338 600h26zM389 209l-69 337l-188 -337h257zM395 686l-9 -12l-128 87l19 25z" />
    <glyph glyph-name="Aacute" unicode="&#xc1;" horiz-adv-x="524" 
d="M467 0h-34l-37 179h-281l-100 -179h-37l338 600h26zM389 209l-69 337l-188 -337h257zM436 761l-134 -87l-8 11l125 101z" />
    <glyph glyph-name="Acircumflex" unicode="&#xc2;" horiz-adv-x="524" 
d="M467 0h-34l-37 179h-281l-100 -179h-37l338 600h26zM389 209l-69 337l-188 -337h257zM436 691l-15 -15l-70 95l-102 -95l-14 15l121 114z" />
    <glyph glyph-name="Atilde" unicode="&#xc3;" horiz-adv-x="524" 
d="M467 0h-34l-37 179h-281l-100 -179h-37l338 600h26zM389 209l-69 337l-188 -337h257zM452 759c-8 -55 -35 -80 -65 -80c-41 0 -65 57 -96 57c-22 0 -34 -14 -42 -54h-20c9 58 35 80 65 80c41 0 65 -57 97 -57c21 0 35 16 41 54h20z" />
    <glyph glyph-name="Adieresis" unicode="&#xc4;" horiz-adv-x="524" 
d="M467 0h-34l-37 179h-281l-100 -179h-37l338 600h26zM389 209l-69 337l-188 -337h257zM435 721l-8 -42h-41l8 42h41zM286 721l-8 -42h-42l8 42h42z" />
    <glyph glyph-name="Aring" unicode="&#xc5;" horiz-adv-x="524" 
d="M467 0h-34l-37 179h-281l-100 -179h-37l338 600h26zM389 209l-69 337l-188 -337h257zM359 846c48 0 83 -39 78 -88c-5 -48 -48 -87 -97 -87c-48 0 -84 39 -79 87c5 49 49 88 98 88zM356 825c-36 0 -70 -30 -73 -67c-3 -36 23 -65 59 -65s69 29 73 65c4 37 -23 67 -59 67z
" />
    <glyph glyph-name="AE" unicode="&#xc6;" horiz-adv-x="731" 
d="M754 600l-5 -31h-272l-43 -238h225l-6 -31h-224l-47 -269h272l-6 -31h-306l32 179h-235l-124 -179h-37l417 600h359zM443 569h-33l-250 -360h219z" />
    <glyph glyph-name="Ccedilla" unicode="&#xc7;" horiz-adv-x="543" 
d="M273 -12c-139 13 -244 129 -222 315c24 197 165 310 321 310c68 0 135 -23 176 -57l-5 -36c-42 35 -102 61 -175 61c-138 0 -263 -104 -283 -278c-21 -174 79 -284 219 -284c73 0 138 26 189 61l-5 -38c-50 -33 -120 -55 -188 -55l-53 -55c45 5 98 -15 93 -64
c-7 -67 -79 -92 -161 -90l3 22c68 -2 122 17 128 66c5 42 -54 52 -106 36l-1 16z" />
    <glyph glyph-name="Egrave" unicode="&#xc8;" horiz-adv-x="417" 
d="M438 600l-5 -31h-272l-43 -238h225l-6 -31h-224l-47 -269h272l-6 -31h-306l106 600h306zM364 686l-9 -12l-128 87l19 25z" />
    <glyph glyph-name="Eacute" unicode="&#xc9;" horiz-adv-x="417" 
d="M438 600l-5 -31h-272l-43 -238h225l-6 -31h-224l-47 -269h272l-6 -31h-306l106 600h306zM400 761l-134 -87l-8 11l125 101z" />
    <glyph glyph-name="Ecircumflex" unicode="&#xca;" horiz-adv-x="417" 
d="M438 600l-5 -31h-272l-43 -238h225l-6 -31h-224l-47 -269h272l-6 -31h-306l106 600h306zM405 691l-15 -15l-70 95l-102 -95l-14 15l121 114z" />
    <glyph glyph-name="Edieresis" unicode="&#xcb;" horiz-adv-x="417" 
d="M438 600l-5 -31h-272l-43 -238h225l-6 -31h-224l-47 -269h272l-6 -31h-306l106 600h306zM409 721l-8 -42h-41l8 42h41zM260 721l-8 -42h-42l8 42h42z" />
    <glyph glyph-name="Igrave" unicode="&#xcc;" horiz-adv-x="164" 
d="M166 600l-106 -600h-34l106 600h34zM220 686l-9 -12l-128 87l19 25z" />
    <glyph glyph-name="Iacute" unicode="&#xcd;" horiz-adv-x="164" 
d="M166 600l-106 -600h-34l106 600h34zM255 761l-134 -87l-8 11l125 101z" />
    <glyph glyph-name="Icircumflex" unicode="&#xce;" horiz-adv-x="164" 
d="M166 600l-106 -600h-34l106 600h34zM261 691l-15 -15l-70 95l-102 -95l-14 15l121 114z" />
    <glyph glyph-name="Idieresis" unicode="&#xcf;" horiz-adv-x="164" 
d="M166 600l-106 -600h-34l106 600h34zM264 721l-8 -42h-41l8 42h41zM115 721l-8 -42h-42l8 42h42z" />
    <glyph glyph-name="Eth" unicode="&#xd0;" horiz-adv-x="558" 
d="M535 296c-25 -165 -131 -296 -348 -296h-161l51 290h-55l4 25h56l50 285h143c218 0 285 -139 260 -304zM272 568h-111l-45 -253h134l-4 -25h-134l-47 -258h125c202 0 291 131 311 264c22 145 -26 272 -229 272z" />
    <glyph glyph-name="Ntilde" unicode="&#xd1;" horiz-adv-x="544" 
d="M546 600l-106 -600h-20l-267 528l-93 -528h-34l106 600h20l267 -528l93 528h34zM467 759c-8 -55 -35 -80 -65 -80c-41 0 -65 57 -96 57c-22 0 -34 -14 -42 -54h-20c9 58 35 80 65 80c41 0 65 -57 97 -57c21 0 35 16 41 54h20z" />
    <glyph glyph-name="Ograve" unicode="&#xd2;" horiz-adv-x="657" 
d="M634 300c-20 -187 -163 -314 -325 -314c-163 0 -279 127 -259 314c20 186 162 314 325 314c162 0 279 -128 259 -314zM600 300c20 173 -87 282 -226 282c-141 0 -270 -109 -290 -282s85 -282 226 -282c139 0 270 109 290 282zM456 686l-9 -12l-128 87l19 25z" />
    <glyph glyph-name="Oacute" unicode="&#xd3;" horiz-adv-x="657" 
d="M634 300c-20 -187 -163 -314 -325 -314c-163 0 -279 127 -259 314c20 186 162 314 325 314c162 0 279 -128 259 -314zM600 300c20 173 -87 282 -226 282c-141 0 -270 -109 -290 -282s85 -282 226 -282c139 0 270 109 290 282zM487 761l-134 -87l-8 11l125 101z" />
    <glyph glyph-name="Ocircumflex" unicode="&#xd4;" horiz-adv-x="657" 
d="M634 300c-20 -187 -163 -314 -325 -314c-163 0 -279 127 -259 314c20 186 162 314 325 314c162 0 279 -128 259 -314zM600 300c20 173 -87 282 -226 282c-141 0 -270 -109 -290 -282s85 -282 226 -282c139 0 270 109 290 282zM497 691l-15 -15l-70 95l-102 -95l-14 15
l121 114z" />
    <glyph glyph-name="Otilde" unicode="&#xd5;" horiz-adv-x="657" 
d="M634 300c-20 -187 -163 -314 -325 -314c-163 0 -279 127 -259 314c20 186 162 314 325 314c162 0 279 -128 259 -314zM600 300c20 173 -87 282 -226 282c-141 0 -270 -109 -290 -282s85 -282 226 -282c139 0 270 109 290 282zM513 759c-8 -55 -35 -80 -65 -80
c-41 0 -65 57 -96 57c-22 0 -34 -14 -42 -54h-20c9 58 35 80 65 80c41 0 65 -57 97 -57c21 0 35 16 41 54h20z" />
    <glyph glyph-name="Odieresis" unicode="&#xd6;" horiz-adv-x="657" 
d="M634 300c-20 -187 -163 -314 -325 -314c-163 0 -279 127 -259 314c20 186 162 314 325 314c162 0 279 -128 259 -314zM600 300c20 173 -87 282 -226 282c-141 0 -270 -109 -290 -282s85 -282 226 -282c139 0 270 109 290 282zM501 721l-8 -42h-41l8 42h41zM352 721
l-8 -42h-42l8 42h42z" />
    <glyph glyph-name="multiply" unicode="&#xd7;" horiz-adv-x="380" 
d="M359 407l-139 -121l96 -120l-19 -16l-96 120l-139 -120l-16 19l140 120l-98 120l21 16l96 -120l139 121z" />
    <glyph glyph-name="Oslash" unicode="&#xd8;" horiz-adv-x="657" 
d="M517 534l-337 -478c37 -25 81 -38 130 -38c139 0 270 109 290 282c12 105 -23 187 -83 234zM166 66l337 478c-36 25 -80 38 -129 38c-141 0 -270 -109 -290 -282c-12 -105 22 -186 82 -234zM147 39c-70 54 -109 146 -97 261c20 186 162 314 325 314c56 0 106 -15 147 -43
l49 70l14 -10l-49 -69c70 -55 110 -147 98 -262c-20 -187 -163 -314 -325 -314c-56 0 -107 15 -148 43l-49 -70l-14 10z" />
    <glyph glyph-name="Ugrave" unicode="&#xd9;" horiz-adv-x="585" 
d="M587 600l-57 -321c-35 -200 -128 -293 -268 -293c-137 0 -222 92 -187 293l57 321h34l-57 -322c-32 -181 38 -260 155 -260c113 0 200 81 232 260l57 322h34zM426 686l-9 -12l-128 87l19 25z" />
    <glyph glyph-name="Uacute" unicode="&#xda;" horiz-adv-x="585" 
d="M587 600l-57 -321c-35 -200 -128 -293 -268 -293c-137 0 -222 92 -187 293l57 321h34l-57 -322c-32 -181 38 -260 155 -260c113 0 200 81 232 260l57 322h34zM467 761l-134 -87l-8 11l125 101z" />
    <glyph glyph-name="Ucircumflex" unicode="&#xdb;" horiz-adv-x="585" 
d="M587 600l-57 -321c-35 -200 -128 -293 -268 -293c-137 0 -222 92 -187 293l57 321h34l-57 -322c-32 -181 38 -260 155 -260c113 0 200 81 232 260l57 322h34zM472 691l-15 -15l-70 95l-102 -95l-14 15l121 114z" />
    <glyph glyph-name="Udieresis" unicode="&#xdc;" horiz-adv-x="585" 
d="M587 600l-57 -321c-35 -200 -128 -293 -268 -293c-137 0 -222 92 -187 293l57 321h34l-57 -322c-32 -181 38 -260 155 -260c113 0 200 81 232 260l57 322h34zM476 721l-8 -42h-41l8 42h41zM327 721l-8 -42h-42l8 42h42z" />
    <glyph glyph-name="Yacute" unicode="&#xdd;" horiz-adv-x="486" 
d="M537 600l-274 -360l-42 -240h-34l42 240l-145 360h35l131 -327l248 327h39zM428 761l-134 -87l-8 11l125 101z" />
    <glyph glyph-name="Thorn" unicode="&#xde;" horiz-adv-x="415" 
d="M166 600l-21 -118h125c118 0 158 -90 146 -181c-13 -92 -72 -172 -189 -172h-144l-23 -129h-34l106 600h34zM382 301c11 75 -16 150 -117 150h-125l-52 -291h142c99 0 142 73 152 141z" />
    <glyph glyph-name="germandbls" unicode="&#xdf;" horiz-adv-x="459" 
d="M411 100c-10 -77 -75 -109 -148 -109c-37 0 -74 9 -99 21l7 30c25 -14 64 -22 96 -22c54 0 104 24 111 80c13 105 -162 100 -147 204c9 71 133 98 145 191c7 61 -36 91 -99 91c-70 0 -130 -52 -141 -133l-80 -453h-33l80 453c13 98 90 161 176 161c80 0 139 -42 129 -119
c-14 -105 -138 -135 -145 -191c-11 -82 164 -80 148 -204z" />
    <glyph glyph-name="agrave" unicode="&#xe0;" horiz-adv-x="499" 
d="M359 517l-9 -12l-128 87l19 25zM404 216c16 123 -50 198 -143 198s-178 -76 -193 -198c-16 -123 48 -198 141 -198c97 0 181 80 195 198zM474 432l-53 -300c-9 -50 -14 -101 -14 -132h-33c0 29 4 66 9 95c-33 -60 -102 -107 -179 -107c-115 0 -187 96 -169 230
c17 135 116 226 228 226c79 0 144 -53 156 -128l26 116h29z" />
    <glyph glyph-name="aacute" unicode="&#xe1;" horiz-adv-x="499" 
d="M404 216c16 123 -50 198 -143 198s-178 -76 -193 -198c-16 -123 48 -198 141 -198c97 0 181 80 195 198zM474 432l-53 -300c-9 -50 -14 -101 -14 -132h-33c0 29 4 66 9 95c-33 -60 -102 -107 -179 -107c-115 0 -187 96 -169 230c17 135 116 226 228 226
c79 0 144 -53 156 -128l26 116h29zM388 592l-128 -87l-9 12l118 100z" />
    <glyph glyph-name="acircumflex" unicode="&#xe2;" horiz-adv-x="499" 
d="M404 216c16 123 -50 198 -143 198s-178 -76 -193 -198c-16 -123 48 -198 141 -198c97 0 181 80 195 198zM474 432l-53 -300c-9 -50 -14 -101 -14 -132h-33c0 29 4 66 9 95c-33 -60 -102 -107 -179 -107c-115 0 -187 96 -169 230c17 135 116 226 228 226
c79 0 144 -53 156 -128l26 116h29zM400 522l-15 -14l-70 94l-102 -94l-14 15l121 114z" />
    <glyph glyph-name="atilde" unicode="&#xe3;" horiz-adv-x="499" 
d="M404 216c16 123 -50 198 -143 198s-178 -76 -193 -198c-16 -123 48 -198 141 -198c97 0 181 80 195 198zM474 432l-53 -300c-9 -50 -14 -101 -14 -132h-33c0 29 4 66 9 95c-33 -60 -102 -107 -179 -107c-115 0 -187 96 -169 230c17 135 116 226 228 226
c79 0 144 -53 156 -128l26 116h29zM416 591c-8 -55 -35 -81 -65 -81c-41 0 -65 58 -96 58c-22 0 -34 -14 -42 -55h-20c9 59 35 81 65 81c41 0 65 -58 97 -58c21 0 35 17 41 55h20z" />
    <glyph glyph-name="adieresis" unicode="&#xe4;" horiz-adv-x="499" 
d="M404 216c16 123 -50 198 -143 198s-178 -76 -193 -198c-16 -123 48 -198 141 -198c97 0 181 80 195 198zM474 432l-53 -300c-9 -50 -14 -101 -14 -132h-33c0 29 4 66 9 95c-33 -60 -102 -107 -179 -107c-115 0 -187 96 -169 230c17 135 116 226 228 226
c79 0 144 -53 156 -128l26 116h29zM404 553l-8 -42h-41l8 42h41zM255 553l-8 -42h-42l8 42h42z" />
    <glyph glyph-name="aring" unicode="&#xe5;" horiz-adv-x="499" 
d="M404 216c16 123 -50 198 -143 198s-178 -76 -193 -198c-16 -123 48 -198 141 -198c97 0 181 80 195 198zM474 432l-53 -300c-9 -50 -14 -101 -14 -132h-33c0 29 4 66 9 95c-33 -60 -102 -107 -179 -107c-115 0 -187 96 -169 230c17 135 116 226 228 226
c79 0 144 -53 156 -128l26 116h29zM322 683c48 0 83 -39 78 -88c-5 -48 -48 -87 -97 -87c-48 0 -84 39 -79 87c5 49 49 88 98 88zM319 662c-36 0 -70 -30 -73 -67c-4 -36 23 -65 59 -65s70 29 73 65c4 37 -23 67 -59 67z" />
    <glyph glyph-name="ae" unicode="&#xe6;" horiz-adv-x="705" 
d="M319 110c-83 -85 -154 -121 -216 -121c-56 0 -95 41 -88 100c11 101 144 152 299 167l5 41c11 85 -21 118 -92 118c-45 0 -103 -23 -150 -48l4 32c38 20 99 46 151 46c62 0 116 -24 117 -107c41 69 112 106 177 106c91 0 156 -62 150 -151c-1 -12 -5 -35 -10 -49h-321
c-2 -12 -4 -24 -5 -35c-8 -107 43 -191 162 -191c54 0 108 22 142 48l-6 -34c-32 -23 -83 -44 -147 -44c-87 0 -148 46 -172 122zM309 227c-174 -17 -253 -73 -261 -135c-6 -61 35 -76 67 -76c46 0 122 49 197 119c-4 24 -9 50 -3 92zM645 299c6 65 -44 117 -119 117
c-67 0 -142 -43 -175 -146h289s4 16 5 29z" />
    <glyph glyph-name="ccedilla" unicode="&#xe7;" horiz-adv-x="413" 
d="M191 -11c-103 12 -173 104 -156 231c17 137 121 224 234 224c48 0 93 -15 122 -39l-4 -31c-31 25 -73 40 -115 40c-101 0 -189 -74 -204 -195c-16 -124 53 -201 159 -201c41 0 88 17 121 40l-5 -34c-31 -22 -75 -35 -125 -36l-48 -49c45 5 98 -15 93 -64
c-7 -67 -79 -92 -161 -90l3 22c68 -2 122 17 128 66c5 42 -54 52 -106 36l-1 16z" />
    <glyph glyph-name="egrave" unicode="&#xe8;" horiz-adv-x="432" 
d="M328 517l-9 -12l-128 87l19 25zM403 293c-1 -12 -5 -35 -10 -49h-321c-2 -12 -4 -24 -5 -35c-8 -107 43 -191 162 -191c54 0 108 22 142 48l-6 -34c-32 -23 -83 -44 -147 -44c-120 0 -193 91 -184 222c10 148 119 234 219 234c91 0 156 -62 150 -151zM372 299
c6 65 -44 117 -119 117c-67 0 -142 -43 -175 -146h289s4 16 5 29z" />
    <glyph glyph-name="eacute" unicode="&#xe9;" horiz-adv-x="432" 
d="M403 293c-1 -12 -5 -35 -10 -49h-321c-2 -12 -4 -24 -5 -35c-8 -107 43 -191 162 -191c54 0 108 22 142 48l-6 -34c-32 -23 -83 -44 -147 -44c-120 0 -193 91 -184 222c10 148 119 234 219 234c91 0 156 -62 150 -151zM372 299c6 65 -44 117 -119 117
c-67 0 -142 -43 -175 -146h289s4 16 5 29zM357 592l-128 -87l-9 12l118 100z" />
    <glyph glyph-name="ecircumflex" unicode="&#xea;" horiz-adv-x="432" 
d="M403 293c-1 -12 -5 -35 -10 -49h-321c-2 -12 -4 -24 -5 -35c-8 -107 43 -191 162 -191c54 0 108 22 142 48l-6 -34c-32 -23 -83 -44 -147 -44c-120 0 -193 91 -184 222c10 148 119 234 219 234c91 0 156 -62 150 -151zM372 299c6 65 -44 117 -119 117
c-67 0 -142 -43 -175 -146h289s4 16 5 29zM369 522l-15 -14l-70 94l-102 -94l-14 15l121 114z" />
    <glyph glyph-name="edieresis" unicode="&#xeb;" horiz-adv-x="432" 
d="M403 293c-1 -12 -5 -35 -10 -49h-321c-2 -12 -4 -24 -5 -35c-8 -107 43 -191 162 -191c54 0 108 22 142 48l-6 -34c-32 -23 -83 -44 -147 -44c-120 0 -193 91 -184 222c10 148 119 234 219 234c91 0 156 -62 150 -151zM372 299c6 65 -44 117 -119 117
c-67 0 -142 -43 -175 -146h289s4 16 5 29zM373 553l-8 -42h-41l8 42h41zM223 553l-8 -42h-42l8 42h42z" />
    <glyph glyph-name="igrave" unicode="&#xec;" horiz-adv-x="161" 
d="M187 517l-9 -12l-128 87l19 25zM134 432l-76 -432h-33l76 432h33z" />
    <glyph glyph-name="iacute" unicode="&#xed;" horiz-adv-x="161" 
d="M216 592l-128 -87l-9 12l118 100zM134 432l-76 -432h-33l76 432h33z" />
    <glyph glyph-name="icircumflex" unicode="&#xee;" horiz-adv-x="161" 
d="M134 432l-76 -432h-33l76 432h33zM228 522l-15 -14l-70 94l-102 -94l-14 15l121 114z" />
    <glyph glyph-name="idieresis" unicode="&#xef;" horiz-adv-x="161" 
d="M232 553l-8 -42h-41l8 42h41zM83 553l-8 -42h-42l8 42h42zM134 432l-76 -432h-33l76 432h33z" />
    <glyph glyph-name="eth" unicode="&#xf0;" horiz-adv-x="490" 
d="M401 375c-26 69 -90 133 -139 172l-92 -51l-9 19l85 47c-21 16 -38 29 -60 43l17 15c23 -14 45 -27 66 -44l82 46l9 -19l-74 -42c120 -99 183 -208 169 -345c-13 -126 -113 -229 -234 -229s-199 103 -186 229s111 229 234 229c47 0 102 -22 132 -70zM268 415
c-107 0 -187 -89 -200 -199s47 -199 154 -199s187 89 200 199s-47 199 -154 199z" />
    <glyph glyph-name="ntilde" unicode="&#xf1;" horiz-adv-x="476" 
d="M428 320c0 -37 -11 -90 -20 -145l-31 -175h-33l31 175c10 56 19 108 19 137c0 70 -40 97 -99 97c-79 0 -178 -72 -198 -188l-39 -221h-33l53 300c9 50 14 101 14 132h33c0 -34 -6 -80 -11 -110c41 75 120 118 189 118c83 0 125 -49 125 -120zM416 591
c-8 -55 -35 -81 -65 -81c-41 0 -65 58 -96 58c-22 0 -34 -14 -42 -55h-20c9 59 35 81 65 81c41 0 65 -58 97 -58c21 0 35 17 41 55h20z" />
    <glyph glyph-name="ograve" unicode="&#xf2;" horiz-adv-x="490" 
d="M346 517l-9 -12l-128 87l19 25zM269 445c123 0 199 -103 186 -229s-111 -229 -234 -229s-199 103 -186 229s111 229 234 229zM268 415c-107 0 -187 -89 -200 -199s47 -199 154 -199s187 89 200 199s-47 199 -154 199z" />
    <glyph glyph-name="oacute" unicode="&#xf3;" horiz-adv-x="490" 
d="M269 445c123 0 199 -103 186 -229s-111 -229 -234 -229s-199 103 -186 229s111 229 234 229zM268 415c-107 0 -187 -89 -200 -199s47 -199 154 -199s187 89 200 199s-47 199 -154 199zM375 592l-128 -87l-9 12l118 100z" />
    <glyph glyph-name="ocircumflex" unicode="&#xf4;" horiz-adv-x="490" 
d="M269 445c123 0 199 -103 186 -229s-111 -229 -234 -229s-199 103 -186 229s111 229 234 229zM268 415c-107 0 -187 -89 -200 -199s47 -199 154 -199s187 89 200 199s-47 199 -154 199zM387 522l-15 -14l-70 94l-102 -94l-14 15l121 114z" />
    <glyph glyph-name="otilde" unicode="&#xf5;" horiz-adv-x="490" 
d="M269 445c123 0 199 -103 186 -229s-111 -229 -234 -229s-199 103 -186 229s111 229 234 229zM268 415c-107 0 -187 -89 -200 -199s47 -199 154 -199s187 89 200 199s-47 199 -154 199zM403 591c-8 -55 -35 -81 -65 -81c-41 0 -65 58 -96 58c-22 0 -34 -14 -42 -55h-20
c9 59 35 81 65 81c41 0 65 -58 97 -58c21 0 35 17 41 55h20z" />
    <glyph glyph-name="odieresis" unicode="&#xf6;" horiz-adv-x="490" 
d="M269 445c123 0 199 -103 186 -229s-111 -229 -234 -229s-199 103 -186 229s111 229 234 229zM268 415c-107 0 -187 -89 -200 -199s47 -199 154 -199s187 89 200 199s-47 199 -154 199zM392 553l-8 -42h-41l8 42h41zM242 553l-8 -42h-42l8 42h42z" />
    <glyph glyph-name="divide" unicode="&#xf7;" horiz-adv-x="381" 
d="M352 276h-302l4 26h302zM243 396h-42l7 42h42zM198 140h-42l7 42h42z" />
    <glyph glyph-name="oslash" unicode="&#xf8;" horiz-adv-x="490" 
d="M368 380l-232 -338c23 -16 53 -25 86 -25c107 0 187 89 200 199c8 68 -12 129 -54 164zM122 52l232 338c-23 16 -53 25 -86 25c-107 0 -187 -89 -200 -199c-8 -68 12 -129 54 -164zM104 26c-51 42 -77 112 -69 190c13 126 111 229 234 229c40 0 74 -11 103 -29l37 54
l14 -9l-38 -55c52 -42 78 -112 70 -190c-13 -126 -111 -229 -234 -229c-40 0 -74 11 -103 29l-37 -54l-14 9z" />
    <glyph glyph-name="ugrave" unicode="&#xf9;" horiz-adv-x="476" 
d="M350 517l-9 -12l-128 87l19 25zM47 112c0 37 10 90 20 145l31 175h33l-31 -175c-10 -56 -19 -108 -19 -137c0 -70 40 -97 99 -97c79 0 177 72 198 188l39 221h33l-53 -300c-9 -50 -14 -101 -14 -132h-33c0 34 6 80 11 110c-41 -75 -120 -118 -189 -118
c-83 0 -125 49 -125 120z" />
    <glyph glyph-name="uacute" unicode="&#xfa;" horiz-adv-x="476" 
d="M47 112c0 37 10 90 20 145l31 175h33l-31 -175c-10 -56 -19 -108 -19 -137c0 -70 40 -97 99 -97c79 0 177 72 198 188l39 221h33l-53 -300c-9 -50 -14 -101 -14 -132h-33c0 34 6 80 11 110c-41 -75 -120 -118 -189 -118c-83 0 -125 49 -125 120zM379 592l-128 -87l-9 12
l118 100z" />
    <glyph glyph-name="ucircumflex" unicode="&#xfb;" horiz-adv-x="476" 
d="M47 112c0 37 10 90 20 145l31 175h33l-31 -175c-10 -56 -19 -108 -19 -137c0 -70 40 -97 99 -97c79 0 177 72 198 188l39 221h33l-53 -300c-9 -50 -14 -101 -14 -132h-33c0 34 6 80 11 110c-41 -75 -120 -118 -189 -118c-83 0 -125 49 -125 120zM391 522l-15 -14l-70 94
l-102 -94l-14 15l121 114z" />
    <glyph glyph-name="udieresis" unicode="&#xfc;" horiz-adv-x="476" 
d="M47 112c0 37 10 90 20 145l31 175h33l-31 -175c-10 -56 -19 -108 -19 -137c0 -70 40 -97 99 -97c79 0 177 72 198 188l39 221h33l-53 -300c-9 -50 -14 -101 -14 -132h-33c0 34 6 80 11 110c-41 -75 -120 -118 -189 -118c-83 0 -125 49 -125 120zM392 553l-8 -42h-41l8 42
h41zM243 553l-8 -42h-42l8 42h42z" />
    <glyph glyph-name="yacute" unicode="&#xfd;" horiz-adv-x="398" 
d="M415 432l-361 -627h-36l115 197l-93 430h34l83 -391l222 391h36zM347 592l-128 -87l-9 12l118 100z" />
    <glyph glyph-name="thorn" unicode="&#xfe;" horiz-adv-x="500" 
d="M96 216c-16 -123 50 -198 143 -198s177 76 193 198c16 123 -48 198 -141 198c-97 0 -180 -80 -195 -198zM131 600h33l-47 -263c33 60 102 107 179 107c115 0 186 -96 169 -230c-17 -135 -116 -226 -228 -226c-79 0 -146 54 -157 132l-56 -315h-33z" />
    <glyph glyph-name="ydieresis" unicode="&#xff;" horiz-adv-x="398" 
d="M415 432l-361 -627h-36l115 197l-93 430h34l83 -391l222 391h36zM349 553l-8 -42h-41l8 42h41zM200 553l-8 -42h-42l8 42h42z" />
    <glyph glyph-name="dotlessi" unicode="&#x131;" horiz-adv-x="161" 
d="M134 432l-76 -432h-33l76 432h33z" />
    <glyph glyph-name="Lslash" unicode="&#x141;" horiz-adv-x="381" 
d="M338 31l-6 -31h-306l50 284l-63 -46l-11 19l79 57l51 286h34l-45 -259l85 62l10 -19l-101 -73l-49 -280h272z" />
    <glyph glyph-name="lslash" unicode="&#x142;" horiz-adv-x="161" 
d="M192 369l-79 -55l-55 -314h-33l51 287l-62 -45l-11 18l78 56l50 284h33l-46 -258l64 46z" />
    <glyph glyph-name="OE" unicode="&#x152;" horiz-adv-x="812" 
d="M832 600l-5 -31h-272l-43 -238h225l-6 -31h-224l-47 -269h272l-6 -31h-415c-218 0 -285 139 -260 304s131 296 348 296h433zM314 32h111l96 536h-125c-202 0 -291 -131 -311 -264c-22 -145 26 -272 229 -272z" />
    <glyph glyph-name="oe" unicode="&#x153;" horiz-adv-x="819" 
d="M759 299c6 65 -44 117 -119 117c-67 0 -142 -43 -175 -146h289s4 16 5 29zM429 125c-39 -80 -117 -138 -208 -138c-123 0 -199 103 -186 229s111 229 234 229c89 0 153 -56 177 -135c40 85 120 134 194 134c91 0 156 -62 150 -151c-1 -12 -5 -35 -10 -49h-321
c-2 -12 -4 -24 -5 -35c-8 -107 43 -191 162 -191c54 0 108 22 142 48l-6 -34c-32 -23 -83 -44 -147 -44c-91 0 -154 54 -176 137zM268 415c-107 0 -187 -89 -200 -199s47 -199 154 -199s187 89 200 199s-47 199 -154 199z" />
    <glyph glyph-name="Scaron" unicode="&#x160;" horiz-adv-x="414" 
d="M403 568l-10 -29c-20 18 -69 44 -127 44c-79 0 -141 -43 -151 -110c-9 -62 19 -112 105 -138c130 -38 167 -103 155 -190c-14 -102 -98 -159 -195 -159c-84 0 -137 37 -169 70l12 33c31 -32 79 -72 160 -72c82 0 147 50 158 129c9 72 -18 123 -136 159
c-98 29 -136 92 -124 170c12 79 90 139 190 139c57 0 113 -28 132 -46zM405 791l-121 -114l-81 114l16 15l69 -95l102 95z" />
    <glyph glyph-name="scaron" unicode="&#x161;" horiz-adv-x="343" 
d="M318 416l-8 -28c-9 6 -50 26 -104 26c-63 0 -106 -29 -113 -72c-6 -39 9 -79 83 -100c108 -32 126 -92 116 -146c-12 -71 -76 -109 -151 -109c-64 0 -109 24 -135 39l9 29c24 -16 67 -38 127 -38c59 0 108 27 117 78c8 39 4 90 -97 119c-83 24 -112 73 -101 130
c10 57 66 100 145 100c59 0 106 -23 112 -28zM344 622l-120 -114l-81 115l15 14l70 -94l102 94z" />
    <glyph glyph-name="Ydieresis" unicode="&#x178;" horiz-adv-x="486" 
d="M537 600l-274 -360l-42 -240h-34l42 240l-145 360h35l131 -327l248 327h39zM423 721l-8 -42h-41l8 42h41zM274 721l-8 -42h-42l8 42h42z" />
    <glyph glyph-name="Zcaron" unicode="&#x17d;" horiz-adv-x="433" 
d="M460 578l-413 -547h316l-5 -31h-359l3 22l413 547h-317l5 31h359zM417 791l-121 -114l-81 114l16 15l69 -95l102 95z" />
    <glyph glyph-name="zcaron" unicode="&#x17e;" horiz-adv-x="357" 
d="M355 432l-3 -21l-315 -382h258l-5 -29h-301l3 21l315 382h-238l4 29h282zM356 622l-120 -114l-81 115l15 14l70 -94l102 94z" />
    <glyph glyph-name="florin" unicode="&#x192;" horiz-adv-x="232" 
d="M325 609l-7 -26c-6 1 -14 3 -23 3c-57 0 -94 -25 -122 -132l-31 -121h111l-5 -28h-114l-100 -389c-19 -71 -55 -118 -127 -118c-25 0 -42 10 -49 16l6 28c8 -7 22 -16 43 -16c50 0 80 34 94 91l100 388h-83l5 28h86l31 120c33 129 87 161 157 161c9 0 21 -2 28 -5z" />
    <glyph glyph-name="circumflex" unicode="&#x2c6;" horiz-adv-x="294" 
d="M301 522l-15 -14l-70 94l-102 -94l-14 15l121 114z" />
    <glyph glyph-name="caron" unicode="&#x2c7;" horiz-adv-x="294" 
d="M319 622l-120 -114l-81 115l15 14l70 -94l102 94z" />
    <glyph glyph-name="breve" unicode="&#x2d8;" horiz-adv-x="294" 
d="M299 594c-15 -52 -55 -85 -98 -85c-44 0 -75 31 -80 85l14 2c8 -40 33 -64 68 -64s67 26 83 64z" />
    <glyph glyph-name="dotaccent" unicode="&#x2d9;" horiz-adv-x="294" 
d="M230 553l-8 -42h-42l8 42h42z" />
    <glyph glyph-name="ring" unicode="&#x2da;" horiz-adv-x="294" 
d="M223 683c48 0 83 -39 78 -88c-5 -48 -48 -87 -97 -87c-48 0 -84 39 -79 87c5 49 49 88 98 88zM220 662c-36 0 -70 -30 -73 -67c-4 -36 23 -65 59 -65s70 29 73 65c4 37 -23 67 -59 67z" />
    <glyph glyph-name="ogonek" unicode="&#x2db;" horiz-adv-x="294" 
d="M146 -79c-11 -40 -49 -65 -89 -65c-44 0 -72 34 -68 78c7 53 71 91 121 74v-6c-4 1 -10 -3 -15 -2h-9c-34 -2 -70 -26 -74 -60c-5 -35 16 -63 52 -63c24 0 47 10 61 31c4 5 9 15 11 21l7 -7z" />
    <glyph glyph-name="tilde" unicode="&#x2dc;" horiz-adv-x="294" 
d="M317 591c-8 -55 -35 -81 -65 -81c-41 0 -65 58 -96 58c-22 0 -34 -14 -42 -55h-20c9 59 35 81 65 81c41 0 65 -58 97 -58c21 0 35 17 41 55h20z" />
    <glyph glyph-name="hungarumlaut" unicode="&#x2dd;" horiz-adv-x="294" 
d="M329 595l-131 -88l-9 11l122 102zM229 595l-131 -88l-8 11l121 102z" />
    <glyph glyph-name="pi" unicode="&#x3c0;" horiz-adv-x="504" 
d="M513 432l-5 -29h-60l-71 -403h-33l71 403h-259l-71 -403h-33l71 403h-60l4 29h446z" />
    <glyph glyph-name="endash" unicode="&#x2013;" horiz-adv-x="354" 
d="M364 263l-5 -24h-357l6 24h356z" />
    <glyph glyph-name="emdash" unicode="&#x2014;" horiz-adv-x="586" 
d="M596 263l-5 -24h-589l6 24h588z" />
    <glyph glyph-name="quoteleft" unicode="&#x2018;" horiz-adv-x="171" 
d="M100 447l7 44c9 58 34 95 76 113l8 -13c-33 -18 -53 -53 -58 -96h23l-8 -48h-48z" />
    <glyph glyph-name="quoteright" unicode="&#x2019;" horiz-adv-x="171" 
d="M178 600l-7 -44c-10 -58 -34 -95 -76 -113l-8 13c33 18 53 53 58 96h-23l8 48h48z" />
    <glyph glyph-name="quotesinglbase" unicode="&#x201a;" horiz-adv-x="172" 
d="M81 48l-7 -44c-10 -58 -34 -95 -76 -113l-8 13c33 18 53 53 58 96h-23l8 48h48z" />
    <glyph glyph-name="quotedblleft" unicode="&#x201c;" horiz-adv-x="283" 
d="M212 447l7 44c9 58 34 95 76 113l8 -13c-33 -18 -53 -53 -58 -96h23l-8 -48h-48zM100 447l7 44c9 58 34 95 76 113l8 -13c-33 -18 -53 -53 -58 -96h23l-8 -48h-48z" />
    <glyph glyph-name="quotedblright" unicode="&#x201d;" horiz-adv-x="283" 
d="M178 600l-7 -44c-10 -58 -34 -95 -76 -113l-8 13c33 18 53 53 58 96h-23l8 48h48zM290 600l-7 -44c-10 -58 -34 -95 -76 -113l-8 13c33 18 53 53 58 96h-23l8 48h48z" />
    <glyph glyph-name="quotedblbase" unicode="&#x201e;" horiz-adv-x="283" 
d="M81 48l-7 -44c-10 -58 -34 -95 -76 -113l-8 13c33 18 53 53 58 96h-23l8 48h48zM193 48l-7 -44c-10 -58 -34 -95 -76 -113l-8 13c33 18 53 53 58 96h-23l8 48h48z" />
    <glyph glyph-name="dagger" unicode="&#x2020;" horiz-adv-x="382" 
d="M375 360h-145l-98 -557h-28l98 557h-146l4 25h146l38 215h28l-38 -215h145z" />
    <glyph glyph-name="daggerdbl" unicode="&#x2021;" horiz-adv-x="382" 
d="M315 17h-145l-38 -214h-28l38 214h-146l4 26h146l56 317h-146l4 25h146l38 215h28l-38 -215h145l-4 -25h-145l-56 -317h145z" />
    <glyph glyph-name="bullet" unicode="&#x2022;" horiz-adv-x="198" 
d="M57 288c3 30 31 55 61 55s52 -25 49 -55s-31 -55 -61 -55s-52 25 -49 55z" />
    <glyph glyph-name="ellipsis" unicode="&#x2026;" horiz-adv-x="537" 
d="M82 48l-8 -48h-48l8 48h48zM261 48l-8 -48h-48l8 48h48zM440 48l-8 -48h-48l8 48h48z" />
    <glyph glyph-name="perthousand" unicode="&#x2030;" horiz-adv-x="897" 
d="M838 130c-11 -90 -67 -142 -127 -142c-56 0 -105 52 -95 142c11 89 68 141 127 141c56 0 105 -52 95 -141zM310 471c-11 -89 -67 -141 -127 -141c-57 0 -106 52 -95 141c10 90 68 142 127 142c56 0 105 -52 95 -142zM544 606l-439 -624l-16 12l439 624zM547 130
c-11 -90 -67 -142 -127 -142c-56 0 -105 52 -94 142c10 89 67 141 127 141c56 0 105 -52 94 -141zM810 130c8 68 -20 116 -69 116s-89 -48 -97 -116s20 -117 69 -117s89 49 97 117zM282 471c8 68 -21 117 -69 117c-49 0 -89 -49 -97 -117s20 -116 69 -116s89 48 97 116z
M519 130c8 68 -20 116 -69 116s-88 -48 -96 -116s20 -117 69 -117s88 49 96 117z" />
    <glyph glyph-name="guilsinglleft" unicode="&#x2039;" horiz-adv-x="250" 
d="M256 414l-184 -166l125 -164l-16 -13l-143 179l207 180z" />
    <glyph glyph-name="guilsinglright" unicode="&#x203a;" horiz-adv-x="250" 
d="M221 250l-207 -179l-11 16l184 165l-125 165l16 13z" />
    <glyph glyph-name="fraction" unicode="&#x2044;" horiz-adv-x="131" 
d="M308 606l-439 -624l-16 12l439 624z" />
    <glyph glyph-name="Euro" unicode="&#x20ac;" horiz-adv-x="458" 
d="M477 584l-5 -31c-18 15 -54 32 -104 32c-100 0 -182 -77 -219 -207h180l-4 -24h-181c-5 -17 -8 -35 -11 -53c-2 -18 -4 -36 -5 -53h178l-4 -24h-176c-1 -130 52 -208 160 -208c48 0 87 17 110 32l-5 -32c-21 -13 -60 -30 -111 -30c-122 0 -190 88 -188 238h-61l4 24h58
c1 17 3 35 6 53c2 18 6 36 10 53h-55l4 24h57c44 150 137 237 255 237c52 0 89 -17 107 -31z" />
    <glyph glyph-name="trademark" unicode="&#x2122;" horiz-adv-x="719" 
d="M654 267h-28l49 279l-22 -36l-151 -243h-18l-65 243c-4 14 -10 37 -10 37l-49 -280h-28l59 333h30l79 -290l181 290h32zM342 600l-4 -28h-111l-54 -305h-31l54 305h-110l4 28h252z" />
    <glyph glyph-name="Omega" unicode="&#x2126;" horiz-adv-x="501" 
d="M490 397c-13 -85 -75 -164 -152 -204l-29 -162h101l-5 -31h-129l37 213c77 35 133 108 145 183c15 98 -38 189 -147 189c-108 0 -190 -91 -205 -189c-12 -75 14 -147 85 -186l-37 -210h-128l5 31h101l28 162c-66 41 -99 118 -86 204c18 115 115 216 241 216
c119 0 193 -101 175 -216z" />
    <glyph glyph-name="partialdiff" unicode="&#x2202;" horiz-adv-x="471" 
d="M30 175c14 112 99 194 205 194c57 0 124 -28 157 -90c20 209 -37 304 -166 304c-44 0 -87 -14 -119 -32l4 33c25 15 71 30 117 30c164 0 220 -140 194 -350c-27 -220 -141 -278 -231 -278c-102 0 -175 77 -161 189zM63 175c-11 -97 44 -160 132 -160c74 0 165 47 191 228
c-24 56 -84 97 -151 97c-92 0 -161 -70 -172 -165z" />
    <glyph glyph-name="Delta" unicode="&#x2206;" horiz-adv-x="528" 
d="M457 0h-465l333 606h17zM423 29l-100 522l-285 -522h385z" />
    <glyph glyph-name="product" unicode="&#x220f;" horiz-adv-x="561" 
d="M597 600l-5 -31h-60l-101 -569h-34l101 569h-312l-101 -569h-34l101 569h-60l5 31h500z" />
    <glyph glyph-name="summation" unicode="&#x2211;" horiz-adv-x="468" 
d="M517 600l-5 -30h-389l167 -351l-286 -359h397l-5 -30h-444l2 16l300 377l-171 360l3 17h431z" />
    <glyph glyph-name="minus" unicode="&#x2212;" horiz-adv-x="380" 
d="M348 302l-4 -26h-285l4 26h285z" />
    <glyph glyph-name="radical" unicode="&#x221a;" horiz-adv-x="406" 
d="M522 741l-415 -761h-9l-69 287l29 11l56 -244l384 707h24z" />
    <glyph glyph-name="infinity" unicode="&#x221e;" horiz-adv-x="674" 
d="M532 410c70 0 116 -54 109 -122c-7 -66 -61 -121 -131 -121c-56 0 -122 59 -165 105c-55 -46 -132 -105 -187 -105c-71 0 -116 55 -109 121c8 68 60 122 131 122c55 0 118 -57 165 -106c56 49 131 106 187 106zM617 288c6 53 -29 100 -83 100c-52 0 -124 -56 -175 -100
c39 -40 102 -99 154 -99c54 0 98 48 104 99zM329 288c-41 44 -101 100 -153 100c-54 0 -97 -47 -103 -100c-5 -51 28 -99 82 -99c52 0 126 59 174 99z" />
    <glyph glyph-name="integral" unicode="&#x222b;" horiz-adv-x="195" 
d="M298 647l-4 -27c-9 2 -20 5 -29 5c-58 0 -88 -28 -107 -136l-101 -571c-12 -67 -49 -117 -120 -117c-26 0 -43 10 -50 16l6 26c7 -6 23 -15 44 -15c50 0 77 35 87 93l100 566c23 128 68 165 143 165c11 0 25 -3 31 -5z" />
    <glyph glyph-name="approxequal" unicode="&#x2248;" horiz-adv-x="378" 
d="M158 371c-33 0 -54 -19 -65 -31l3 26c6 8 27 31 65 31c50 0 71 -33 115 -33c33 0 54 19 65 31l-3 -26c-6 -8 -27 -31 -65 -31c-49 0 -70 33 -115 33zM129 216c-33 0 -54 -19 -65 -31l3 26c6 8 27 31 65 31c50 0 71 -33 115 -33c33 0 54 19 65 31l-3 -26
c-6 -8 -27 -31 -65 -31c-49 0 -70 33 -115 33z" />
    <glyph glyph-name="notequal" unicode="&#x2260;" horiz-adv-x="378" 
d="M350 471l-68 -91h56l-4 -26h-72l-95 -128h144l-5 -26h-159l-77 -103l-16 11l69 92h-57l5 26h71l96 128h-145l5 26h160l76 102z" />
    <glyph glyph-name="lessequal" unicode="&#x2264;" horiz-adv-x="371" 
d="M353 427l-252 -146l199 -145l-15 -22l-230 169l289 167zM304 25l-4 -25h-305l4 25h305z" />
    <glyph glyph-name="greaterequal" unicode="&#x2265;" horiz-adv-x="371" 
d="M340 283l-289 -167l-9 23l251 145l-199 146l15 21zM304 25l-4 -25h-305l4 25h305z" />
    <glyph glyph-name="lozenge" unicode="&#x25ca;" horiz-adv-x="436" 
d="M417 293l-246 -339l-128 339l247 333zM388 294l-106 285l-211 -288l107 -290z" />
    <glyph glyph-name="zero.oprp" horiz-adv-x="502" 
d="M460 216c-14 -133 -112 -229 -234 -229c-123 0 -200 96 -186 229c14 131 111 229 234 229c122 0 200 -98 186 -229zM426 216c14 118 -51 198 -153 198c-103 0 -185 -80 -199 -198c-14 -120 50 -198 153 -198c102 0 185 78 199 198z" />
    <glyph glyph-name="one.oprp" horiz-adv-x="224" 
d="M93 0h-34l71 400l-64 -8l4 25l101 25z" />
    <glyph glyph-name="two.oprp" horiz-adv-x="424" 
d="M380 313c-8 -78 -72 -131 -135 -171l-173 -111h285l-5 -31h-340l4 25l196 129c58 37 127 87 134 157c8 75 -50 104 -116 104c-52 0 -109 -21 -158 -55l6 35c33 24 97 51 155 51c93 0 155 -51 147 -133z" />
    <glyph glyph-name="three.oprp" horiz-adv-x="436" 
d="M417 412l-264 -246c18 5 39 8 59 7c95 -8 149 -85 138 -178c-14 -120 -108 -195 -219 -195c-56 0 -114 23 -144 51l5 35c31 -30 80 -55 142 -55c93 0 171 61 182 164c11 93 -45 152 -129 152c-42 0 -72 -13 -91 -28l-13 19l281 263h-286l4 31h338z" />
    <glyph glyph-name="four.oprp" horiz-adv-x="473" 
d="M415 30l-5 -30h-106l-34 -195h-33l34 195h-281l3 23l368 421h22l-74 -414h106zM338 377l-303 -347h241z" />
    <glyph glyph-name="five.oprp" horiz-adv-x="428" 
d="M404 432l-5 -31h-271l-48 -269c35 38 80 51 119 51c92 0 164 -68 150 -185c-14 -120 -108 -198 -220 -198c-56 0 -114 23 -144 51l5 35c33 -31 81 -55 142 -55c89 0 171 62 183 167c11 93 -39 156 -125 156c-62 0 -103 -35 -128 -74l-21 8l61 344h302z" />
    <glyph glyph-name="six.oprp" 
d="M465 582l-4 -32c-25 19 -67 33 -112 33c-126 0 -225 -101 -255 -284c-3 -16 -4 -24 -6 -41c28 62 98 113 177 113c110 0 176 -84 162 -196c-13 -114 -101 -189 -204 -189c-92 0 -194 65 -168 279c26 223 141 349 298 349c47 0 93 -16 112 -32zM393 177
c10 95 -38 164 -132 164c-82 0 -161 -62 -172 -156c-10 -95 45 -170 134 -170c87 0 160 63 170 162z" />
    <glyph glyph-name="seven.oprp" horiz-adv-x="396" 
d="M403 413c-67 -84 -260 -409 -333 -608h-39c78 201 263 510 328 596h-310l5 31h352z" />
    <glyph glyph-name="eight.oprp" horiz-adv-x="483" 
d="M449 475c-5 -73 -62 -129 -137 -145c70 -22 119 -76 113 -162c-7 -111 -101 -182 -213 -182c-102 0 -185 67 -178 169s90 168 177 180c-51 19 -89 65 -85 129c6 93 87 151 175 151c83 0 154 -53 148 -140zM416 473c6 73 -48 113 -116 113c-70 0 -136 -44 -141 -122
c-5 -71 50 -118 116 -118c67 0 136 51 141 127zM243 314c-81 0 -169 -58 -176 -156c-8 -90 64 -142 149 -142c84 0 169 55 176 151c8 92 -63 147 -149 147z" />
    <glyph glyph-name="nine.oprp" 
d="M4 -168l4 32c25 -19 67 -33 112 -33c126 0 225 120 255 303c3 16 4 24 6 41c-28 -62 -98 -113 -177 -113c-110 0 -175 84 -162 196c13 114 101 189 204 189c92 0 193 -66 168 -279c-26 -223 -141 -368 -298 -368c-47 0 -93 16 -112 32zM76 256c-10 -95 38 -164 132 -164
c82 0 162 62 172 156c10 95 -45 170 -134 170c-87 0 -160 -63 -170 -162z" />
    <glyph glyph-name="zero.otab" 
d="M261 445c119 0 189 -102 172 -233c-17 -132 -108 -225 -221 -225c-119 0 -189 102 -173 234c17 132 109 224 222 224zM260 414c-91 0 -172 -73 -187 -193c-16 -127 47 -203 140 -203c90 0 171 74 186 194c16 127 -46 202 -139 202z" />
    <glyph glyph-name="one.otab" 
d="M218 0h-34l71 400l-64 -8l4 25l101 25z" />
    <glyph glyph-name="two.otab" 
d="M401 313c-8 -78 -72 -131 -135 -171l-173 -111h285l-5 -31h-340l4 25l196 129c58 37 127 87 134 157c8 75 -50 104 -116 104c-52 0 -109 -21 -158 -55l6 35c33 24 97 51 155 51c93 0 155 -51 147 -133z" />
    <glyph glyph-name="three.otab" 
d="M435 412l-264 -246c18 5 39 8 59 7c95 -8 149 -85 138 -178c-14 -120 -108 -195 -219 -195c-56 0 -114 23 -144 51l5 35c31 -30 80 -55 142 -55c93 0 171 61 182 164c11 93 -45 152 -129 152c-42 0 -72 -13 -91 -28l-13 19l281 263h-286l4 31h338z" />
    <glyph glyph-name="four.otab" 
d="M414 30l-5 -30h-106l-34 -195h-33l34 195h-279l4 23l365 421h22l-74 -414h106zM337 377l-300 -347h238z" />
    <glyph glyph-name="five.otab" 
d="M426 432l-5 -31h-271l-48 -269c35 38 80 51 119 51c92 0 164 -68 150 -185c-14 -120 -108 -198 -220 -198c-56 0 -114 23 -144 51l5 35c33 -31 81 -55 142 -55c89 0 171 62 183 167c11 93 -39 156 -125 156c-62 0 -103 -35 -128 -74l-21 8l61 344h302z" />
    <glyph glyph-name="six.otab" 
d="M465 582l-4 -32c-25 19 -67 33 -112 33c-126 0 -225 -101 -255 -284c-3 -16 -4 -24 -6 -41c28 62 98 113 177 113c110 0 176 -84 162 -196c-13 -114 -101 -189 -204 -189c-92 0 -194 65 -168 279c26 223 141 349 298 349c47 0 93 -16 112 -32zM393 177
c10 95 -38 164 -132 164c-82 0 -161 -62 -172 -156c-10 -95 45 -170 134 -170c87 0 160 63 170 162z" />
    <glyph glyph-name="seven.otab" 
d="M440 413c-67 -84 -260 -409 -333 -608h-39c78 201 263 510 328 596h-310l5 31h352z" />
    <glyph glyph-name="eight.otab" 
d="M440 475c-6 -73 -61 -129 -136 -145c71 -23 118 -77 112 -162c-7 -111 -98 -182 -209 -182c-100 0 -180 67 -173 169s88 168 176 180c-51 19 -88 65 -84 129c6 93 84 151 171 151c81 0 149 -53 143 -140zM407 473c6 73 -45 113 -111 113c-69 0 -132 -44 -137 -122
c-5 -71 47 -118 111 -118c66 0 132 51 137 127zM238 314c-79 0 -164 -58 -171 -156c-8 -90 61 -142 145 -142c82 0 164 55 171 151c8 92 -60 147 -145 147z" />
    <glyph glyph-name="nine.otab" 
d="M4 -168l4 32c25 -19 67 -33 112 -33c126 0 225 120 255 303c3 16 4 24 6 41c-28 -62 -98 -113 -177 -113c-110 0 -175 84 -162 196c13 114 101 189 204 189c92 0 193 -66 168 -279c-26 -223 -141 -368 -298 -368c-47 0 -93 16 -112 32zM76 256c-10 -95 38 -164 132 -164
c82 0 162 62 172 156c10 95 -45 170 -134 170c-87 0 -160 -63 -170 -162z" />
    <glyph glyph-name="zero.ltab" 
d="M446 301c-25 -194 -118 -314 -234 -314c-118 0 -181 120 -156 314c26 191 119 314 234 314c118 0 181 -123 156 -314zM412 301c23 183 -32 283 -124 283c-90 0 -175 -100 -198 -283c-23 -185 33 -283 125 -283c90 0 174 98 197 283z" />
    <glyph glyph-name="one.ltab" 
d="M217 0h-34l100 566l-64 -8l4 25l101 25z" />
    <glyph glyph-name="two.ltab" 
d="M424 445c-12 -105 -79 -170 -131 -216l-221 -198h291l-4 -31h-336l1 25l235 213c47 43 120 110 131 207c11 101 -52 139 -121 139c-44 0 -101 -21 -147 -55l5 34c31 25 92 52 147 52c96 0 162 -62 150 -170z" />
    <glyph glyph-name="three.ltab" 
d="M465 580l-261 -228c18 5 39 8 59 7c95 -8 149 -85 138 -178c-14 -120 -108 -195 -219 -195c-56 0 -114 23 -144 51l5 35c31 -30 80 -55 142 -55c93 0 171 61 182 164c11 93 -45 152 -129 152c-42 0 -72 -13 -91 -28l-14 19l278 245h-285l4 31h336z" />
    <glyph glyph-name="four.ltab" 
d="M443 191l-5 -30h-106l-28 -161h-33l28 161h-279l3 23l367 425h22l-75 -418h106zM367 542l-302 -351h239z" />
    <glyph glyph-name="five.ltab" 
d="M456 600l-5 -31h-271l-45 -251c35 38 80 51 119 51c92 0 164 -68 150 -185c-14 -120 -108 -198 -220 -198c-56 0 -114 23 -144 51l5 35c33 -31 81 -55 142 -55c89 0 171 62 183 167c11 93 -39 156 -125 156c-62 0 -103 -35 -128 -74l-21 8l58 326h302z" />
    <glyph glyph-name="six.ltab" 
d="M465 582l-4 -32c-25 19 -67 33 -112 33c-126 0 -225 -101 -255 -284c-3 -16 -4 -24 -6 -41c28 62 98 113 177 113c110 0 176 -84 162 -196c-13 -114 -101 -189 -204 -189c-92 0 -194 65 -168 279c26 223 141 349 298 349c47 0 93 -16 112 -32zM393 177
c10 95 -38 164 -132 164c-82 0 -161 -62 -172 -156c-10 -95 45 -170 134 -170c87 0 160 63 170 162z" />
    <glyph glyph-name="seven.ltab" 
d="M470 581c-67 -84 -254 -382 -327 -581h-39c78 201 257 483 322 569h-310l5 31h352z" />
    <glyph glyph-name="eight.ltab" 
d="M440 475c-6 -73 -61 -129 -136 -145c71 -23 118 -77 112 -162c-7 -111 -98 -182 -209 -182c-100 0 -180 67 -173 169s88 168 176 180c-51 19 -88 65 -84 129c6 93 84 151 171 151c81 0 149 -53 143 -140zM407 473c6 73 -45 113 -111 113c-69 0 -132 -44 -137 -122
c-5 -71 47 -118 111 -118c66 0 132 51 137 127zM238 314c-79 0 -164 -58 -171 -156c-8 -90 61 -142 145 -142c82 0 164 55 171 151c8 92 -60 147 -145 147z" />
    <glyph glyph-name="nine.ltab" 
d="M33 19l4 32c25 -19 67 -33 112 -33c126 0 225 101 255 284c3 16 4 24 6 41c-28 -62 -98 -113 -177 -113c-110 0 -175 84 -162 196c13 114 101 189 204 189c92 0 193 -66 168 -279c-26 -223 -141 -349 -298 -349c-47 0 -93 16 -112 32zM105 424c-10 -95 38 -164 132 -164
c82 0 162 62 172 156c10 95 -45 170 -134 170c-87 0 -160 -63 -170 -162z" />
    <glyph glyph-name="questiondown.caps" horiz-adv-x="376" 
d="M266 547l8 48h49l-9 -48h-48zM14 132c10 88 79 142 165 184l62 30l16 89h29l-19 -107l-66 -33c-87 -43 -145 -88 -153 -162c-9 -83 56 -116 129 -116c53 0 122 27 163 63l-4 -35c-39 -32 -106 -59 -164 -59c-88 0 -169 45 -158 146z" />
    <glyph glyph-name="exclamdown.caps" horiz-adv-x="186" 
d="M126 546l8 48h49l-9 -48h-48zM34 0l85 435h24l-69 -435h-40z" />
    <glyph glyph-name="at.caps" horiz-adv-x="662" 
d="M664 353c-11 -130 -122 -244 -205 -244c-39 0 -57 25 -61 55c-22 -32 -64 -59 -102 -59c-83 0 -114 83 -87 183s116 181 198 181c27 0 42 -5 62 -16l28 -1l-68 -255c-9 -37 4 -67 40 -67c69 0 161 104 172 222c13 143 -90 243 -229 243c-177 0 -332 -152 -348 -328
c-15 -166 105 -287 266 -287c71 0 147 20 222 68l8 -15c-83 -55 -164 -73 -234 -73c-177 0 -306 134 -291 306c17 191 186 351 377 351c154 0 266 -108 252 -264zM464 428c-17 11 -31 19 -59 19c-71 0 -145 -72 -168 -161c-22 -87 -2 -157 67 -157c43 0 92 44 103 82z" />
    <glyph glyph-name="Q.alt" horiz-adv-x="657" 
d="M600 300c20 173 -87 282 -226 282c-141 0 -270 -109 -290 -282s85 -282 226 -282c139 0 270 109 290 282zM347 -12l25 -60c30 -73 68 -97 122 -97c44 0 80 24 107 53l16 -21c-25 -29 -68 -62 -130 -62c-67 0 -114 34 -147 113l-30 72c-165 0 -280 127 -260 314
c20 186 162 314 325 314c162 0 279 -128 259 -314c-18 -172 -141 -293 -287 -312z" />
    <glyph glyph-name="Q.alt2" horiz-adv-x="657" 
d="M600 300c20 173 -87 282 -226 282c-141 0 -270 -109 -290 -282s85 -282 226 -282c139 0 270 109 290 282zM409 3l76 -136h-40l-69 126c-22 -4 -44 -7 -67 -7c-163 0 -279 127 -259 314c20 186 162 314 325 314c162 0 279 -128 259 -314c-16 -147 -107 -257 -225 -297z
" />
    <glyph glyph-name="a.alt" horiz-adv-x="515" 
d="M404 216c16 123 -50 198 -143 198s-178 -76 -193 -198c-16 -123 48 -198 141 -198c97 0 181 80 195 198zM410 66c-6 -35 0 -47 25 -47c7 0 16 3 22 6v-19c-9 -7 -23 -12 -39 -12c-32 0 -50 23 -41 74l6 27c-33 -60 -102 -107 -179 -107c-115 0 -187 96 -169 230
c17 135 116 226 228 226c79 0 144 -53 156 -128l26 116h29z" />
    <glyph glyph-name="aacute.alt" horiz-adv-x="515" 
d="M404 216c16 123 -50 198 -143 198s-178 -76 -193 -198c-16 -123 48 -198 141 -198c97 0 181 80 195 198zM410 66c-6 -35 0 -47 25 -47c7 0 16 3 22 6v-19c-9 -7 -23 -12 -39 -12c-32 0 -50 23 -41 74l6 27c-33 -60 -102 -107 -179 -107c-115 0 -187 96 -169 230
c17 135 116 226 228 226c79 0 144 -53 156 -128l26 116h29zM388 592l-128 -87l-9 12l118 100z" />
    <glyph glyph-name="acircumflex.alt" horiz-adv-x="515" 
d="M404 216c16 123 -50 198 -143 198s-178 -76 -193 -198c-16 -123 48 -198 141 -198c97 0 181 80 195 198zM410 66c-6 -35 0 -47 25 -47c7 0 16 3 22 6v-19c-9 -7 -23 -12 -39 -12c-32 0 -50 23 -41 74l6 27c-33 -60 -102 -107 -179 -107c-115 0 -187 96 -169 230
c17 135 116 226 228 226c79 0 144 -53 156 -128l26 116h29zM400 522l-15 -14l-70 94l-102 -94l-14 15l121 114z" />
    <glyph glyph-name="adieresis.alt" horiz-adv-x="515" 
d="M404 216c16 123 -50 198 -143 198s-178 -76 -193 -198c-16 -123 48 -198 141 -198c97 0 181 80 195 198zM410 66c-6 -35 0 -47 25 -47c7 0 16 3 22 6v-19c-9 -7 -23 -12 -39 -12c-32 0 -50 23 -41 74l6 27c-33 -60 -102 -107 -179 -107c-115 0 -187 96 -169 230
c17 135 116 226 228 226c79 0 144 -53 156 -128l26 116h29zM404 553l-8 -42h-41l8 42h41zM255 553l-8 -42h-42l8 42h42z" />
    <glyph glyph-name="agrave.alt" horiz-adv-x="515" 
d="M359 517l-9 -12l-128 87l19 25zM404 216c16 123 -50 198 -143 198s-178 -76 -193 -198c-16 -123 48 -198 141 -198c97 0 181 80 195 198zM410 66c-6 -35 0 -47 25 -47c7 0 16 3 22 6v-19c-9 -7 -23 -12 -39 -12c-32 0 -50 23 -41 74l6 27c-33 -60 -102 -107 -179 -107
c-115 0 -187 96 -169 230c17 135 116 226 228 226c79 0 144 -53 156 -128l26 116h29z" />
    <glyph glyph-name="aring.alt" horiz-adv-x="515" 
d="M404 216c16 123 -50 198 -143 198s-178 -76 -193 -198c-16 -123 48 -198 141 -198c97 0 181 80 195 198zM410 66c-6 -35 0 -47 25 -47c7 0 16 3 22 6v-19c-9 -7 -23 -12 -39 -12c-32 0 -50 23 -41 74l6 27c-33 -60 -102 -107 -179 -107c-115 0 -187 96 -169 230
c17 135 116 226 228 226c79 0 144 -53 156 -128l26 116h29zM322 683c48 0 83 -39 78 -88c-5 -48 -48 -87 -97 -87c-48 0 -84 39 -79 87c5 49 49 88 98 88zM319 662c-36 0 -70 -30 -73 -67c-4 -36 23 -65 59 -65s70 29 73 65c4 37 -23 67 -59 67z" />
    <glyph glyph-name="atilde.alt" horiz-adv-x="515" 
d="M404 216c16 123 -50 198 -143 198s-178 -76 -193 -198c-16 -123 48 -198 141 -198c97 0 181 80 195 198zM410 66c-6 -35 0 -47 25 -47c7 0 16 3 22 6v-19c-9 -7 -23 -12 -39 -12c-32 0 -50 23 -41 74l6 27c-33 -60 -102 -107 -179 -107c-115 0 -187 96 -169 230
c17 135 116 226 228 226c79 0 144 -53 156 -128l26 116h29zM416 591c-8 -55 -35 -81 -65 -81c-41 0 -65 58 -96 58c-22 0 -34 -14 -42 -55h-20c9 59 35 81 65 81c41 0 65 -58 97 -58c21 0 35 17 41 55h20z" />
    <glyph glyph-name="d.alt" horiz-adv-x="515" 
d="M404 216c16 123 -50 198 -143 198s-178 -76 -193 -198c-16 -123 48 -198 141 -198c97 0 181 80 195 198zM410 66c-6 -35 0 -47 25 -47c7 0 16 3 22 6v-19c-9 -7 -23 -12 -39 -12c-32 0 -50 23 -41 74l6 27c-33 -60 -102 -107 -179 -107c-115 0 -187 96 -169 230
c17 135 116 226 228 226c79 0 146 -54 157 -132l51 288h33z" />
    <glyph glyph-name="f.alt" horiz-adv-x="225" 
d="M295 606l-5 -28c-4 1 -15 3 -22 3c-52 0 -91 -14 -114 -129l-4 -20h114l-5 -28h-114l-105 -599h-33l105 599h-82l4 28h83l4 20c25 125 73 159 146 159c9 0 21 -2 28 -5z" />
    <glyph glyph-name="t.alt" horiz-adv-x="254" 
d="M258 432l-4 -28h-107l-51 -288c-11 -65 14 -96 61 -96c21 0 38 6 52 15l5 -23c-16 -12 -37 -21 -65 -21c-58 0 -100 43 -86 124l51 289h-65l5 28h65l20 113h33l-20 -113h106z" />
    <glyph glyph-name="u.alt" horiz-adv-x="492" 
d="M361 110c-41 -75 -120 -118 -189 -118c-83 0 -125 49 -125 120c0 37 10 90 20 145l31 175h33l-31 -175c-10 -56 -19 -108 -19 -137c0 -70 40 -97 99 -97c79 0 177 72 198 188l39 221h33l-64 -366c-6 -35 0 -47 25 -47c7 0 16 3 22 6v-19c-9 -7 -23 -12 -39 -12
c-32 0 -51 23 -41 74z" />
    <glyph glyph-name="uacute.alt" horiz-adv-x="492" 
d="M361 110c-41 -75 -120 -118 -189 -118c-83 0 -125 49 -125 120c0 37 10 90 20 145l31 175h33l-31 -175c-10 -56 -19 -108 -19 -137c0 -70 40 -97 99 -97c79 0 177 72 198 188l39 221h33l-64 -366c-6 -35 0 -47 25 -47c7 0 16 3 22 6v-19c-9 -7 -23 -12 -39 -12
c-32 0 -51 23 -41 74zM379 592l-128 -87l-9 12l118 100z" />
    <glyph glyph-name="ucircumflex.alt" horiz-adv-x="492" 
d="M361 110c-41 -75 -120 -118 -189 -118c-83 0 -125 49 -125 120c0 37 10 90 20 145l31 175h33l-31 -175c-10 -56 -19 -108 -19 -137c0 -70 40 -97 99 -97c79 0 177 72 198 188l39 221h33l-64 -366c-6 -35 0 -47 25 -47c7 0 16 3 22 6v-19c-9 -7 -23 -12 -39 -12
c-32 0 -51 23 -41 74zM391 522l-15 -14l-70 94l-102 -94l-14 15l121 114z" />
    <glyph glyph-name="udieresis.alt" horiz-adv-x="492" 
d="M361 110c-41 -75 -120 -118 -189 -118c-83 0 -125 49 -125 120c0 37 10 90 20 145l31 175h33l-31 -175c-10 -56 -19 -108 -19 -137c0 -70 40 -97 99 -97c79 0 177 72 198 188l39 221h33l-64 -366c-6 -35 0 -47 25 -47c7 0 16 3 22 6v-19c-9 -7 -23 -12 -39 -12
c-32 0 -51 23 -41 74zM392 553l-8 -42h-41l8 42h41zM243 553l-8 -42h-42l8 42h42z" />
    <glyph glyph-name="ugrave.alt" horiz-adv-x="492" 
d="M350 517l-9 -12l-128 87l19 25zM361 110c-41 -75 -120 -118 -189 -118c-83 0 -125 49 -125 120c0 37 10 90 20 145l31 175h33l-31 -175c-10 -56 -19 -108 -19 -137c0 -70 40 -97 99 -97c79 0 177 72 198 188l39 221h33l-64 -366c-6 -35 0 -47 25 -47c7 0 16 3 22 6v-19
c-9 -7 -23 -12 -39 -12c-32 0 -51 23 -41 74z" />
    <glyph glyph-name="y.alt" horiz-adv-x="476" 
d="M380 33c-30 -171 -102 -236 -231 -236c-49 0 -92 18 -121 33v31c31 -17 74 -34 124 -34c105 0 166 55 195 208l14 75c-41 -75 -120 -118 -189 -118c-83 0 -125 49 -125 120c0 37 10 90 20 145l31 175h33l-31 -175c-10 -56 -19 -108 -19 -137c0 -70 40 -97 99 -97
c79 0 177 72 198 188l39 221h33z" />
    <glyph glyph-name="yacute.alt" horiz-adv-x="476" 
d="M380 33c-30 -171 -102 -236 -231 -236c-49 0 -92 18 -121 33v31c31 -17 74 -34 124 -34c105 0 166 55 195 208l14 75c-41 -75 -120 -118 -189 -118c-83 0 -125 49 -125 120c0 37 10 90 20 145l31 175h33l-31 -175c-10 -56 -19 -108 -19 -137c0 -70 40 -97 99 -97
c79 0 177 72 198 188l39 221h33zM389 592l-128 -87l-9 12l118 100z" />
    <glyph glyph-name="ydieresis.alt" horiz-adv-x="476" 
d="M380 33c-30 -171 -102 -236 -231 -236c-49 0 -92 18 -121 33v31c31 -17 74 -34 124 -34c105 0 166 55 195 208l14 75c-41 -75 -120 -118 -189 -118c-83 0 -125 49 -125 120c0 37 10 90 20 145l31 175h33l-31 -175c-10 -56 -19 -108 -19 -137c0 -70 40 -97 99 -97
c79 0 177 72 198 188l39 221h33zM392 553l-8 -42h-41l8 42h41zM243 553l-8 -42h-42l8 42h42z" />
    <glyph glyph-name="fi.alt" horiz-adv-x="386" 
d="M389 600l-9 -54h-33l9 54h33zM359 432l-76 -432h-33l76 432h33zM295 606l-5 -28c-4 1 -15 3 -22 3c-52 0 -91 -14 -114 -129l-4 -20h114l-5 -28h-114l-105 -599h-33l105 599h-82l4 28h83l4 20c25 125 73 159 146 159c9 0 21 -2 28 -5z" />
    <glyph glyph-name="fl.alt" horiz-adv-x="385" 
d="M391 609l-108 -609h-33l102 573c-21 8 -49 11 -67 11c-69 0 -113 -33 -132 -136l-3 -16h114l-5 -28h-114l-105 -599h-33l105 599h-82l4 28h83l3 16c22 118 82 163 167 163c22 0 48 -5 70 -11z" />
    <glyph glyph-name="mu.alt" horiz-adv-x="492" 
d="M66 57l-44 -252h-33l109 627h33l-31 -175c-10 -56 -19 -108 -19 -137c0 -70 40 -97 99 -97c79 0 177 72 198 188l39 221h33l-64 -366c-6 -35 0 -47 25 -47c7 0 16 3 22 6v-19c-9 -7 -23 -12 -39 -12c-32 0 -51 23 -41 74l8 42c-41 -75 -120 -118 -189 -118
c-52 0 -89 21 -106 65z" />
    <glyph glyph-name="ordfeminine.alt" horiz-adv-x="412" 
d="M363 437c12 91 -39 147 -110 147c-70 0 -134 -56 -145 -147c-11 -92 38 -148 107 -148c70 0 136 57 148 148zM372 323c-4 -26 0 -34 16 -34c8 0 15 2 20 5v-17c-9 -6 -20 -11 -34 -11c-26 0 -41 15 -33 57l2 10c-29 -42 -79 -71 -137 -71c-86 0 -141 76 -128 177
c13 103 90 172 175 172c59 0 112 -38 122 -92l20 81h25z" />
    </font>
</defs>
</svg>
